<svg width="515" height="494" viewBox="0 0 515 494" fill="none" xmlns="http://www.w3.org/2000/svg">
<path d="M421.854 169.531C421.857 191.407 417.547 213.07 409.171 233.281C400.796 253.493 388.518 271.858 373.039 287.328C357.561 302.798 339.184 315.07 318.959 323.442C298.734 331.815 277.057 336.124 255.165 336.124C233.274 336.127 211.597 331.82 191.373 323.449C171.148 315.079 152.771 302.809 137.292 287.341C121.814 271.872 109.536 253.508 101.16 233.298C92.7838 213.087 88.4741 191.425 88.4766 169.55V169.55C88.4741 147.674 92.7838 126.013 101.16 105.802C109.536 85.5913 121.814 67.2273 137.292 51.7589C152.771 36.2905 171.148 24.0207 191.373 15.6504C211.597 7.28004 233.274 2.9731 255.165 2.97559C299.371 2.97559 341.766 20.5231 373.026 51.7579C404.285 82.9926 421.849 125.356 421.854 169.531Z" stroke="url(#paint0_linear_1117_13469)" stroke-width="4"/>
<path d="M511.069 321.505C511.069 365.683 493.507 408.052 462.247 439.291C430.987 470.53 388.589 488.08 344.38 488.08C322.489 488.082 300.812 483.775 280.588 475.405C260.363 467.035 241.986 454.765 226.507 439.296C211.028 423.828 198.75 405.464 190.375 385.253C181.999 365.043 177.689 343.381 177.691 321.506V321.505C177.689 299.63 181.999 277.968 190.375 257.758C198.75 237.547 211.028 219.183 226.507 203.715C241.986 188.246 260.363 175.976 280.588 167.606C300.812 159.236 322.489 154.929 344.38 154.931C388.589 154.931 430.987 172.481 462.247 203.72C493.507 234.959 511.069 277.328 511.069 321.505Z" stroke="url(#paint1_linear_1117_13469)" stroke-width="4"/>
<path d="M336.334 324.469C336.329 368.644 318.766 411.008 287.506 442.243C256.247 473.477 213.851 491.025 169.646 491.025C125.437 491.025 83.0387 473.475 51.7786 442.236C20.5185 410.997 2.95703 368.628 2.95703 324.451C2.96205 280.276 20.5257 237.913 51.7853 206.678C83.0448 175.443 125.44 157.896 169.646 157.896C213.855 157.896 256.253 175.446 287.513 206.684C318.773 237.923 336.334 280.292 336.334 324.469Z" stroke="url(#paint2_linear_1117_13469)" stroke-width="4"/>
<defs>
<linearGradient id="paint0_linear_1117_13469" x1="69.9089" y1="169.55" x2="423.854" y2="169.55" gradientUnits="userSpaceOnUse">
<stop stop-color="#26627E"/>
<stop offset="1" stop-color="#00B198"/>
</linearGradient>
<linearGradient id="paint1_linear_1117_13469" x1="159.124" y1="321.505" x2="513.069" y2="321.505" gradientUnits="userSpaceOnUse">
<stop stop-color="#26627E"/>
<stop offset="1" stop-color="#00B198"/>
</linearGradient>
<linearGradient id="paint2_linear_1117_13469" x1="-15.6106" y1="324.46" x2="338.334" y2="324.46" gradientUnits="userSpaceOnUse">
<stop stop-color="#26627E"/>
<stop offset="1" stop-color="#00B198"/>
</linearGradient>
</defs>
</svg>
