<svg width="644" height="619" viewBox="0 0 644 619" fill="none" xmlns="http://www.w3.org/2000/svg">
<path d="M529.026 212.428C529.03 239.907 523.617 267.116 513.098 292.504C502.579 317.892 487.16 340.96 467.72 360.391C448.281 379.822 425.202 395.236 399.802 405.753C374.402 416.269 347.178 421.682 319.684 421.682C292.192 421.685 264.968 416.275 239.568 405.761C214.168 395.248 191.09 379.836 171.65 360.406C152.21 340.977 136.79 317.91 126.271 292.524C115.752 267.138 110.339 239.929 110.342 212.452V212.452C110.339 184.975 115.752 157.766 126.271 132.38C136.79 106.994 152.21 83.9272 171.65 64.4977C191.09 45.0683 214.168 29.6566 239.568 19.1428C264.968 8.62909 292.192 3.2193 319.684 3.22241C375.202 3.22241 428.445 25.2632 467.704 64.4963C506.962 103.729 529.02 156.942 529.026 212.428Z" stroke="url(#paint0_linear_1117_13606)" stroke-width="4"/>
<path d="M640.8 402.858C640.8 458.349 618.744 511.567 579.485 550.806C540.226 590.044 486.979 612.088 431.458 612.088C403.965 612.091 376.742 606.681 351.342 596.168C325.942 585.654 302.863 570.242 283.423 550.813C263.983 531.383 248.563 508.317 238.044 482.93C227.525 457.544 222.112 430.336 222.115 402.858V402.858C222.112 375.381 227.525 348.172 238.044 322.786C248.563 297.4 263.983 274.333 283.423 254.904C302.863 235.474 325.942 220.063 351.342 209.549C376.742 199.035 403.965 193.625 431.457 193.628C486.979 193.628 540.226 215.672 579.485 254.911C618.744 294.149 640.8 347.367 640.8 402.858Z" stroke="url(#paint1_linear_1117_13606)" stroke-width="4"/>
<path d="M421.883 406.572C421.877 462.059 399.819 515.271 360.56 554.504C321.302 593.737 268.058 615.778 212.541 615.778C157.02 615.778 103.773 593.734 64.5137 554.496C25.2546 515.257 3.19922 462.039 3.19922 406.548C3.20552 351.062 25.2637 297.85 64.5221 258.616C103.781 219.383 157.024 197.343 212.541 197.343C268.063 197.343 321.31 219.387 360.569 258.625C399.828 297.863 421.883 351.081 421.883 406.572Z" fill="#C6C6C6" fill-opacity="0.1" stroke="url(#paint2_linear_1117_13606)" stroke-width="4"/>
<path d="M297.331 77.176C297.603 77.176 297.835 77.264 298.027 77.44C298.219 77.6 298.315 77.816 298.315 78.088C298.315 78.216 298.283 78.36 298.219 78.52L291.955 93.376C291.859 93.584 291.723 93.744 291.547 93.856C291.387 93.952 291.211 94 291.019 94C290.843 93.984 290.675 93.928 290.515 93.832C290.355 93.72 290.235 93.568 290.155 93.376L283.915 78.544C283.883 78.48 283.859 78.416 283.843 78.352C283.827 78.272 283.819 78.192 283.819 78.112C283.819 77.808 283.923 77.576 284.131 77.416C284.355 77.24 284.571 77.152 284.779 77.152C285.211 77.152 285.523 77.376 285.715 77.824L291.451 91.504H290.899L296.443 77.776C296.635 77.376 296.931 77.176 297.331 77.176ZM306.182 79.696L300.542 93.424C300.478 93.616 300.366 93.768 300.206 93.88C300.046 93.992 299.878 94.048 299.702 94.048C299.398 94.048 299.174 93.968 299.03 93.808C298.886 93.648 298.814 93.456 298.814 93.232C298.798 93.12 298.814 93 298.862 92.872L305.078 77.752C305.158 77.528 305.278 77.368 305.438 77.272C305.614 77.16 305.806 77.112 306.014 77.128C306.222 77.128 306.406 77.184 306.566 77.296C306.742 77.408 306.862 77.56 306.926 77.752L313.118 92.728C313.166 92.856 313.19 92.984 313.19 93.112C313.19 93.4 313.094 93.632 312.902 93.808C312.71 93.968 312.494 94.048 312.254 94.048C312.062 94.048 311.886 93.992 311.726 93.88C311.566 93.768 311.446 93.608 311.366 93.4L305.654 79.672L306.182 79.696ZM301.742 89.512L302.558 87.64H309.686L310.046 89.512H301.742ZM325.083 92.104C325.355 92.104 325.587 92.2 325.779 92.392C325.971 92.568 326.067 92.792 326.067 93.064C326.067 93.336 325.971 93.56 325.779 93.736C325.587 93.912 325.355 94 325.083 94H316.779C316.507 94 316.275 93.904 316.083 93.712C315.907 93.52 315.819 93.288 315.819 93.016V78.16C315.819 77.888 315.915 77.664 316.107 77.488C316.299 77.296 316.539 77.2 316.827 77.2C317.099 77.2 317.331 77.296 317.523 77.488C317.715 77.664 317.811 77.888 317.811 78.16V92.536L317.331 92.104H325.083ZM340.262 77.176C340.534 77.176 340.758 77.272 340.934 77.464C341.11 77.656 341.198 77.888 341.198 78.16V87.688C341.198 88.92 340.91 90.024 340.334 91C339.774 91.976 339.014 92.752 338.054 93.328C337.094 93.888 336.006 94.168 334.79 94.168C333.558 94.168 332.454 93.888 331.478 93.328C330.518 92.752 329.758 91.976 329.198 91C328.638 90.024 328.358 88.92 328.358 87.688V78.16C328.358 77.888 328.446 77.656 328.622 77.464C328.814 77.272 329.062 77.176 329.366 77.176C329.622 77.176 329.846 77.272 330.038 77.464C330.246 77.656 330.35 77.888 330.35 78.16V87.688C330.35 88.568 330.55 89.352 330.95 90.04C331.35 90.728 331.886 91.272 332.558 91.672C333.246 92.056 333.99 92.248 334.79 92.248C335.606 92.248 336.358 92.056 337.046 91.672C337.734 91.272 338.286 90.728 338.702 90.04C339.134 89.352 339.35 88.568 339.35 87.688V78.16C339.35 77.888 339.43 77.656 339.59 77.464C339.75 77.272 339.974 77.176 340.262 77.176ZM346.357 77.2H354.901C355.173 77.2 355.405 77.288 355.597 77.464C355.789 77.64 355.885 77.864 355.885 78.136C355.885 78.408 355.789 78.632 355.597 78.808C355.405 78.968 355.173 79.048 354.901 79.048H347.173L347.389 78.64V84.712L347.149 84.448H353.821C354.093 84.448 354.325 84.536 354.517 84.712C354.709 84.888 354.805 85.112 354.805 85.384C354.805 85.656 354.709 85.88 354.517 86.056C354.325 86.216 354.093 86.296 353.821 86.296H347.221L347.389 86.08V92.296L347.245 92.128H354.901C355.173 92.128 355.405 92.224 355.597 92.416C355.789 92.608 355.885 92.824 355.885 93.064C355.885 93.336 355.789 93.56 355.597 93.736C355.405 93.912 355.173 94 354.901 94H346.357C346.085 94 345.853 93.904 345.661 93.712C345.485 93.52 345.397 93.288 345.397 93.016V78.16C345.397 77.888 345.485 77.664 345.661 77.488C345.853 77.296 346.085 77.2 346.357 77.2Z" fill="white"/>
<path d="M500.8 447.176C501.072 447.176 501.304 447.264 501.496 447.44C501.688 447.6 501.784 447.816 501.784 448.088C501.784 448.216 501.752 448.36 501.688 448.52L495.424 463.376C495.328 463.584 495.192 463.744 495.016 463.856C494.856 463.952 494.68 464 494.488 464C494.312 463.984 494.144 463.928 493.984 463.832C493.824 463.72 493.704 463.568 493.624 463.376L487.384 448.544C487.352 448.48 487.328 448.416 487.312 448.352C487.296 448.272 487.288 448.192 487.288 448.112C487.288 447.808 487.392 447.576 487.6 447.416C487.824 447.24 488.04 447.152 488.248 447.152C488.68 447.152 488.992 447.376 489.184 447.824L494.92 461.504H494.368L499.912 447.776C500.104 447.376 500.4 447.176 500.8 447.176ZM506.655 463.016C506.655 463.288 506.551 463.52 506.343 463.712C506.151 463.904 505.919 464 505.647 464C505.343 464 505.103 463.904 504.927 463.712C504.751 463.52 504.663 463.288 504.663 463.016V448.184C504.663 447.896 504.759 447.664 504.951 447.488C505.143 447.296 505.383 447.2 505.671 447.2C505.943 447.2 506.175 447.296 506.367 447.488C506.559 447.664 506.655 447.896 506.655 448.184V463.016ZM515.77 464.24C514.586 464.24 513.546 464.064 512.65 463.712C511.754 463.36 510.89 462.8 510.058 462.032C509.946 461.92 509.85 461.8 509.77 461.672C509.706 461.528 509.674 461.376 509.674 461.216C509.674 460.96 509.762 460.736 509.938 460.544C510.13 460.336 510.362 460.232 510.634 460.232C510.858 460.232 511.058 460.32 511.234 460.496C511.858 461.104 512.53 461.568 513.25 461.888C513.986 462.208 514.81 462.368 515.722 462.368C516.426 462.368 517.058 462.256 517.618 462.032C518.194 461.808 518.65 461.496 518.986 461.096C519.322 460.696 519.49 460.232 519.49 459.704C519.474 459.064 519.282 458.536 518.914 458.12C518.562 457.704 518.066 457.36 517.426 457.088C516.802 456.8 516.074 456.56 515.242 456.368C514.506 456.192 513.826 455.976 513.202 455.72C512.594 455.464 512.066 455.152 511.618 454.784C511.17 454.4 510.818 453.944 510.562 453.416C510.322 452.872 510.202 452.24 510.202 451.52C510.202 450.608 510.442 449.808 510.922 449.12C511.402 448.432 512.066 447.904 512.914 447.536C513.762 447.152 514.738 446.96 515.842 446.96C516.818 446.96 517.738 447.12 518.602 447.44C519.482 447.76 520.186 448.2 520.714 448.76C521.034 449.064 521.194 449.36 521.194 449.648C521.194 449.888 521.09 450.112 520.882 450.32C520.69 450.512 520.466 450.608 520.21 450.608C520.034 450.608 519.874 450.544 519.73 450.416C519.458 450.112 519.114 449.84 518.698 449.6C518.282 449.36 517.826 449.168 517.33 449.024C516.834 448.88 516.338 448.808 515.842 448.808C515.106 448.808 514.458 448.92 513.898 449.144C513.338 449.352 512.898 449.656 512.578 450.056C512.274 450.44 512.122 450.904 512.122 451.448C512.122 452.056 512.298 452.56 512.65 452.96C513.002 453.344 513.474 453.664 514.066 453.92C514.658 454.16 515.314 454.376 516.034 454.568C516.818 454.76 517.538 454.984 518.194 455.24C518.866 455.48 519.442 455.784 519.922 456.152C520.402 456.52 520.77 456.992 521.026 457.568C521.298 458.128 521.434 458.824 521.434 459.656C521.434 460.536 521.186 461.32 520.69 462.008C520.194 462.696 519.514 463.24 518.65 463.64C517.802 464.024 516.842 464.224 515.77 464.24ZM526.647 463.016C526.647 463.288 526.543 463.52 526.335 463.712C526.143 463.904 525.911 464 525.639 464C525.335 464 525.095 463.904 524.919 463.712C524.743 463.52 524.655 463.288 524.655 463.016V448.184C524.655 447.896 524.751 447.664 524.943 447.488C525.135 447.296 525.375 447.2 525.663 447.2C525.935 447.2 526.167 447.296 526.359 447.488C526.551 447.664 526.647 447.896 526.647 448.184V463.016ZM538.09 447.2C539.498 447.2 540.578 447.568 541.33 448.304C542.098 449.024 542.482 450.048 542.482 451.376C542.482 452.08 542.322 452.728 542.002 453.32C541.682 453.912 541.21 454.384 540.586 454.736C539.978 455.088 539.226 455.28 538.33 455.312L538.282 454.64C538.842 454.64 539.418 454.72 540.01 454.88C540.602 455.04 541.146 455.296 541.642 455.648C542.154 456 542.562 456.464 542.866 457.04C543.186 457.616 543.346 458.328 543.346 459.176C543.346 460.088 543.194 460.856 542.89 461.48C542.586 462.088 542.178 462.584 541.666 462.968C541.17 463.336 540.61 463.6 539.986 463.76C539.378 463.92 538.762 464 538.138 464H531.826C531.554 464 531.322 463.904 531.13 463.712C530.954 463.52 530.866 463.288 530.866 463.016V448.16C530.866 447.888 530.954 447.664 531.13 447.488C531.322 447.296 531.554 447.2 531.826 447.2H538.09ZM537.802 449.096H532.642L532.93 448.664V454.64L532.666 454.328H537.85C538.554 454.328 539.154 454.104 539.65 453.656C540.162 453.192 540.418 452.512 540.418 451.616C540.418 450.816 540.186 450.2 539.722 449.768C539.258 449.32 538.618 449.096 537.802 449.096ZM537.994 456.248H532.762L532.93 456.08V462.344L532.738 462.128H538.066C539.01 462.128 539.778 461.888 540.37 461.408C540.978 460.928 541.282 460.184 541.282 459.176C541.282 458.392 541.122 457.792 540.802 457.376C540.482 456.944 540.066 456.648 539.554 456.488C539.058 456.328 538.538 456.248 537.994 456.248ZM548.538 463.016C548.538 463.288 548.434 463.52 548.226 463.712C548.034 463.904 547.802 464 547.53 464C547.226 464 546.986 463.904 546.81 463.712C546.634 463.52 546.546 463.288 546.546 463.016V448.184C546.546 447.896 546.642 447.664 546.834 447.488C547.026 447.296 547.266 447.2 547.554 447.2C547.826 447.2 548.058 447.296 548.25 447.488C548.442 447.664 548.538 447.896 548.538 448.184V463.016ZM562.021 462.104C562.293 462.104 562.525 462.2 562.717 462.392C562.909 462.568 563.005 462.792 563.005 463.064C563.005 463.336 562.909 463.56 562.717 463.736C562.525 463.912 562.293 464 562.021 464H553.717C553.445 464 553.213 463.904 553.021 463.712C552.845 463.52 552.757 463.288 552.757 463.016V448.16C552.757 447.888 552.853 447.664 553.045 447.488C553.237 447.296 553.477 447.2 553.765 447.2C554.037 447.2 554.269 447.296 554.461 447.488C554.653 447.664 554.749 447.888 554.749 448.16V462.536L554.269 462.104H562.021ZM567.756 463.016C567.756 463.288 567.652 463.52 567.444 463.712C567.252 463.904 567.02 464 566.748 464C566.444 464 566.204 463.904 566.028 463.712C565.852 463.52 565.764 463.288 565.764 463.016V448.184C565.764 447.896 565.86 447.664 566.052 447.488C566.244 447.296 566.484 447.2 566.772 447.2C567.044 447.2 567.276 447.296 567.468 447.488C567.66 447.664 567.756 447.896 567.756 448.184V463.016ZM577.183 464C576.895 464 576.655 463.904 576.463 463.712C576.271 463.52 576.175 463.288 576.175 463.016V448.184H578.215V463.016C578.215 463.288 578.119 463.52 577.927 463.712C577.735 463.904 577.487 464 577.183 464ZM571.615 449.024C571.343 449.024 571.111 448.944 570.919 448.784C570.743 448.608 570.655 448.384 570.655 448.112C570.655 447.84 570.743 447.624 570.919 447.464C571.111 447.288 571.343 447.2 571.615 447.2H582.775C583.047 447.2 583.279 447.288 583.471 447.464C583.663 447.624 583.759 447.84 583.759 448.112C583.759 448.4 583.663 448.624 583.471 448.784C583.279 448.944 583.047 449.024 582.775 449.024H571.615ZM597.106 447.104C597.378 447.104 597.602 447.208 597.778 447.416C597.97 447.608 598.066 447.832 598.066 448.088C598.066 448.184 598.05 448.288 598.018 448.4C598.002 448.496 597.962 448.592 597.898 448.688L592.33 456.44L592.642 455.264V463.016C592.642 463.288 592.546 463.52 592.354 463.712C592.178 463.904 591.962 464 591.706 464C591.418 464 591.178 463.904 590.986 463.712C590.81 463.52 590.722 463.288 590.722 463.016V455.456L590.89 456.08L585.49 448.784C585.394 448.656 585.322 448.536 585.274 448.424C585.242 448.296 585.226 448.176 585.226 448.064C585.226 447.792 585.338 447.568 585.562 447.392C585.786 447.2 586.01 447.104 586.234 447.104C586.554 447.104 586.818 447.256 587.026 447.56L591.994 454.376L591.538 454.304L596.314 447.584C596.522 447.264 596.786 447.104 597.106 447.104Z" fill="white"/>
<path d="M53.4268 448.304C53.6988 448.448 53.8508 448.664 53.8828 448.952C53.9308 449.24 53.8588 449.504 53.6668 449.744C53.5228 449.952 53.3388 450.064 53.1148 450.08C52.8908 450.096 52.6667 450.048 52.4427 449.936C51.9148 449.616 51.3468 449.368 50.7388 449.192C50.1308 449 49.4908 448.904 48.8188 448.904C47.8748 448.904 47.0108 449.072 46.2268 449.408C45.4428 449.728 44.7628 450.184 44.1868 450.776C43.6108 451.368 43.1628 452.072 42.8428 452.888C42.5228 453.704 42.3628 454.608 42.3628 455.6C42.3628 456.656 42.5308 457.6 42.8668 458.432C43.2028 459.264 43.6588 459.976 44.2348 460.568C44.8268 461.144 45.5068 461.584 46.2747 461.888C47.0588 462.192 47.9068 462.344 48.8188 462.344C49.4748 462.344 50.1068 462.256 50.7148 462.08C51.3228 461.904 51.8988 461.648 52.4427 461.312C52.6667 461.2 52.8908 461.16 53.1148 461.192C53.3388 461.224 53.5308 461.336 53.6908 461.528C53.8828 461.784 53.9548 462.056 53.9068 462.344C53.8588 462.616 53.7068 462.816 53.4508 462.944C53.0508 463.184 52.5948 463.408 52.0828 463.616C51.5708 463.808 51.0348 463.96 50.4748 464.072C49.9308 464.184 49.3788 464.24 48.8188 464.24C47.6668 464.24 46.5788 464.04 45.5547 463.64C44.5308 463.24 43.6268 462.664 42.8428 461.912C42.0588 461.16 41.4348 460.256 40.9708 459.2C40.5228 458.128 40.2988 456.928 40.2988 455.6C40.2988 454.352 40.5148 453.208 40.9468 452.168C41.3788 451.128 41.9788 450.224 42.7467 449.456C43.5308 448.688 44.4348 448.088 45.4588 447.656C46.4988 447.224 47.6188 447.008 48.8188 447.008C49.6508 447.008 50.4588 447.12 51.2428 447.344C52.0428 447.568 52.7708 447.888 53.4268 448.304ZM57.9035 464C57.5995 464 57.3355 463.904 57.1115 463.712C56.9035 463.52 56.7995 463.288 56.7995 463.016V448.16C56.7995 447.888 56.8875 447.664 57.0635 447.488C57.2555 447.296 57.4875 447.2 57.7595 447.2H64.3835C65.2795 447.2 66.0875 447.408 66.8075 447.824C67.5275 448.224 68.0955 448.784 68.5115 449.504C68.9435 450.208 69.1595 451.024 69.1595 451.952C69.1595 452.624 69.0315 453.256 68.7755 453.848C68.5195 454.424 68.1675 454.928 67.7195 455.36C67.2715 455.776 66.7595 456.096 66.1835 456.32L65.6555 455.936C66.1995 456.064 66.6875 456.296 67.1195 456.632C67.5515 456.952 67.9035 457.368 68.1755 457.88C68.4475 458.376 68.5915 458.96 68.6075 459.632C68.6395 460.224 68.6795 460.696 68.7275 461.048C68.7755 461.4 68.8475 461.68 68.9435 461.888C69.0395 462.08 69.1755 462.232 69.3515 462.344C69.5755 462.488 69.7195 462.68 69.7835 462.92C69.8635 463.16 69.8235 463.392 69.6635 463.616C69.5675 463.76 69.4315 463.864 69.2555 463.928C69.0795 463.976 68.9035 463.992 68.7275 463.976C68.5515 463.96 68.3995 463.912 68.2715 463.832C68.0155 463.688 67.7675 463.48 67.5275 463.208C67.2875 462.92 67.0875 462.512 66.9275 461.984C66.7675 461.456 66.6875 460.736 66.6875 459.824C66.6875 459.312 66.6075 458.888 66.4475 458.552C66.2875 458.216 66.0715 457.944 65.7995 457.736C65.5275 457.528 65.2235 457.384 64.8875 457.304C64.5515 457.224 64.2075 457.184 63.8555 457.184H58.5035L58.7915 456.752V463.016C58.7915 463.288 58.7115 463.52 58.5515 463.712C58.3915 463.904 58.1755 464 57.9035 464ZM58.5035 455.456H64.3835C64.8475 455.424 65.2795 455.264 65.6795 454.976C66.0955 454.688 66.4315 454.288 66.6875 453.776C66.9595 453.248 67.0955 452.656 67.0955 452C67.0955 451.152 66.8235 450.448 66.2795 449.888C65.7515 449.328 65.0795 449.048 64.2635 449.048H58.5995L58.7915 448.592V455.888L58.5035 455.456ZM73.9783 447.2H82.5223C82.7943 447.2 83.0263 447.288 83.2183 447.464C83.4103 447.64 83.5063 447.864 83.5063 448.136C83.5063 448.408 83.4103 448.632 83.2183 448.808C83.0263 448.968 82.7943 449.048 82.5223 449.048H74.7943L75.0103 448.64V454.712L74.7703 454.448H81.4423C81.7143 454.448 81.9463 454.536 82.1383 454.712C82.3303 454.888 82.4263 455.112 82.4263 455.384C82.4263 455.656 82.3303 455.88 82.1383 456.056C81.9463 456.216 81.7143 456.296 81.4423 456.296H74.8423L75.0103 456.08V462.296L74.8663 462.128H82.5223C82.7943 462.128 83.0263 462.224 83.2183 462.416C83.4103 462.608 83.5063 462.824 83.5063 463.064C83.5063 463.336 83.4103 463.56 83.2183 463.736C83.0263 463.912 82.7943 464 82.5223 464H73.9783C73.7063 464 73.4743 463.904 73.2823 463.712C73.1063 463.52 73.0183 463.288 73.0183 463.016V448.16C73.0183 447.888 73.1063 447.664 73.2823 447.488C73.4743 447.296 73.7063 447.2 73.9783 447.2ZM93.6658 447.2C94.8338 447.2 95.8578 447.424 96.7378 447.872C97.6338 448.304 98.3778 448.912 98.9698 449.696C99.5618 450.48 100.002 451.384 100.29 452.408C100.594 453.416 100.746 454.48 100.746 455.6C100.746 457.136 100.482 458.544 99.9538 459.824C99.4258 461.088 98.6418 462.104 97.6018 462.872C96.5618 463.624 95.2498 464 93.6658 464H87.6658C87.3938 464 87.1618 463.904 86.9698 463.712C86.7938 463.52 86.7058 463.288 86.7058 463.016V448.16C86.7058 447.888 86.7938 447.664 86.9698 447.488C87.1618 447.296 87.3938 447.2 87.6658 447.2H93.6658ZM93.4258 462.128C94.6578 462.128 95.6578 461.832 96.4258 461.24C97.2098 460.648 97.7778 459.856 98.1298 458.864C98.4978 457.872 98.6818 456.784 98.6818 455.6C98.6818 454.736 98.5778 453.912 98.3698 453.128C98.1778 452.328 97.8658 451.624 97.4338 451.016C97.0178 450.408 96.4738 449.928 95.8018 449.576C95.1458 449.224 94.3538 449.048 93.4258 449.048H88.5058L88.6978 448.856V462.368L88.5538 462.128H93.4258ZM105.924 463.016C105.924 463.288 105.82 463.52 105.612 463.712C105.42 463.904 105.188 464 104.916 464C104.612 464 104.372 463.904 104.196 463.712C104.02 463.52 103.932 463.288 103.932 463.016V448.184C103.932 447.896 104.028 447.664 104.22 447.488C104.412 447.296 104.652 447.2 104.94 447.2C105.212 447.2 105.444 447.296 105.636 447.488C105.828 447.664 105.924 447.896 105.924 448.184V463.016ZM117.367 447.2C118.775 447.2 119.855 447.568 120.607 448.304C121.375 449.024 121.759 450.048 121.759 451.376C121.759 452.08 121.599 452.728 121.279 453.32C120.959 453.912 120.487 454.384 119.863 454.736C119.255 455.088 118.503 455.28 117.607 455.312L117.559 454.64C118.119 454.64 118.695 454.72 119.287 454.88C119.879 455.04 120.423 455.296 120.919 455.648C121.431 456 121.839 456.464 122.143 457.04C122.463 457.616 122.623 458.328 122.623 459.176C122.623 460.088 122.471 460.856 122.167 461.48C121.863 462.088 121.455 462.584 120.943 462.968C120.447 463.336 119.887 463.6 119.263 463.76C118.655 463.92 118.039 464 117.415 464H111.103C110.831 464 110.599 463.904 110.407 463.712C110.231 463.52 110.143 463.288 110.143 463.016V448.16C110.143 447.888 110.231 447.664 110.407 447.488C110.599 447.296 110.831 447.2 111.103 447.2H117.367ZM117.079 449.096H111.919L112.207 448.664V454.64L111.943 454.328H117.127C117.831 454.328 118.431 454.104 118.927 453.656C119.439 453.192 119.695 452.512 119.695 451.616C119.695 450.816 119.463 450.2 118.999 449.768C118.535 449.32 117.895 449.096 117.079 449.096ZM117.271 456.248H112.039L112.207 456.08V462.344L112.015 462.128H117.343C118.287 462.128 119.055 461.888 119.647 461.408C120.255 460.928 120.559 460.184 120.559 459.176C120.559 458.392 120.399 457.792 120.079 457.376C119.759 456.944 119.343 456.648 118.831 456.488C118.335 456.328 117.815 456.248 117.271 456.248ZM127.815 463.016C127.815 463.288 127.711 463.52 127.503 463.712C127.311 463.904 127.079 464 126.807 464C126.503 464 126.263 463.904 126.087 463.712C125.911 463.52 125.823 463.288 125.823 463.016V448.184C125.823 447.896 125.919 447.664 126.111 447.488C126.303 447.296 126.543 447.2 126.831 447.2C127.103 447.2 127.335 447.296 127.527 447.488C127.719 447.664 127.815 447.896 127.815 448.184V463.016ZM141.298 462.104C141.57 462.104 141.802 462.2 141.994 462.392C142.186 462.568 142.282 462.792 142.282 463.064C142.282 463.336 142.186 463.56 141.994 463.736C141.802 463.912 141.57 464 141.298 464H132.994C132.722 464 132.49 463.904 132.298 463.712C132.122 463.52 132.034 463.288 132.034 463.016V448.16C132.034 447.888 132.13 447.664 132.322 447.488C132.514 447.296 132.754 447.2 133.042 447.2C133.314 447.2 133.546 447.296 133.738 447.488C133.93 447.664 134.026 447.888 134.026 448.16V462.536L133.546 462.104H141.298ZM147.034 463.016C147.034 463.288 146.93 463.52 146.722 463.712C146.53 463.904 146.298 464 146.026 464C145.722 464 145.482 463.904 145.306 463.712C145.13 463.52 145.042 463.288 145.042 463.016V448.184C145.042 447.896 145.138 447.664 145.33 447.488C145.522 447.296 145.762 447.2 146.05 447.2C146.322 447.2 146.554 447.296 146.746 447.488C146.938 447.664 147.034 447.896 147.034 448.184V463.016ZM156.461 464C156.173 464 155.933 463.904 155.741 463.712C155.549 463.52 155.453 463.288 155.453 463.016V448.184H157.493V463.016C157.493 463.288 157.397 463.52 157.205 463.712C157.013 463.904 156.765 464 156.461 464ZM150.893 449.024C150.621 449.024 150.389 448.944 150.197 448.784C150.021 448.608 149.933 448.384 149.933 448.112C149.933 447.84 150.021 447.624 150.197 447.464C150.389 447.288 150.621 447.2 150.893 447.2H162.053C162.325 447.2 162.557 447.288 162.749 447.464C162.941 447.624 163.037 447.84 163.037 448.112C163.037 448.4 162.941 448.624 162.749 448.784C162.557 448.944 162.325 449.024 162.053 449.024H150.893ZM176.383 447.104C176.655 447.104 176.879 447.208 177.055 447.416C177.247 447.608 177.343 447.832 177.343 448.088C177.343 448.184 177.327 448.288 177.295 448.4C177.279 448.496 177.239 448.592 177.175 448.688L171.607 456.44L171.919 455.264V463.016C171.919 463.288 171.823 463.52 171.631 463.712C171.455 463.904 171.239 464 170.983 464C170.695 464 170.455 463.904 170.263 463.712C170.087 463.52 169.999 463.288 169.999 463.016V455.456L170.167 456.08L164.767 448.784C164.671 448.656 164.599 448.536 164.551 448.424C164.519 448.296 164.503 448.176 164.503 448.064C164.503 447.792 164.615 447.568 164.839 447.392C165.063 447.2 165.287 447.104 165.511 447.104C165.831 447.104 166.095 447.256 166.303 447.56L171.271 454.376L170.815 454.304L175.591 447.584C175.799 447.264 176.063 447.104 176.383 447.104Z" fill="white"/>
<defs>
<linearGradient id="paint0_linear_1117_13606" x1="87.5855" y1="212.452" x2="531.026" y2="212.452" gradientUnits="userSpaceOnUse">
<stop stop-color="#26627E"/>
<stop offset="1" stop-color="#00B198"/>
</linearGradient>
<linearGradient id="paint1_linear_1117_13606" x1="199.359" y1="402.858" x2="642.8" y2="402.858" gradientUnits="userSpaceOnUse">
<stop stop-color="#26627E"/>
<stop offset="1" stop-color="#00B198"/>
</linearGradient>
<linearGradient id="paint2_linear_1117_13606" x1="-19.5576" y1="406.56" x2="423.883" y2="406.56" gradientUnits="userSpaceOnUse">
<stop stop-color="#26627E"/>
<stop offset="1" stop-color="#00B198"/>
</linearGradient>
</defs>
</svg>
