<svg width="65" height="65" viewBox="0 0 65 65" fill="none" xmlns="http://www.w3.org/2000/svg">
<path d="M32.5047 12.3515C27.1619 12.3515 22.0374 14.4739 18.26 18.2521C14.4817 22.0299 12.3594 27.1544 12.3594 32.4968C12.3036 35.7148 13.0784 38.8926 14.6092 41.7236L12.5945 47.2369C12.2427 48.2028 12.2741 49.2666 12.6812 50.2105C13.0882 51.1543 13.841 51.907 14.7848 52.3141C15.7287 52.7212 16.7925 52.7521 17.7584 52.4008L23.2717 50.3861C26.1042 51.9202 29.2843 52.6972 32.5051 52.6424C36.5119 52.6462 40.4274 51.4489 43.7462 49.2042L41.235 46.0279C38.6358 47.7151 35.6037 48.6132 32.5051 48.6132C29.3785 48.7073 26.3084 47.7625 23.7752 45.9273L16.3887 48.6132L19.0745 41.2262V41.2266C17.2393 38.6935 16.2944 35.6234 16.3887 32.4967C16.3887 26.7389 19.4601 21.4182 24.4468 18.5399C29.4331 15.661 35.5769 15.661 40.5634 18.5399C45.5502 21.4188 48.6215 26.7395 48.6215 32.4967V35.1826C48.6215 36.3822 47.9817 37.4909 46.9427 38.0905C45.9042 38.6906 44.6241 38.6906 43.5851 38.0905C42.5466 37.4909 41.9063 36.3822 41.9063 35.1826V32.4967C41.9082 29.5799 40.5553 26.8271 38.2457 25.0461C35.9354 23.2651 32.9291 22.6571 30.1089 23.4005C27.2881 24.1443 24.9722 26.1553 23.8406 28.8435C22.7089 31.5323 22.8887 34.5938 24.3286 37.1307C25.7681 39.6676 28.3036 41.3929 31.1918 41.8003C34.0801 42.2078 36.9942 41.2518 39.0795 39.2118C40.2468 40.9993 42.1307 42.1947 44.2452 42.4889C46.3601 42.7835 48.4989 42.1488 50.1102 40.7477C51.7216 39.3471 52.6481 37.3175 52.6509 35.1825V31.8249C52.4767 26.5992 50.2775 21.6461 46.5179 18.0119C42.7588 14.3779 37.7337 12.3478 32.5047 12.3506L32.5047 12.3515ZM32.5047 37.8693C31.0797 37.8693 29.7134 37.303 28.7058 36.2959C27.6987 35.2884 27.1324 33.922 27.1324 32.497C27.1324 31.0721 27.6987 29.7058 28.7058 28.6981C29.7133 27.691 31.0797 27.1247 32.5047 27.1247C33.9296 27.1247 35.2959 27.6911 36.3036 28.6981C37.3107 29.7057 37.877 31.0721 37.877 32.497C37.877 33.922 37.3107 35.2883 36.3036 36.2959C35.296 37.303 33.9296 37.8693 32.5047 37.8693Z" fill="#00B198"/>
<path d="M0 35.0355V29.9645C0.115248 29.091 0.212057 28.2139 0.351507 27.3426C2.49743 13.8724 12.9608 3.08174 26.3227 0.534752C27.5305 0.304255 28.7544 0.205142 29.9645 0H35.0355C35.909 0.115248 36.7861 0.214362 37.6562 0.353812C51.1552 2.51011 61.8745 12.9228 64.4722 26.3803C64.7027 27.5685 64.7925 28.774 65 29.9645V35.0355C64.8986 35.7754 64.8006 36.5164 64.6957 37.2563C62.8103 50.602 52.4379 61.6244 39.2409 64.3512C37.8487 64.6393 36.4369 64.781 35.0355 65H29.9645C29.091 64.8848 28.2139 64.7856 27.3438 64.6473C14.0603 62.5291 3.37447 52.3377 0.63617 39.1844C0.345745 37.8118 0.210904 36.4184 0 35.0355ZM32.5 1.72872C15.6219 1.63076 1.72872 15.5124 1.71259 32.4643C1.69415 49.4473 15.5919 63.2816 32.4839 63.2909C49.4311 63.3001 63.2909 49.4369 63.2955 32.5069C63.3001 15.577 49.4323 1.625 32.5 1.72872Z" fill="#00B198"/>
</svg>
