<svg width="50" height="50" viewBox="0 0 50 50" fill="none" xmlns="http://www.w3.org/2000/svg">
<path d="M1.5 25C1.5 12.0213 12.0213 1.5 25 1.5V0.5C11.469 0.5 0.5 11.469 0.5 25H1.5ZM25 1.5C37.9787 1.5 48.5 12.0213 48.5 25H49.5C49.5 11.469 38.531 0.5 25 0.5V1.5ZM48.5 25C48.5 37.9787 37.9787 48.5 25 48.5V49.5C38.531 49.5 49.5 38.531 49.5 25H48.5ZM25 48.5C12.0213 48.5 1.5 37.9787 1.5 25H0.5C0.5 38.531 11.469 49.5 25 49.5V48.5Z" fill="#00A993"/>
<path d="M27.1016 38.1115V25.0542H30.7059L31.1836 20.5546H27.1016L27.1077 18.3025C27.1077 17.1289 27.2192 16.5001 28.9048 16.5001H31.1581V12H27.5532C23.2231 12 21.6991 14.1828 21.6991 17.8536V20.5551H19V25.0547H21.6991V38.1115H27.1016Z" fill="#00A993"/>
</svg>
