<svg width="32" height="32" viewBox="0 0 32 32" fill="none" xmlns="http://www.w3.org/2000/svg">
<path d="M1 15.9691C1 7.70188 7.70188 1 15.9691 1C24.2363 1 30.9381 7.70188 30.9381 15.9691C30.9381 24.2363 24.2363 30.9381 15.9691 30.9381C7.70188 30.9381 1 24.2363 1 15.9691Z" fill="#00A993"/>
<path d="M1.5 15.9691C1.5 7.97802 7.97802 1.5 15.9691 1.5V0.5C7.42574 0.5 0.5 7.42574 0.5 15.9691H1.5ZM15.9691 1.5C23.9601 1.5 30.4381 7.97802 30.4381 15.9691H31.4381C31.4381 7.42574 24.5124 0.5 15.9691 0.5V1.5ZM30.4381 15.9691C30.4381 23.9601 23.9601 30.4381 15.9691 30.4381V31.4381C24.5124 31.4381 31.4381 24.5124 31.4381 15.9691H30.4381ZM15.9691 30.4381C7.97802 30.4381 1.5 23.9601 1.5 15.9691H0.5C0.5 24.5124 7.42574 31.4381 15.9691 31.4381V30.4381Z" fill="#00A993"/>
<path d="M17.2798 24.1469V16.0029H19.5279L19.8259 13.1964H17.2798L17.2837 11.7918C17.2837 11.0598 17.3532 10.6676 18.4045 10.6676H19.8099V7.86084H17.5615C14.8608 7.86084 13.9102 9.22227 13.9102 11.5118V13.1968H12.2268V16.0032H13.9102V24.1469H17.2798Z" fill="white"/>
</svg>
