<svg width="100" height="100" viewBox="0 0 100 100" fill="none" xmlns="http://www.w3.org/2000/svg">
<path d="M0 53.9007V46.0993C0.177305 44.7553 0.326241 43.406 0.54078 42.0656C3.8422 21.3422 19.9397 4.74114 40.4965 0.822695C42.3546 0.468085 44.2376 0.315603 46.0993 0H53.9007C55.2447 0.177305 56.594 0.329787 57.9326 0.544326C78.7004 3.8617 95.1915 19.8812 99.1879 40.5851C99.5425 42.4131 99.6809 44.2677 100 46.0993V53.9007C99.844 55.039 99.6933 56.1791 99.5319 57.3174C96.6312 77.8493 80.6738 94.8067 60.3706 99.0018C58.2287 99.445 56.0567 99.6631 53.9007 100H46.0993C44.7553 99.8227 43.406 99.6702 42.0674 99.4575C21.6312 96.1986 5.19149 80.5195 0.978723 60.2837C0.531915 58.172 0.324468 56.0284 0 53.9007ZM50 2.65957C24.0337 2.50887 2.65957 23.8652 2.63475 49.945C2.60638 76.0727 23.9876 97.3564 49.9752 97.3706C76.0479 97.3848 97.3706 76.0567 97.3777 50.0106C97.3848 23.9645 76.0496 2.5 50 2.65957Z" fill="#ECECEC"/>
<path d="M47.1634 49.8228C51.5854 49.798 55.1422 49.0852 58.4383 47.2944C59.5032 46.7181 60.4825 45.9961 61.3478 45.1491C64.8461 41.72 64.9773 37.61 61.6368 34.0161C61.0624 33.3991 60.9276 32.7749 60.995 32.0072C61.073 31.0976 61.7184 30.7271 62.44 30.3884C63.128 30.0639 63.5411 30.4434 63.9826 30.8742C68.9134 35.7005 70.94 41.571 70.2769 48.4008C70.1831 49.076 70.3505 49.7616 70.745 50.3175C71.8478 51.8884 72.9223 53.4806 73.9826 55.0817C75.4329 57.2678 74.5925 59.1136 72.0021 59.47C70.1634 59.7217 70.1599 59.7235 70.8709 61.4664C71.2858 62.4806 71.2893 63.4256 70.4329 64.2342C69.901 64.7448 69.7787 65.3388 70.0996 66.0072C70.6617 67.1792 70.4347 68.1491 69.4649 69.0214C68.6386 69.7661 68.3 70.7306 68.2663 71.8707C68.1936 74.3246 67.0535 75.3494 64.5836 75.4168C62.4684 75.4753 60.417 74.9842 58.3319 74.7944C56.8602 74.6597 56.4294 74.9363 56.0464 76.3601C55.7379 77.5037 55.5836 78.665 55.3975 79.8405C55.0127 82.2661 53.5996 83.243 51.1794 82.7164C47.0535 81.8157 42.9365 80.8742 38.8141 79.9505C36.9997 79.5439 35.1841 79.1402 33.3673 78.7395C31.417 78.3104 30.4542 77.1278 30.6227 75.1296C30.8602 72.3335 31.0978 69.5427 31.0145 66.7306C30.9378 63.377 29.9999 60.0995 28.2911 57.2129C23.2273 48.6047 24.6457 37.6916 31.7255 30.8955C32.1333 30.5019 32.5074 30.0693 33.1776 30.3884C33.8868 30.7288 34.5411 31.0976 34.6067 32.0143C34.6634 32.8494 34.4879 33.5161 33.8656 34.1668C30.7716 37.4026 30.7929 41.5586 33.8904 44.7785C36.479 47.4664 39.7805 48.7412 43.3602 49.4186C44.8443 49.6987 46.3425 49.8494 47.1634 49.8228Z" fill="#ECECEC"/>
<path d="M31.7383 24.2342C31.7383 23.1704 31.7383 22.1066 31.7383 21.0428C31.7383 20.4559 31.9971 20.1828 32.5964 20.1846C34.7525 20.1846 36.9103 20.1846 39.0663 20.1846C39.2666 20.1846 39.5255 20.1279 39.6301 20.3406C39.7684 20.6172 39.4847 20.7591 39.3323 20.9169C38.7791 21.4896 38.2259 22.0694 37.639 22.6066C37.2117 22.9984 37.2241 23.2963 37.639 23.6988C38.951 24.9772 40.256 26.2644 41.5237 27.5853C44.701 30.8974 44.8748 35.6438 42.0096 39.2094C41.5042 39.8389 41.1106 39.9665 40.5574 39.2963C40.1266 38.775 39.4404 38.3832 39.2081 37.7981C38.9333 37.1048 39.795 36.6757 40.0947 36.0906C41.084 34.1403 40.8748 31.8353 39.373 30.2396C38.045 28.8211 36.6213 27.4754 35.2613 26.0782C34.8553 25.6598 34.5521 25.6775 34.1638 26.0959C33.6319 26.6811 33.0468 27.2342 32.4723 27.7892C32.3163 27.9381 32.1798 28.2307 31.8979 28.0818C31.6922 27.9718 31.7454 27.7147 31.7436 27.5144C31.7436 26.4222 31.7436 25.3282 31.7436 24.2342H31.7383Z" fill="#ECECEC"/>
<path d="M60.4761 20.1915C61.5399 20.1915 62.6038 20.2021 63.6676 20.1915C64.2669 20.1915 64.5328 20.4628 64.5311 21.0461C64.5311 23.2305 64.5311 25.4173 64.5311 27.6064C64.5311 27.7837 64.5506 27.9912 64.3804 28.0887C64.1339 28.2305 64.0045 27.9894 63.8697 27.8582C63.2545 27.2624 62.641 26.6631 62.0523 26.0443C61.6977 25.6649 61.3981 25.6365 61.0169 26.0266C59.7172 27.3564 58.3573 28.6277 57.0949 29.9929C55.1197 32.1348 55.0204 34.6614 56.8059 36.9912C57.2314 37.5461 57.2066 37.9043 56.7013 38.3192C56.4743 38.5071 56.2811 38.7341 56.0736 38.9415C54.9087 40.1064 54.8804 40.1046 53.9335 38.789C51.3945 35.2589 51.7172 30.7234 54.7491 27.6011C56.024 26.289 57.3236 24.9982 58.6339 23.7199C59.0364 23.3263 59.086 23.0319 58.6463 22.633C58.0577 22.1011 57.508 21.516 56.9548 20.9433C56.8006 20.7855 56.5151 20.6401 56.6481 20.3706C56.7811 20.1011 57.0665 20.2039 57.2917 20.1933C58.3555 20.1826 59.4194 20.1933 60.4832 20.1933L60.4761 20.1915Z" fill="#ECECEC"/>
<path d="M46.453 31.3705C46.453 28.9184 46.4335 26.4663 46.4636 24.0141C46.4743 23.2145 46.1888 22.8687 45.3767 22.9255C44.7881 22.9663 44.1959 22.9397 43.6037 22.9255C43.3785 22.9255 43.0842 23.0053 42.9619 22.7482C42.8395 22.4911 43.0948 22.3173 43.2473 22.156C44.0399 21.3191 44.8431 20.4929 45.6463 19.6737C46.3041 18.9964 46.9778 18.3315 47.6303 17.6471C47.9725 17.2925 48.2597 17.1826 48.6551 17.6028C50.0913 19.1312 51.5541 20.6347 52.9991 22.156C53.1533 22.3173 53.4175 22.4787 53.3111 22.7411C53.2048 23.0035 52.9033 22.9184 52.6799 22.9184C52.0895 22.9343 51.4955 22.9609 50.9069 22.9184C50.0806 22.8581 49.8306 23.2304 49.8431 24.0177C49.8661 28.3315 49.8537 32.6453 49.8519 36.9609C49.8519 37.1968 49.8519 37.4326 49.8519 37.6702C49.8236 40.2269 50.1533 39.9095 47.4885 39.9574C46.7048 39.9716 46.4512 39.6347 46.4565 38.8936C46.4743 36.3829 46.4565 33.8705 46.4565 31.3581L46.453 31.3705Z" fill="#ECECEC"/>
</svg>
