<svg width="100" height="100" viewBox="0 0 100 100" fill="none" xmlns="http://www.w3.org/2000/svg">
<path d="M0 53.9007V46.0993C0.177305 44.7553 0.326241 43.406 0.54078 42.0656C3.8422 21.3422 19.9397 4.74114 40.4965 0.822695C42.3546 0.468085 44.2376 0.315603 46.0993 0H53.9007C55.2447 0.177305 56.594 0.329787 57.9326 0.544326C78.7004 3.8617 95.1915 19.8812 99.1879 40.5851C99.5425 42.4131 99.6809 44.2677 100 46.0993V53.9007C99.844 55.039 99.6933 56.1791 99.5319 57.3174C96.6312 77.8493 80.6738 94.8067 60.3706 99.0018C58.2287 99.445 56.0567 99.6631 53.9007 100H46.0993C44.7553 99.8227 43.406 99.6702 42.0674 99.4575C21.6312 96.1986 5.19149 80.5195 0.978723 60.2837C0.531915 58.172 0.324468 56.0284 0 53.9007ZM50 2.65957C24.0337 2.50887 2.65957 23.8652 2.63475 49.945C2.60638 76.0727 23.9876 97.3564 49.9752 97.3706C76.0479 97.3848 97.3706 76.0567 97.3777 50.0106C97.3848 23.9645 76.0496 2.5 50 2.65957Z" fill="#00B198"/>
<path d="M78.3967 25.1836C78.3465 25.6998 78.2973 26.2161 78.2459 26.7323C78.0005 29.1783 77.4329 31.5811 76.5578 33.8782C74.8871 38.2915 72.2625 42.0641 68.8367 45.2899C67.7765 46.2877 66.6532 47.2127 65.4334 48.0145C65.1906 48.1735 65.0658 48.3371 65.0322 48.6464C64.8449 50.3576 64.3021 51.9699 63.5743 53.5215C62.1041 56.6554 60.0802 59.4112 57.7817 61.9785C57.6025 62.1791 57.414 62.3722 57.2273 62.5665C57.2105 62.5832 57.1764 62.5838 57.1365 62.596C57.0787 62.393 57.1614 62.2104 57.1909 62.0277C57.4533 60.4188 57.4522 58.8088 57.2487 57.1948C57.1058 56.077 56.8634 54.9742 56.5243 53.8996C56.4509 53.6683 56.3856 53.5909 56.1312 53.7262C54.5796 54.5436 52.8938 54.9471 51.1861 55.261C50.608 55.3674 50.0299 55.4564 49.4449 55.5188C49.2952 55.5345 49.1859 55.5084 49.0819 55.4032C48.7304 55.0465 48.3771 54.691 48.0187 54.3413C47.891 54.2164 47.884 54.1343 48.0436 54.0297C50.2589 52.5804 52.2556 50.8501 54.2686 49.1447C55.3404 48.2354 56.4191 47.3306 57.3406 46.2594C58.0095 45.4813 58.6124 44.6604 58.9841 43.6926C59.2269 43.0614 59.335 42.4162 59.1905 41.7404C59.1258 41.4375 58.9593 41.2808 58.6569 41.2201C57.8407 41.0496 57.0885 41.2554 56.3624 41.5959C55.1305 42.174 54.1119 43.0411 53.1893 44.0239C51.3902 45.9316 49.7322 47.9608 48.102 50.0136C47.508 50.7477 46.9546 51.5137 46.444 52.3081C46.3145 52.515 46.2197 52.5561 46.0393 52.3613C45.7379 52.0371 45.4244 51.724 45.0987 51.4218C44.9294 51.2652 44.8872 51.0918 44.9155 50.8779C45.1039 49.4644 45.3525 48.0631 45.7578 46.6936C46.0069 45.8513 46.3006 45.0263 46.718 44.2517C46.8163 44.069 46.7966 43.9892 46.5908 43.921C45.3647 43.5151 44.0975 43.2458 42.8124 43.118C41.8348 43.0192 40.8561 42.9694 39.8721 43.0533C39.2865 43.1024 38.7049 43.1689 38.1263 43.266C38.0251 43.2833 37.9245 43.3279 37.8164 43.2781C37.8274 43.1625 37.921 43.1169 37.9898 43.0556C40.5057 40.7143 43.2373 38.6724 46.3145 37.1202C47.9129 36.3109 49.5773 35.6686 51.3625 35.4437C51.9683 35.368 52.3186 35.1252 52.6539 34.6373C54.2032 32.3827 56.0879 30.4356 58.1991 28.7031C61.2295 26.2172 64.605 24.3719 68.3609 23.2342C70.1189 22.6968 71.9262 22.336 73.7558 22.1572C74.3188 22.1029 74.8842 22.0578 75.4484 22.004C76.3734 22.004 77.2984 22.0075 78.2233 22C78.3678 22 78.4014 22.033 78.4002 22.1775C78.3933 23.1793 78.3967 24.1812 78.3967 25.1836ZM66.1584 40.2027C66.9281 40.2038 67.6905 40.0531 68.402 39.7593C69.1134 39.4654 69.7599 39.0342 70.3045 38.4902C70.8491 37.9462 71.281 37.3001 71.5757 36.589C71.8703 35.8779 72.0218 35.1157 72.0215 34.3459C72.0215 31.0935 69.3298 28.3851 66.0919 28.3822C62.8539 28.3793 60.2039 31.0351 60.2057 34.2673C60.2074 37.4995 62.9146 40.2055 66.1584 40.2027Z" fill="#00B198"/>
<path d="M73.024 51.1067C72.9316 56.8247 71.0712 61.8778 67.2772 66.1806C64.134 69.7452 60.2365 72.0911 55.6296 73.2531C53.6478 73.754 51.6063 73.9783 49.563 73.9197C47.0363 73.8574 44.5373 73.3773 42.1674 72.4987C41.939 72.4137 41.9153 72.3432 42.098 72.1779C42.7046 71.6271 43.3054 71.0708 43.9005 70.5089C44.0624 70.3557 44.219 70.3759 44.404 70.4303C46.3367 70.9994 48.3439 71.2752 50.3585 71.2483C53.5438 71.2124 56.5742 70.5112 59.3838 69.0139C65.2769 65.8731 68.8334 60.9945 70.0671 54.4313C70.2228 53.5595 70.3142 52.6775 70.3405 51.7923C70.3387 51.7113 70.3594 51.6314 70.4002 51.5614C70.441 51.4914 70.5004 51.4341 70.5717 51.3957C71.2926 50.95 72.0072 50.4933 72.7263 50.0447C72.9668 49.8944 73.0154 49.921 73.0235 50.2135C73.0316 50.506 73.024 50.8084 73.024 51.1067Z" fill="#00B198"/>
<path d="M27.043 50.4426C27.1442 45.0663 29.0189 39.9749 32.8558 35.6392C35.5376 32.6082 38.8102 30.4548 42.6396 29.1523C44.3539 28.5674 46.1338 28.1959 47.939 28.0464C48.8692 27.9655 49.803 27.9348 50.7364 27.9545C51.0671 27.9632 51.0902 28.0054 50.9209 28.2765C50.4815 28.9789 50.0358 29.6772 49.601 30.3819C49.4947 30.5554 49.3698 30.6282 49.1594 30.638C44.3282 30.8629 40.0716 32.5388 36.462 35.7693C32.9252 38.9344 30.7717 42.8851 29.9873 47.5625C29.4816 50.5457 29.6665 53.6051 30.5278 56.5057C30.6076 56.7774 30.5815 56.9682 30.3775 57.1763C29.8341 57.7353 29.3115 58.3152 28.7894 58.895C28.6305 59.0719 28.5582 59.0436 28.4836 58.8337C27.8465 57.1177 27.4195 55.3309 27.2118 53.5123C27.0981 52.493 27.0417 51.4682 27.043 50.4426Z" fill="#00B198"/>
<path d="M45.1445 55.1691C45.6215 54.3563 46.1452 53.5724 46.6892 52.8029C48.4482 50.3054 50.3394 47.9037 52.3546 45.6079C53.2853 44.5517 54.2768 43.5533 55.4284 42.7301C55.988 42.3306 56.573 41.9815 57.2615 41.8456C58.1183 41.6768 58.6362 42.1503 58.5333 43.0203C58.4605 43.6192 58.1743 44.1343 57.8512 44.6286C57.0736 45.8154 56.0851 46.819 55.0353 47.7561C52.3099 50.1896 49.42 52.4323 46.3863 54.4684C45.9967 54.7309 45.5931 54.9731 45.196 55.2246L45.1445 55.1691Z" fill="#00B198"/>
<path d="M22 77.4059C22.481 76.8586 22.9627 76.3112 23.4453 75.7635C26.5443 72.244 29.6436 68.7247 32.7434 65.2057C35.6648 61.8893 38.5871 58.5735 41.5103 55.2583C42.2869 54.3769 43.0621 53.4941 43.836 52.61C44.0858 52.3256 44.0846 52.3244 44.3598 52.5984C44.5708 52.8094 44.7731 53.0303 44.9957 53.2286C45.1604 53.3754 45.1419 53.4858 44.9991 53.6332C44.4673 54.1778 43.9435 54.7316 43.4157 55.2774C41.1361 57.6426 38.8568 60.0066 36.578 62.3695C33.5267 65.5398 30.4748 68.7105 27.422 71.8816C25.7397 73.6305 24.0592 75.3812 22.3804 77.1336C22.2752 77.244 22.1879 77.3718 22.0913 77.4909L22 77.4059Z" fill="#00B198"/>
<path d="M23.1016 78C23.149 77.859 23.2449 77.7936 23.323 77.7185C27.2618 73.9227 31.2011 70.1265 35.1411 66.3299C37.1113 64.433 39.0826 62.537 41.0551 60.642C42.9084 58.8622 44.7609 57.0811 46.6123 55.2986C46.8008 55.1159 46.9141 55.1298 47.0748 55.3136C47.2731 55.5378 47.4855 55.749 47.7107 55.9461C47.8998 56.112 47.9096 56.2189 47.7078 56.3947C46.4794 57.4624 45.263 58.5429 44.0415 59.6187C41.6856 61.6922 39.3294 63.766 36.9731 65.8403C34.2919 68.2012 31.6104 70.562 28.9288 72.9226C27.0789 74.552 25.229 76.1821 23.3791 77.8127C23.3045 77.8792 23.2409 77.9671 23.1016 78Z" fill="#00B198"/>
<path d="M66.1305 29.74C68.6816 29.7689 70.7391 31.7552 70.7599 34.3792C70.7807 36.9171 68.6452 39.0145 66.1091 39.0041C63.588 38.9925 61.5004 36.8882 61.5039 34.3619C61.5074 31.8356 63.6053 29.7429 66.1305 29.74Z" fill="#00B198"/>
</svg>
