<svg width="100" height="100" viewBox="0 0 100 100" fill="none" xmlns="http://www.w3.org/2000/svg">
<path d="M0 53.9007V46.0993C0.177305 44.7553 0.326241 43.406 0.54078 42.0656C3.8422 21.3422 19.9397 4.74114 40.4965 0.822695C42.3546 0.468085 44.2376 0.315603 46.0993 0H53.9007C55.2447 0.177305 56.594 0.329787 57.9326 0.544326C78.7004 3.8617 95.1915 19.8812 99.1879 40.5851C99.5425 42.4131 99.6809 44.2677 100 46.0993V53.9007C99.844 55.039 99.6933 56.1791 99.5319 57.3174C96.6312 77.8493 80.6738 94.8067 60.3706 99.0018C58.2287 99.445 56.0567 99.6631 53.9007 100H46.0993C44.7553 99.8227 43.406 99.6702 42.0674 99.4575C21.6312 96.1986 5.19149 80.5195 0.978723 60.2837C0.531915 58.172 0.324468 56.0284 0 53.9007ZM50 2.65957C24.0337 2.50887 2.65957 23.8652 2.63475 49.945C2.60638 76.0727 23.9876 97.3564 49.9752 97.3706C76.0479 97.3848 97.3706 76.0567 97.3777 50.0106C97.3848 23.9645 76.0496 2.5 50 2.65957Z" fill="#00B198"/>
<path d="M79.0368 47.0101C78.9843 47.5078 78.8892 48.0002 78.7524 48.482C77.8927 51.0616 76.1485 52.697 73.4508 53.3142C72.9625 53.4211 72.4629 53.4698 71.9628 53.4592H49.4904C49.2064 53.4727 48.9217 53.4593 48.6402 53.4191C48.587 53.4191 48.5151 53.4191 48.5026 53.345C48.4901 53.271 48.5464 53.2648 48.5808 53.2309C49.6394 52.2249 50.7002 51.2159 51.763 50.2038C51.7998 50.1674 51.8438 50.1388 51.8921 50.1197C51.9405 50.1006 51.9923 50.0915 52.0443 50.0927H71.9097C72.7989 50.1157 73.6653 49.8132 74.3422 49.2436C75.0191 48.674 75.4587 47.8773 75.5764 47.007C75.6035 46.8263 75.615 46.6435 75.6108 46.4609C75.6108 41.318 75.6108 36.166 75.6108 31.0046C75.6311 30.136 75.3263 29.2904 74.7549 28.6295C74.1834 27.9686 73.3853 27.5388 72.513 27.4221C72.3057 27.3961 72.0966 27.3868 71.8878 27.3944C64.4606 27.3944 57.0333 27.3944 49.6092 27.3944C48.8435 27.3781 48.0918 27.5988 47.4595 28.0254C46.8272 28.452 46.3459 29.0633 46.0832 29.7734C45.9551 30.1428 45.8917 30.531 45.8956 30.9213C45.8956 33.5688 45.8956 36.2164 45.8956 38.8639C45.9012 38.9885 45.8779 39.1128 45.8275 39.2272C45.7771 39.3416 45.701 39.4432 45.6049 39.5242C44.6234 40.4314 43.6637 41.3602 42.6915 42.2797C42.6321 42.3353 42.5821 42.4525 42.4852 42.4063C42.3883 42.36 42.4477 42.2612 42.4477 42.1841C42.4477 38.401 42.4477 34.6149 42.4477 30.8287C42.4697 29.2571 43.0329 27.7396 44.0448 26.526C45.0566 25.3124 46.4568 24.4749 48.015 24.1513C48.5035 24.0517 49.001 24.0011 49.4998 24.0001C56.9896 24.0001 64.4804 24.0001 71.9722 24.0001C73.6867 23.9907 75.3456 24.6003 76.6364 25.7143C77.9272 26.8282 78.7609 28.3695 78.9806 30.0481C78.9821 30.1988 79.001 30.3489 79.0368 30.4955V47.0101Z" fill="#00B198"/>
<path d="M32.4994 73.9999C31.8429 73.943 31.1961 73.7966 30.5748 73.5646C27.7107 72.4004 25.9625 70.227 25.5459 66.9991C25.1933 64.3419 25.999 62.0395 27.805 60.1659C29.002 58.9051 30.5785 58.1302 32.2592 57.9764C34.1181 57.7595 35.9867 58.2843 37.5008 59.4485C39.0149 60.6126 40.0663 62.3329 40.4501 64.2742C40.7168 65.4784 40.7074 66.7328 40.4228 67.9324C40.1382 69.132 39.5866 70.2417 38.8144 71.1686C37.6213 72.6854 35.9354 73.6726 34.0895 73.9354C33.9223 73.9644 33.749 73.9773 33.5787 73.9999H32.4994Z" fill="#00B198"/>
<path d="M70.0127 73.9934C69.2613 73.9308 68.5229 73.7505 67.8214 73.4585C65.1156 72.2628 63.4508 70.1421 63.0491 67.0611C62.6382 63.893 63.7399 61.3212 66.1565 59.4197C67.5355 58.3753 69.2064 57.8531 70.8999 57.9373C72.5934 58.0215 74.2107 58.7072 75.4912 59.8838C76.4188 60.7095 77.142 61.7627 77.5976 62.9518C78.0533 64.1409 78.2276 65.4298 78.1056 66.7066C77.9789 68.4458 77.2961 70.0873 76.1699 71.3604C74.9726 72.7714 73.3403 73.6854 71.565 73.9387L71.0993 73.9999L70.0127 73.9934Z" fill="#00B198"/>
<path d="M51.2811 73.9999C50.7276 73.9393 50.1796 73.8316 49.6424 73.6779C48.2465 73.2279 47.001 72.3664 46.052 71.1946C45.103 70.0227 44.4899 68.5891 44.2846 67.0619C44.0384 65.157 44.4488 63.2221 45.4409 61.6107C46.433 59.9993 47.9406 58.819 49.6881 58.2856C50.912 57.878 52.2159 57.8181 53.4686 58.112C54.7214 58.4059 55.8789 59.0431 56.8248 59.9597C57.5685 60.6232 58.1773 61.4392 58.6144 62.3583C59.0515 63.2773 59.3079 64.2805 59.3681 65.3073C59.5309 67.4102 58.9036 69.4963 57.6222 71.1141C56.3407 72.7319 54.508 73.7513 52.5208 73.9516C52.4665 73.9603 52.4126 73.9721 52.3594 73.987L51.2811 73.9999Z" fill="#00B198"/>
<path d="M30.3526 48.9999C28.4985 48.9955 26.6874 48.4414 25.1482 47.4077C23.6091 46.3741 22.411 44.9072 21.7054 43.1927C20.9998 41.4781 20.8185 39.5928 21.1843 37.7752C21.5501 35.9576 22.4467 34.2893 23.7606 32.9812C25.0745 31.6731 26.7468 30.7839 28.566 30.4262C30.3853 30.0684 32.2697 30.2581 33.9811 30.9713C35.6925 31.6845 37.154 32.8891 38.1809 34.4328C39.2077 35.9765 39.7538 37.7901 39.75 39.6441C39.7496 40.8762 39.5059 42.096 39.033 43.2336C38.5601 44.3712 37.8672 45.4043 36.9941 46.2735C36.121 47.1427 35.0849 47.831 33.9452 48.2989C32.8055 48.7667 31.5846 49.005 30.3526 48.9999Z" fill="#00B198"/>
<path d="M22.8409 62.393C22.7599 62.3123 22.7911 62.2192 22.7911 62.1355C22.7911 58.9714 22.7911 55.8063 22.7911 52.6402C22.7911 51.3621 23.6174 50.5463 24.9115 50.5463C28.9695 50.5463 33.0233 50.5463 37.0729 50.5463C37.1797 50.5513 37.2864 50.5338 37.3858 50.4947C37.4853 50.4557 37.5753 50.3961 37.6498 50.3198C39.8243 48.2353 41.9978 46.1559 44.1702 44.0816C45.2398 43.058 46.3187 42.0374 47.3883 41.0137C47.7104 40.7062 48.0902 40.4647 48.5061 40.3032C48.9219 40.1416 49.3657 40.0632 49.8121 40.0722C50.2584 40.0813 50.6986 40.1778 51.1075 40.3561C51.5164 40.5344 51.886 40.791 52.1952 41.1114C52.5043 41.4318 52.7471 41.8097 52.9094 42.2234C53.0718 42.6371 53.1507 43.0785 53.1416 43.5226C53.1325 43.9666 53.0355 44.4045 52.8563 44.8113C52.677 45.218 52.419 45.5857 52.0969 45.8932C50.5939 47.3202 49.0919 48.7502 47.591 50.1833C45.6431 52.0446 43.6921 53.912 41.7379 55.7856C41.6868 55.835 41.6476 55.8953 41.6233 55.9619C41.599 56.0285 41.5902 56.0998 41.5976 56.1703V59.719C41.5976 59.7841 41.5976 59.8462 41.5976 59.9113C41.5976 59.9765 41.5976 60.0385 41.5415 60.054C41.4853 60.0695 41.4479 60.0044 41.4167 59.9579C41.1381 59.5477 40.8329 59.156 40.5031 58.7853C39.0288 57.1088 37.0392 55.9638 34.8433 55.5282C32.518 55.0194 30.0866 55.3493 27.983 56.4588C25.6523 57.6448 23.8668 59.674 22.9937 62.1293C22.9735 62.2316 22.9198 62.3243 22.8409 62.393Z" fill="#00B198"/>
</svg>
