<?xml version="1.0" encoding="UTF-8"?><svg id="Layer_2" xmlns="http://www.w3.org/2000/svg" viewBox="0 0 30.94 30.94"><defs><style>.cls-1{fill:#00a993;}</style></defs><g id="Layer_1-2"><g><path class="cls-1" d="M19.76,10.25h0c-.53,0-.96,.43-.96,.96s.43,.96,.96,.96,.96-.43,.96-.96-.43-.96-.96-.96Z"/><path class="cls-1" d="M15.5,11.37c-2.26,0-4.1,1.84-4.1,4.1s1.84,4.1,4.1,4.1,4.1-1.83,4.1-4.1-1.84-4.1-4.1-4.1Zm0,6.76c-1.47,0-2.66-1.19-2.66-2.66s1.19-2.66,2.66-2.66,2.66,1.19,2.66,2.66-1.19,2.66-2.66,2.66Z"/><path class="cls-1" d="M15.47,0C6.93,0,0,6.93,0,15.47s6.93,15.47,15.47,15.47,15.47-6.93,15.47-15.47S24.01,0,15.47,0Zm6.53,18.69c-.04,.78-.17,1.2-.28,1.48-.15,.37-.32,.64-.6,.92-.28,.28-.54,.45-.92,.6-.28,.11-.7,.24-1.48,.28-.84,.04-1.09,.05-3.23,.05s-2.39,0-3.23-.05c-.78-.04-1.2-.17-1.48-.28-.37-.14-.64-.32-.92-.6-.28-.28-.45-.54-.6-.92-.11-.28-.24-.7-.28-1.48-.04-.84-.05-1.09-.05-3.23s0-2.38,.05-3.23c.03-.78,.16-1.2,.28-1.48,.14-.37,.32-.64,.6-.92,.28-.28,.55-.45,.92-.6,.28-.11,.7-.24,1.48-.28,.74-.03,1.02-.04,2.51-.04h0c.14,0,.29,0,.45,0h.27c2.13,0,2.38,0,3.23,.05,.78,.04,1.2,.17,1.48,.27,.37,.14,.64,.32,.92,.6,.28,.28,.45,.55,.6,.92,.11,.28,.24,.7,.28,1.48,.04,.84,.05,1.09,.05,3.23s0,2.38-.05,3.22Z"/></g></g></svg>