<svg width="306" height="611" viewBox="0 0 306 611" fill="none" xmlns="http://www.w3.org/2000/svg">
<path fill-rule="evenodd" clip-rule="evenodd" d="M306 532.642V611C284.075 611.036 262.137 608.712 240.57 604.021C194.149 593.924 150.723 573.14 113.741 543.321C76.7592 513.502 47.2411 475.47 27.532 432.245C7.82292 389.02 -1.53411 341.795 0.204348 294.321C1.94281 246.847 14.7288 200.432 37.5466 158.765C60.3644 117.097 92.5851 81.3254 131.649 54.2912C170.712 27.2569 215.542 9.70527 262.577 3.03072C277.003 0.983675 291.513 -0.0229543 306 0.000782623V78.3587C295.186 78.3348 284.354 79.0832 273.586 80.6112C238.616 85.5738 205.284 98.6236 176.24 118.724C147.196 138.824 123.239 165.421 106.274 196.401C89.3087 227.381 79.8022 261.891 78.5096 297.188C77.217 332.486 84.1741 367.598 98.828 399.736C113.482 431.874 135.429 460.152 162.925 482.323C190.421 504.493 222.709 519.946 257.224 527.453C273.301 530.95 289.656 532.678 306 532.642Z" fill="url(#paint0_linear_619_74)"/>
<defs>
<linearGradient id="paint0_linear_619_74" x1="-15.0268" y1="305.5" x2="306" y2="305.5" gradientUnits="userSpaceOnUse">
<stop stop-color="#26627E"/>
<stop offset="1" stop-color="#00B198"/>
</linearGradient>
</defs>
</svg>
