<?xml version="1.0" encoding="UTF-8"?><svg id="Layer_2" xmlns="http://www.w3.org/2000/svg" viewBox="0 0 31.03 30.94"><defs><style>.cls-1{fill:#00a993;}</style></defs><g id="Layer_1-2"><g><path class="cls-1" d="M1,15.47C1,7.48,7.48,1,15.47,1V0C6.93,0,0,6.93,0,15.47H1ZM15.47,1c7.99,0,14.47,6.48,14.47,14.47h1C30.94,6.93,24.01,0,15.47,0V1Zm14.47,14.47c0,7.99-6.48,14.47-14.47,14.47v1c8.54,0,15.47-6.93,15.47-15.47h-1Zm-14.47,14.47c-7.99,0-14.47-6.48-14.47-14.47H0c0,8.54,6.93,15.47,15.47,15.47v-1Z"/><path class="cls-1" d="M15.56,0C7.02,0,.09,6.93,.09,15.47s6.93,15.47,15.47,15.47,15.47-6.93,15.47-15.47S24.1,0,15.56,0Zm-4.61,23.09h-3.39V12.9h3.39v10.19Zm-1.7-11.58h-.02c-1.14,0-1.88-.78-1.88-1.76s.76-1.76,1.92-1.76,1.88,.76,1.9,1.76c0,.98-.74,1.76-1.92,1.76Zm13.93,11.58h-3.39v-5.45c0-1.37-.49-2.3-1.72-2.3-.94,0-1.5,.63-1.74,1.24-.09,.22-.11,.52-.11,.83v5.69h-3.39s.04-9.24,0-10.19h3.39v1.44c.45-.69,1.26-1.68,3.06-1.68,2.23,0,3.91,1.46,3.91,4.59v5.84Z"/></g></g></svg>