<svg width="50" height="50" viewBox="0 0 50 50" fill="none" xmlns="http://www.w3.org/2000/svg">
<path fill-rule="evenodd" clip-rule="evenodd" d="M25 1.5C12.0213 1.5 1.5 12.0213 1.5 25C1.5 37.9787 12.0213 48.5 25 48.5C37.9787 48.5 48.5 37.9787 48.5 25C48.5 12.0213 37.9787 1.5 25 1.5ZM0.5 25C0.5 11.469 11.469 0.5 25 0.5C38.531 0.5 49.5 11.469 49.5 25C49.5 38.531 38.531 49.5 25 49.5C11.469 49.5 0.5 38.531 0.5 25Z" fill="#00A993"/>
<path d="M18.1327 16C23.1765 16 27.265 20.1171 27.265 25.1953C27.265 30.2736 23.1762 34.3904 18.1327 34.3904C13.0891 34.3904 9 30.2736 9 25.1953C9 20.1171 13.0888 16 18.1327 16ZM32.7169 16.5386C35.2388 16.5386 37.2832 20.414 37.2832 25.1953H37.2835C37.2835 29.9755 35.2391 33.8521 32.7172 33.8521C30.1953 33.8521 28.1509 29.9755 28.1509 25.1953C28.1509 20.4152 30.195 16.5386 32.7169 16.5386ZM39.7754 17.4403C40.6621 17.4403 41.3814 20.9123 41.3814 25.1953C41.3814 29.4772 40.6624 32.9504 39.7754 32.9504C38.8883 32.9504 38.1697 29.4781 38.1697 25.1953C38.1697 20.9126 38.8886 17.4403 39.7754 17.4403Z" fill="#00A993"/>
</svg>
