<?xml version="1.0" encoding="UTF-8"?><svg id="Layer_2" xmlns="http://www.w3.org/2000/svg" viewBox="0 0 31.14 30.94"><defs><style>.cls-1,.cls-2{fill:#00a993;}.cls-2{fill-rule:evenodd;}</style></defs><g id="Layer_1-2"><g><path class="cls-2" d="M15.67,1C7.68,1,1.2,7.48,1.2,15.47s6.48,14.47,14.47,14.47,14.47-6.48,14.47-14.47S23.66,1,15.67,1ZM.2,15.47C.2,6.93,7.12,0,15.67,0s15.47,6.93,15.47,15.47-6.93,15.47-15.47,15.47S.2,24.01,.2,15.47Z"/><path class="cls-1" d="M15.47,0C6.93,0,0,6.93,0,15.47s6.93,15.47,15.47,15.47,15.47-6.93,15.47-15.47S24.01,0,15.47,0Zm-4.09,21.33c-3.15,0-5.7-2.57-5.7-5.74s2.55-5.74,5.7-5.74,5.7,2.57,5.7,5.74-2.55,5.74-5.7,5.74Zm9.1-.34c-1.57,0-2.85-2.42-2.85-5.4s1.28-5.4,2.85-5.4,2.85,2.42,2.85,5.4-1.28,5.4-2.85,5.4Zm4.4-.56c-.55,0-1-2.17-1-4.84s.45-4.84,1-4.84,1,2.17,1,4.84-.45,4.84-1,4.84Z"/></g></g></svg>