<svg width="638" height="491" viewBox="0 0 638 491" fill="none" xmlns="http://www.w3.org/2000/svg">
<path d="M255.645 180.809C279.98 165.712 307.777 157.1 336.385 155.794C364.993 154.489 393.459 160.533 419.068 173.351C419.139 171.418 419.179 169.454 419.179 167.491C419.179 145.496 414.847 123.716 406.43 103.395C398.013 83.074 385.675 64.6099 370.122 49.057C354.569 33.504 336.105 21.1667 315.784 12.7495C295.463 4.33228 273.683 0 251.688 0C229.693 0 207.913 4.33228 187.592 12.7495C167.271 21.1667 148.807 33.504 133.254 49.057C117.701 64.6099 105.364 83.074 96.9468 103.395C88.5295 123.716 84.1973 145.496 84.1973 167.491C84.1973 170.841 84.3086 174.181 84.5009 177.48C110.695 162.604 140.414 155.064 170.532 155.651C200.649 156.239 230.052 164.933 255.645 180.819V180.809Z" fill="url(#paint0_linear_454_140)"/>
<path d="M176.514 323.121C176.514 321.158 176.564 319.215 176.625 317.261C150.366 304.083 128.034 284.231 111.87 259.696C95.7054 235.162 86.277 206.808 84.5304 177.48C65.2013 188.502 48.262 203.265 34.7016 220.907C21.1411 238.549 11.2313 258.715 5.55072 280.229C-0.129834 301.743 -1.46726 324.172 1.61653 346.209C4.70033 368.245 12.1435 389.446 23.5115 408.574C34.8795 427.702 49.9445 444.374 67.8268 457.615C85.709 470.856 106.05 480.402 127.663 485.696C149.275 490.989 171.725 491.923 193.703 488.444C215.68 484.965 236.744 477.142 255.665 465.433C231.45 450.409 211.471 429.453 197.62 404.549C183.769 379.645 176.504 351.618 176.514 323.121Z" fill="url(#paint1_linear_454_140)"/>
<path d="M176.626 317.261C177.572 289.775 185.276 262.946 199.059 239.146C212.841 215.346 232.276 195.31 255.645 180.809C230.05 164.928 200.647 156.237 170.53 155.651C140.413 155.065 110.695 162.606 84.501 177.48C86.2536 206.811 95.6878 235.165 111.857 259.699C128.027 284.233 150.363 304.084 176.626 317.261Z" fill="url(#paint2_linear_454_140)"/>
<path d="M419.068 173.341C418.079 201.925 409.785 229.78 394.976 254.249C380.167 278.719 359.337 298.987 334.473 313.122C334.665 316.421 334.776 319.751 334.776 323.111C334.79 351.606 327.529 379.633 313.681 404.537C299.834 429.441 279.858 450.398 255.646 465.423C274.881 477.371 296.338 485.296 318.722 488.719C341.107 492.141 363.952 490.99 385.879 485.335C407.806 479.68 428.358 469.638 446.295 455.817C464.231 441.995 479.18 424.68 490.236 404.919C501.293 385.158 508.228 363.36 510.624 340.843C513.019 318.326 510.824 295.556 504.173 273.911C497.521 252.266 486.549 232.194 471.922 214.909C457.295 197.623 439.314 183.482 419.068 173.341Z" fill="url(#paint3_linear_454_140)"/>
<path d="M255.646 180.809C278.416 194.946 297.46 214.343 311.177 237.369C324.894 260.395 332.883 286.377 334.473 313.132C359.335 298.995 380.163 278.726 394.972 254.257C409.781 229.788 418.076 201.935 419.068 173.351C393.459 160.533 364.993 154.488 336.385 155.794C307.777 157.1 279.981 165.712 255.646 180.809Z" fill="url(#paint4_linear_454_140)"/>
<path d="M334.775 323.121C334.775 319.771 334.664 316.431 334.471 313.132C310.518 326.732 283.585 334.223 256.05 334.943C228.514 335.663 201.226 329.59 176.595 317.261C176.514 319.204 176.483 321.158 176.483 323.121C176.469 351.616 183.729 379.644 197.577 404.548C211.425 429.452 231.401 450.409 255.614 465.433C279.832 450.412 299.814 429.457 313.667 404.552C327.52 379.648 334.786 351.619 334.775 323.121Z" fill="url(#paint5_linear_454_140)"/>
<path d="M255.645 180.809C232.278 195.311 212.843 215.348 199.061 239.147C185.279 262.947 177.573 289.776 176.626 317.261C201.257 329.59 228.546 335.663 256.081 334.943C283.616 334.223 310.55 326.732 334.503 313.132C332.91 286.375 324.916 260.39 311.194 237.364C297.471 214.338 278.421 194.943 255.645 180.809Z" fill="url(#paint6_radial_454_140)"/>
<path d="M405.241 419.349L407.413 417.908L417.15 424.642L414.771 413.029L416.96 411.577L420.426 429.583L420.391 429.606L405.241 419.349Z" fill="#1EDBB3"/>
<path d="M429.294 421.774L419.228 409.532L421.079 408.01L431.145 420.252L429.294 421.774Z" fill="#1EDBB3"/>
<path d="M432.686 414.408L433.606 412.206C434.423 412.597 435.168 412.756 435.84 412.682C436.513 412.607 437.112 412.31 437.64 411.79C438.167 411.27 438.423 410.714 438.407 410.121C438.402 409.518 438.164 408.978 437.693 408.501C437.457 408.262 437.212 408.072 436.956 407.932C436.7 407.792 436.404 407.711 436.068 407.689C435.733 407.667 435.332 407.708 434.867 407.814C434.412 407.909 433.867 408.073 433.233 408.306C432.54 408.558 431.906 408.751 431.332 408.885C430.768 409.01 430.244 409.065 429.76 409.052C429.286 409.029 428.847 408.922 428.443 408.731C428.04 408.541 427.647 408.252 427.264 407.864C426.862 407.456 426.569 406.999 426.385 406.494C426.191 405.979 426.11 405.45 426.144 404.906C426.177 404.363 426.315 403.826 426.555 403.294C426.796 402.742 427.151 402.236 427.618 401.775C428.385 401.02 429.218 400.561 430.118 400.4C431.018 400.218 431.917 400.274 432.814 400.567L432.19 402.8C431.569 402.628 431.021 402.58 430.547 402.655C430.072 402.731 429.625 402.975 429.208 403.387C428.979 403.613 428.804 403.853 428.684 404.109C428.573 404.356 428.507 404.607 428.486 404.864C428.474 405.111 428.507 405.353 428.584 405.591C428.662 405.809 428.789 406.007 428.965 406.186C429.132 406.355 429.319 406.485 429.526 406.575C429.723 406.656 429.974 406.692 430.281 406.685C430.597 406.667 430.973 406.6 431.409 406.485C431.834 406.36 432.364 406.181 432.998 405.948C433.761 405.667 434.444 405.474 435.047 405.37C435.651 405.265 436.204 405.249 436.707 405.322C437.221 405.385 437.694 405.547 438.127 405.807C438.57 406.057 439.007 406.401 439.438 406.838C439.919 407.326 440.266 407.857 440.479 408.431C440.703 408.996 440.797 409.57 440.764 410.153C440.73 410.735 440.582 411.302 440.322 411.854C440.061 412.405 439.692 412.916 439.214 413.387C438.727 413.868 438.21 414.24 437.665 414.502C437.129 414.775 436.58 414.954 436.016 415.039C435.443 415.114 434.875 415.095 434.312 414.983C433.75 414.87 433.208 414.678 432.686 414.408Z" fill="#1EDBB3"/>
<path d="M446.031 405.507L433.874 395.338L435.412 393.5L447.569 403.669L446.031 405.507Z" fill="#1EDBB3"/>
<path d="M451.495 398.688L438.34 389.812L439.87 387.544C440.859 386.079 441.921 385.145 443.056 384.742C444.186 384.32 445.351 384.514 446.549 385.322C447.13 385.714 447.56 386.207 447.837 386.8C448.11 387.374 448.219 387.964 448.165 388.571L448.183 388.582C448.957 387.937 449.782 387.579 450.658 387.51C451.542 387.43 452.362 387.644 453.118 388.154C453.757 388.586 454.237 389.079 454.557 389.633C454.865 390.18 455.035 390.768 455.067 391.399C455.098 392.03 454.99 392.693 454.741 393.388C454.499 394.071 454.136 394.774 453.649 395.495L451.495 398.688ZM451.912 394.043C452.218 393.59 452.428 393.165 452.543 392.769C452.658 392.372 452.699 392.011 452.666 391.683C452.633 391.356 452.531 391.068 452.362 390.818C452.18 390.56 451.95 390.337 451.671 390.149C451.391 389.96 451.104 389.834 450.809 389.77C450.502 389.699 450.181 389.71 449.845 389.806C449.518 389.89 449.18 390.076 448.833 390.366C448.492 390.645 448.146 391.046 447.793 391.569L446.992 392.755L450.97 395.439L451.912 394.043ZM445.782 390.974C446.316 390.183 446.524 389.486 446.407 388.882C446.289 388.278 445.911 387.76 445.271 387.329C444.643 386.905 444.064 386.785 443.534 386.969C443.011 387.141 442.487 387.617 441.961 388.396L441.514 389.059L445.335 391.637L445.782 390.974Z" fill="#1EDBB3"/>
<path d="M459.753 385.779L445.806 378.172L446.956 376.063L460.903 383.67L459.753 385.779Z" fill="#1EDBB3"/>
<path d="M463.824 378.134L449.357 371.66L450.336 369.473L462.75 375.028L464.656 370.769L466.709 371.687L463.824 378.134Z" fill="#1EDBB3"/>
<path d="M468.416 367.073L453.461 361.824L454.255 359.563L469.209 364.812L468.416 367.073Z" fill="#1EDBB3"/>
<path d="M455.394 356.339L457.784 346.969L459.964 347.525L459.065 351.049L472.243 354.41L471.656 356.712L458.478 353.35L457.574 356.894L455.394 356.339Z" fill="#1EDBB3"/>
<path d="M458.51 342.901L465.452 340.163L459.477 335.693L459.843 332.963L468.067 339.326L474.858 340.237L474.543 342.591L467.751 341.68L458.147 345.609L458.51 342.901Z" fill="#1EDBB3"/>
<path d="M215.062 42.1846L217.495 41.6384L223.899 50.979L225.735 39.7886L228.188 39.238L225.141 56.5117L225.102 56.5205L215.062 42.1846Z" fill="#1EDBB3"/>
<path d="M237.255 36.5558L237.314 36.5498L245.994 51.7108L243.516 51.961L241.564 48.4941L235.162 49.1408L233.884 52.934L231.466 53.1782L237.255 36.5558ZM240.438 46.4655L239.291 44.4191C239.015 43.9397 238.747 43.4662 238.486 42.9986C238.224 42.5179 237.969 42.0365 237.72 41.5544C237.546 42.0792 237.366 42.6113 237.18 43.1506C237.006 43.6754 236.832 44.2002 236.659 44.725L235.919 46.922L240.438 46.4655Z" fill="#1EDBB3"/>
<path d="M249.645 52.5658L249.89 37.4728L252.172 37.5098L251.962 50.461L256.406 50.5332L256.371 52.675L249.645 52.5658Z" fill="#1EDBB3"/>
<path d="M261.674 36.8725L263.933 37.1235L262.894 46.4785C262.818 47.1656 262.838 47.7631 262.956 48.2711C263.074 48.7658 263.263 49.1747 263.521 49.4977C263.793 49.8221 264.12 50.0725 264.501 50.2486C264.883 50.4248 265.299 50.5379 265.748 50.5878C266.197 50.6377 266.627 50.6186 267.038 50.5305C267.449 50.4424 267.816 50.2692 268.139 50.0108C268.477 49.7407 268.759 49.3707 268.985 48.9009C269.224 48.4326 269.384 47.8416 269.463 47.1281L270.494 37.8525L272.733 38.1013L271.665 47.7139C271.565 48.6124 271.325 49.3949 270.943 50.0615C270.574 50.7295 270.113 51.2734 269.558 51.6933C269.003 52.1132 268.374 52.4112 267.673 52.5874C266.986 52.7518 266.265 52.7922 265.512 52.7085C264.759 52.6248 264.059 52.4266 263.411 52.1139C262.779 51.7894 262.238 51.3615 261.788 50.83C261.339 50.2986 261.001 49.6658 260.775 48.9317C260.562 48.1991 260.506 47.3836 260.606 46.4851L261.674 36.8725Z" fill="#1EDBB3"/>
<path d="M287.773 41.2797L287.28 43.3576L281.416 41.967L280.582 45.4819L286.291 46.8357L285.799 48.9135L280.089 47.5598L278.929 52.4535L284.794 53.8441L284.301 55.9219L276.223 54.0064L279.694 39.3642L287.773 41.2797Z" fill="#1EDBB3"/>
<path d="M48.2463 314.589C49.3809 314.623 50.4391 314.864 51.4211 315.314C52.417 315.765 53.2821 316.372 54.0164 317.137C54.7502 317.916 55.3189 318.823 55.7226 319.859C56.1403 320.895 56.3314 322.008 56.2958 323.199C56.2536 324.613 55.8204 325.974 54.9963 327.282L52.1809 327.198C53.37 325.873 53.987 324.462 54.0317 322.963C54.056 322.15 53.9177 321.382 53.6168 320.658C53.3296 319.949 52.9206 319.327 52.3898 318.792C51.873 318.258 51.255 317.826 50.5358 317.496C49.8162 317.18 49.0362 317.01 48.1958 316.985C47.3834 316.96 46.6086 317.084 45.8714 317.357C45.1479 317.644 44.5052 318.038 43.9435 318.54C43.3957 319.042 42.9571 319.646 42.6276 320.351C42.2982 321.056 42.1213 321.815 42.097 322.628C42.0849 323.034 42.1016 323.413 42.1472 323.765C42.2068 324.117 42.3016 324.463 42.4316 324.804C42.5617 325.144 42.7337 325.486 42.9478 325.828C43.1759 326.172 43.4522 326.544 43.7766 326.947L40.8982 326.861C40.1543 325.479 39.805 324.031 39.8502 322.518C39.8844 321.37 40.1267 320.298 40.5771 319.302C41.041 318.32 41.648 317.476 42.3981 316.769C43.1622 316.063 44.0408 315.515 45.0338 315.124C46.0409 314.733 47.1117 314.555 48.2463 314.589Z" fill="#1EDBB3"/>
<path d="M56.4087 334.316C56.5013 335.222 56.4948 336.054 56.3892 336.811C56.2835 337.568 56.0696 338.231 55.7474 338.799C55.4252 339.368 54.9863 339.828 54.4307 340.181C53.8891 340.532 53.214 340.749 52.4055 340.832C51.3739 340.937 50.4378 340.737 49.5972 340.231C48.772 339.738 48.0995 338.948 47.5798 337.86L41.4011 343.352L41.1038 340.445L47.1119 335.351L47.0605 334.849L40.5991 335.51L40.3552 333.126L56.1221 331.514L56.4087 334.316ZM49.1307 334.637L49.2077 335.39C49.3218 336.506 49.6241 337.327 50.1147 337.854C50.6054 338.382 51.2759 338.602 52.1262 338.515C53.7433 338.349 54.44 337.172 54.2161 334.984L54.1284 334.126L49.1307 334.637Z" fill="#1EDBB3"/>
<path d="M59.6749 353.161L57.4819 353.66L56.0733 347.47L52.3635 348.314L53.7348 354.34L51.5417 354.839L50.1705 348.813L45.0055 349.989L46.414 356.178L44.2209 356.677L42.2807 348.151L57.7347 344.634L59.6749 353.161Z" fill="#1EDBB3"/>
<path d="M45.9918 362.928L60.8275 357.351L62.0034 360.48C62.4866 361.765 62.7499 362.984 62.7935 364.135C62.837 365.286 62.673 366.344 62.3014 367.307C61.9348 368.283 61.3638 369.134 60.5886 369.859C59.8183 370.598 58.8625 371.182 57.7213 371.611C56.5277 372.059 55.3887 372.255 54.3046 372.199C53.2384 372.15 52.2525 371.877 51.3468 371.379C50.446 370.895 49.6368 370.196 48.9194 369.283C48.22 368.378 47.6312 367.289 47.1529 366.017L45.9918 362.928ZM49.3174 365.383C49.6675 366.314 50.0986 367.103 50.6108 367.749C51.1231 368.394 51.6983 368.889 52.3366 369.233C52.9929 369.585 53.7008 369.776 54.4602 369.805C55.2196 369.834 56.0256 369.688 56.8782 369.368C57.6915 369.062 58.3727 368.664 58.9217 368.173C59.4889 367.69 59.9083 367.113 60.18 366.442C60.4698 365.779 60.5988 365.027 60.567 364.186C60.5352 363.345 60.327 362.412 59.9424 361.389L59.5653 360.386L48.9402 364.379L49.3174 365.383Z" fill="#1EDBB3"/>
<path d="M52.9574 379.748L67.0979 372.589L68.1802 374.727L54.0397 381.886L52.9574 379.748Z" fill="#1EDBB3"/>
<path d="M57.0193 387.486L70.3325 378.927L71.8081 381.223C72.7616 382.706 73.1992 384.046 73.121 385.244C73.0622 386.447 72.4265 387.438 71.2141 388.217C70.6255 388.595 70.005 388.795 69.3526 388.815C68.7194 388.839 68.1355 388.707 67.6008 388.419L67.5831 388.43C67.8698 389.394 67.8723 390.291 67.5907 391.12C67.3166 391.962 66.797 392.629 66.0318 393.121C65.3844 393.537 64.7437 393.782 64.1098 393.857C63.4876 393.924 62.8814 393.848 62.2911 393.629C61.7009 393.409 61.1363 393.049 60.5973 392.547C60.0659 392.057 59.5657 391.447 59.0965 390.717L57.0193 387.486ZM61.1106 389.697C61.4057 390.156 61.7122 390.516 62.03 390.777C62.3479 391.039 62.6632 391.219 62.9759 391.317C63.2887 391.416 63.5931 391.436 63.8891 391.379C64.1968 391.314 64.4919 391.191 64.7744 391.009C65.0569 390.828 65.2856 390.614 65.4605 390.369C65.6472 390.116 65.7628 389.817 65.8073 389.472C65.8595 389.139 65.8212 388.756 65.6926 388.323C65.5715 387.902 65.3407 387.426 65.0002 386.897L64.2283 385.696L60.2026 388.284L61.1106 389.697ZM66.337 385.289C66.8516 386.089 67.4086 386.554 68.0081 386.685C68.6076 386.815 69.2311 386.672 69.8785 386.256C70.5141 385.847 70.8521 385.364 70.8925 384.806C70.9404 384.259 70.7109 383.591 70.2039 382.803L69.7726 382.132L65.9057 384.618L66.337 385.289Z" fill="#1EDBB3"/>
<path d="M65.6038 400.211L78.1245 390.543L79.5863 392.436L67.0655 402.104L65.6038 400.211Z" fill="#1EDBB3"/>
<path d="M71.0911 406.885L82.7557 396.155L84.378 397.919L74.3687 407.126L77.5279 410.56L75.8726 412.083L71.0911 406.885Z" fill="#1EDBB3"/>
<path d="M79.4402 415.486L90.1823 403.833L91.9443 405.457L81.2021 417.11L79.4402 415.486Z" fill="#1EDBB3"/>
<path d="M94.4446 407.783L102.093 413.699L100.717 415.478L97.8405 413.253L89.52 424.011L87.6412 422.557L95.9617 411.8L93.0686 409.562L94.4446 407.783Z" fill="#1EDBB3"/>
<path d="M105.532 415.977L105.278 423.434L111.759 419.734L114.116 421.157L105.005 426.166L101.464 432.033L99.4303 430.806L102.971 424.939L103.192 414.565L105.532 415.977Z" fill="#1EDBB3"/>
<path d="M637.494 131.291H498.845L255.452 263.361" stroke="url(#paint7_radial_454_140)" stroke-miterlimit="10"/>
<path d="M516.344 107.905C517.212 107.905 517.999 107.992 518.707 108.165C519.414 108.339 520.021 108.606 520.529 108.966C521.036 109.326 521.429 109.787 521.71 110.347C521.99 110.895 522.13 111.555 522.13 112.329C522.13 113.317 521.85 114.185 521.289 114.932C520.742 115.666 519.928 116.227 518.847 116.614L523.451 123H520.669L516.424 116.814H515.944V123H513.662V107.905H516.344ZM515.944 114.832H516.665C517.732 114.832 518.54 114.625 519.087 114.211C519.634 113.797 519.908 113.184 519.908 112.369C519.908 110.821 518.86 110.047 516.765 110.047H515.944V114.832ZM535.048 107.905V110.047H529.002V113.671H534.888V115.813H529.002V120.858H535.048V123H526.72V107.905H535.048ZM539.778 123V107.905H542.061V120.858H546.505V123H539.778ZM558.428 107.905V110.047H552.382V113.671H558.268V115.813H552.382V120.858H558.428V123H550.1V107.905H558.428ZM561.396 107.905H563.879L568.063 118.375L572.287 107.905H574.79L568.063 124.021H568.023L561.396 107.905ZM582.059 106.964H582.119L589.266 123H586.764L585.162 119.336H578.696L577.034 123H574.591L582.059 106.964ZM584.241 117.194L583.3 115.032C583.073 114.525 582.853 114.024 582.639 113.531C582.426 113.023 582.219 112.516 582.019 112.009C581.792 112.516 581.558 113.03 581.318 113.551C581.091 114.058 580.864 114.565 580.637 115.072L579.677 117.194H584.241ZM603.433 107.905H605.716V123.921H605.656L594.705 112.429V123H592.422V106.884H592.482L603.433 118.395V107.905ZM610.042 115.513C610.042 114.431 610.242 113.417 610.642 112.469C611.043 111.509 611.596 110.668 612.304 109.947C613.025 109.226 613.872 108.659 614.846 108.245C615.821 107.818 616.875 107.605 618.01 107.605C619.358 107.605 620.665 107.978 621.933 108.726V111.408C620.639 110.314 619.277 109.767 617.849 109.767C617.075 109.767 616.348 109.92 615.667 110.227C615 110.521 614.419 110.928 613.925 111.448C613.432 111.956 613.038 112.556 612.744 113.25C612.464 113.944 612.324 114.692 612.324 115.492C612.324 116.267 612.464 117.001 612.744 117.695C613.038 118.375 613.432 118.976 613.925 119.496C614.419 120.004 615.007 120.404 615.687 120.698C616.368 120.991 617.095 121.138 617.869 121.138C618.256 121.138 618.617 121.111 618.95 121.058C619.284 120.991 619.611 120.891 619.931 120.758C620.252 120.624 620.572 120.451 620.892 120.237C621.213 120.01 621.56 119.737 621.933 119.416V122.159C620.639 122.907 619.271 123.28 617.829 123.28C616.735 123.28 615.707 123.08 614.746 122.68C613.799 122.266 612.978 121.712 612.284 121.018C611.59 120.311 611.043 119.49 610.642 118.556C610.242 117.608 610.042 116.594 610.042 115.513ZM634.785 107.905V110.047H628.739V113.671H634.625V115.813H628.739V120.858H634.785V123H626.457V107.905H634.785Z" fill="#1EDBB3"/>
<path d="M255.959 267.409C257.915 267.409 259.501 265.823 259.501 263.867C259.501 261.91 257.915 260.324 255.959 260.324C254.003 260.324 252.417 261.91 252.417 263.867C252.417 265.823 254.003 267.409 255.959 267.409Z" fill="url(#paint8_linear_454_140)"/>
<defs>
<linearGradient id="paint0_linear_454_140" x1="251.688" y1="180.809" x2="251.688" y2="-8.94635" gradientUnits="userSpaceOnUse">
<stop offset="0.23" stop-color="#24818A"/>
<stop offset="1" stop-color="#26627E"/>
</linearGradient>
<linearGradient id="paint1_linear_454_140" x1="75779" y1="122401" x2="30356.9" y2="159500" gradientUnits="userSpaceOnUse">
<stop offset="0.23" stop-color="#24818A"/>
<stop offset="1" stop-color="#26627E"/>
</linearGradient>
<linearGradient id="paint2_linear_454_140" x1="255.645" y1="236.441" x2="84.501" y2="236.441" gradientUnits="userSpaceOnUse">
<stop offset="0.23" stop-color="#23ADA0"/>
<stop offset="1" stop-color="#229391"/>
</linearGradient>
<linearGradient id="paint3_linear_454_140" x1="111918" y1="133456" x2="155299" y2="153658" gradientUnits="userSpaceOnUse">
<stop offset="0.23" stop-color="#24818A"/>
<stop offset="1" stop-color="#26627E"/>
</linearGradient>
<linearGradient id="paint4_linear_454_140" x1="58138.3" y1="52979" x2="84527.8" y2="52979" gradientUnits="userSpaceOnUse">
<stop offset="0.23" stop-color="#23ADA0"/>
<stop offset="1" stop-color="#229391"/>
</linearGradient>
<linearGradient id="paint5_linear_454_140" x1="56241.8" y1="63240.6" x2="56241.8" y2="86160.3" gradientUnits="userSpaceOnUse">
<stop offset="0.23" stop-color="#23ADA0"/>
<stop offset="1" stop-color="#229391"/>
</linearGradient>
<radialGradient id="paint6_radial_454_140" cx="0" cy="0" r="1" gradientUnits="userSpaceOnUse" gradientTransform="translate(255.544 257.906) scale(78.0073)">
<stop offset="0.1" stop-color="#1EDBB3"/>
<stop offset="1" stop-color="#21CAAB"/>
</radialGradient>
<radialGradient id="paint7_radial_454_140" cx="0" cy="0" r="1" gradientUnits="userSpaceOnUse" gradientTransform="translate(69283.2 128109) rotate(49.4972) scale(70144.5 28380.3)">
<stop offset="0.1" stop-color="#1EDBB3"/>
<stop offset="1" stop-color="#21CAAB"/>
</radialGradient>
<linearGradient id="paint8_linear_454_140" x1="2738.97" y1="2842.52" x2="2788.56" y2="2842.52" gradientUnits="userSpaceOnUse">
<stop offset="0.23" stop-color="#23ADA0"/>
<stop offset="1" stop-color="#229391"/>
</linearGradient>
</defs>
</svg>
