<svg width="64" height="64" viewBox="0 0 64 64" fill="none" xmlns="http://www.w3.org/2000/svg">
<path d="M0 34.4965V29.5035C0.113475 28.6434 0.208794 27.7799 0.346099 26.922C2.45901 13.659 12.7614 3.03433 25.9177 0.526525C27.1069 0.299574 28.3121 0.201986 29.5035 0H34.4965C35.3566 0.113475 36.2201 0.211064 37.0769 0.348369C50.3682 2.47149 60.9226 12.724 63.4803 25.9745C63.7072 27.1444 63.7957 28.3313 64 29.5035V34.4965C63.9001 35.225 63.8037 35.9546 63.7004 36.6831C61.844 49.8235 51.6312 60.6763 38.6372 63.3611C37.2664 63.6448 35.8763 63.7844 34.4965 64H29.5035C28.6434 63.8865 27.7799 63.7889 26.9231 63.6528C13.844 61.5671 3.32255 51.5325 0.626383 38.5816C0.340426 37.2301 0.20766 35.8582 0 34.4965ZM32 1.70213C15.3816 1.60567 1.70213 15.2738 1.68624 31.9648C1.66808 48.6865 15.3521 62.3081 31.9841 62.3172C48.6706 62.3262 62.3172 48.6763 62.3217 32.0068C62.3262 15.3373 48.6718 1.6 32 1.70213Z" fill="#00B198"/>
<path fill-rule="evenodd" clip-rule="evenodd" d="M32.2589 11C40.1198 11 46.3352 17.3981 46.3352 25.4415C46.3352 33.3024 40.1198 35.1305 32.2589 53.96C24.2154 35.1305 18 33.3024 18 25.4415C18 17.398 24.3981 11 32.2589 11ZM32.2589 19.7746C35.1839 19.7746 37.7431 22.1512 37.7431 25.2587C37.7431 28.1838 35.1836 30.7429 32.2589 30.7429C29.151 30.7429 26.7747 28.1835 26.7747 25.2587C26.7747 22.1509 29.1514 19.7746 32.2589 19.7746Z" fill="#00B198"/>
</svg>
