<?xml version="1.0" encoding="UTF-8"?><svg id="Layer_2" xmlns="http://www.w3.org/2000/svg" viewBox="0 0 30.94 30.94"><defs><style>.cls-1{fill:#00a993;}</style></defs><g id="Layer_1-2"><g><path class="cls-1" d="M1,15.47C1,7.48,7.48,1,15.47,1V0C6.93,0,0,6.93,0,15.47H1ZM15.47,1c7.99,0,14.47,6.48,14.47,14.47h1C30.94,6.93,24.01,0,15.47,0V1Zm14.47,14.47c0,7.99-6.48,14.47-14.47,14.47v1c8.54,0,15.47-6.93,15.47-15.47h-1Zm-14.47,14.47c-7.99,0-14.47-6.48-14.47-14.47H0c0,8.54,6.93,15.47,15.47,15.47v-1Z"/><path class="cls-1" d="M15.47,0C6.93,0,0,6.93,0,15.47s6.93,15.47,15.47,15.47,15.47-6.93,15.47-15.47S24.01,0,15.47,0Zm3.56,15.5h-2.25v8.14h-3.37V15.5h-1.68v-2.81h1.68v-1.68c0-2.29,.95-3.65,3.65-3.65h2.25v2.81h-1.41c-1.05,0-1.12,.39-1.12,1.12v1.4h2.54l-.3,2.81Z"/></g></g></svg>