<svg width="100" height="101" viewBox="0 0 100 101" fill="none" xmlns="http://www.w3.org/2000/svg">
<path d="M0 54.4007V46.5993C0.177305 45.2553 0.326241 43.906 0.54078 42.5656C3.8422 21.8422 19.9397 5.24114 40.4965 1.3227C42.3546 0.968085 44.2376 0.815603 46.0993 0.5H53.9007C55.2447 0.677305 56.594 0.829787 57.9326 1.04433C78.7004 4.3617 95.1915 20.3812 99.1879 41.0851C99.5425 42.9131 99.6809 44.7677 100 46.5993V54.4007C99.844 55.539 99.6933 56.6791 99.5319 57.8174C96.6312 78.3493 80.6738 95.3067 60.3706 99.5018C58.2287 99.945 56.0567 100.163 53.9007 100.5H46.0993C44.7553 100.323 43.406 100.17 42.0674 99.9575C21.6312 96.6986 5.19149 81.0195 0.978723 60.7837C0.531915 58.672 0.324468 56.5284 0 54.4007ZM50 3.15957C24.0337 3.00887 2.65957 24.3652 2.63475 50.445C2.60638 76.5727 23.9876 97.8564 49.9752 97.8706C76.0479 97.8848 97.3706 76.5567 97.3777 50.5106C97.3848 24.4645 76.0496 3 50 3.15957Z" fill="#ECECEC"/>
<path d="M78.3967 25.6836C78.3465 26.1998 78.2973 26.7161 78.2459 27.2323C78.0005 29.6783 77.4329 32.0811 76.5578 34.3782C74.8871 38.7915 72.2625 42.5641 68.8367 45.7899C67.7765 46.7877 66.6532 47.7127 65.4334 48.5145C65.1906 48.6735 65.0658 48.8371 65.0322 49.1464C64.8449 50.8576 64.3021 52.4699 63.5743 54.0215C62.1041 57.1554 60.0802 59.9112 57.7817 62.4785C57.6025 62.6791 57.414 62.8722 57.2273 63.0665C57.2105 63.0832 57.1764 63.0838 57.1365 63.096C57.0787 62.893 57.1614 62.7104 57.1909 62.5277C57.4533 60.9188 57.4522 59.3088 57.2487 57.6948C57.1058 56.577 56.8634 55.4742 56.5243 54.3996C56.4509 54.1683 56.3856 54.0909 56.1312 54.2262C54.5796 55.0436 52.8938 55.4471 51.1861 55.761C50.608 55.8674 50.0299 55.9564 49.4449 56.0188C49.2952 56.0345 49.1859 56.0084 49.0819 55.9032C48.7304 55.5465 48.3771 55.191 48.0187 54.8413C47.891 54.7164 47.884 54.6343 48.0436 54.5297C50.2589 53.0804 52.2556 51.3501 54.2686 49.6447C55.3404 48.7354 56.4191 47.8306 57.3406 46.7594C58.0095 45.9813 58.6124 45.1604 58.9841 44.1926C59.2269 43.5614 59.335 42.9162 59.1905 42.2404C59.1258 41.9375 58.9593 41.7808 58.6569 41.7201C57.8407 41.5496 57.0885 41.7554 56.3624 42.0959C55.1305 42.674 54.1119 43.5411 53.1893 44.5239C51.3902 46.4316 49.7322 48.4608 48.102 50.5136C47.508 51.2477 46.9546 52.0137 46.444 52.8081C46.3145 53.015 46.2197 53.0561 46.0393 52.8613C45.7379 52.5371 45.4244 52.224 45.0987 51.9218C44.9294 51.7652 44.8872 51.5918 44.9155 51.3779C45.1039 49.9644 45.3525 48.5631 45.7578 47.1936C46.0069 46.3513 46.3006 45.5263 46.718 44.7517C46.8163 44.569 46.7966 44.4892 46.5908 44.421C45.3647 44.0151 44.0975 43.7458 42.8124 43.618C41.8348 43.5192 40.8561 43.4694 39.8721 43.5533C39.2865 43.6024 38.7049 43.6689 38.1263 43.766C38.0251 43.7833 37.9245 43.8279 37.8164 43.7781C37.8274 43.6625 37.921 43.6169 37.9898 43.5556C40.5057 41.2143 43.2373 39.1724 46.3145 37.6202C47.9129 36.8109 49.5773 36.1686 51.3625 35.9437C51.9683 35.868 52.3186 35.6252 52.6539 35.1373C54.2032 32.8827 56.0879 30.9356 58.1991 29.2031C61.2295 26.7172 64.605 24.8719 68.3609 23.7342C70.1189 23.1968 71.9262 22.836 73.7558 22.6572C74.3188 22.6029 74.8842 22.5578 75.4484 22.504C76.3734 22.504 77.2984 22.5075 78.2233 22.5C78.3678 22.5 78.4014 22.533 78.4002 22.6775C78.3933 23.6793 78.3967 24.6812 78.3967 25.6836ZM66.1584 40.7027C66.9281 40.7038 67.6905 40.5531 68.402 40.2593C69.1134 39.9654 69.7599 39.5342 70.3045 38.9902C70.8491 38.4462 71.281 37.8001 71.5757 37.089C71.8703 36.3779 72.0218 35.6157 72.0215 34.8459C72.0215 31.5935 69.3298 28.8851 66.0919 28.8822C62.8539 28.8793 60.2039 31.5351 60.2057 34.7673C60.2074 37.9995 62.9146 40.7055 66.1584 40.7027Z" fill="#ECECEC"/>
<path d="M73.024 51.6069C72.9316 57.3249 71.0712 62.3781 67.2772 66.6809C64.134 70.2454 60.2365 72.5914 55.6296 73.7534C53.6478 74.2542 51.6063 74.4785 49.563 74.4199C47.0363 74.3576 44.5373 73.8775 42.1674 72.9989C41.939 72.914 41.9153 72.8434 42.098 72.6781C42.7046 72.1274 43.3054 71.571 43.9005 71.0091C44.0624 70.8559 44.219 70.8762 44.404 70.9305C46.3367 71.4997 48.3439 71.7754 50.3585 71.7485C53.5438 71.7127 56.5742 71.0114 59.3838 69.5142C65.2769 66.3733 68.8334 61.4947 70.0671 54.9316C70.2228 54.0598 70.3142 53.1777 70.3405 52.2925C70.3387 52.2115 70.3594 52.1316 70.4002 52.0616C70.441 51.9917 70.5004 51.9343 70.5717 51.896C71.2926 51.4502 72.0072 50.9935 72.7263 50.5449C72.9668 50.3946 73.0154 50.4212 73.0235 50.7137C73.0316 51.0063 73.024 51.3086 73.024 51.6069Z" fill="#ECECEC"/>
<path d="M27.043 50.9426C27.1442 45.5663 29.0189 40.4749 32.8558 36.1392C35.5376 33.1082 38.8102 30.9548 42.6396 29.6523C44.3539 29.0674 46.1338 28.6959 47.939 28.5464C48.8692 28.4655 49.803 28.4348 50.7364 28.4545C51.0671 28.4632 51.0902 28.5054 50.9209 28.7765C50.4815 29.4789 50.0358 30.1772 49.601 30.8819C49.4947 31.0554 49.3698 31.1282 49.1594 31.138C44.3282 31.3629 40.0716 33.0388 36.462 36.2693C32.9252 39.4344 30.7717 43.3851 29.9873 48.0625C29.4816 51.0457 29.6665 54.1051 30.5278 57.0057C30.6076 57.2774 30.5815 57.4682 30.3775 57.6763C29.8341 58.2353 29.3115 58.8152 28.7894 59.395C28.6305 59.5719 28.5582 59.5436 28.4836 59.3337C27.8465 57.6177 27.4195 55.8309 27.2118 54.0123C27.0981 52.993 27.0417 51.9682 27.043 50.9426Z" fill="#ECECEC"/>
<path d="M45.1445 55.6689C45.6215 54.8561 46.1452 54.0721 46.6892 53.3027C48.4482 50.8052 50.3394 48.4034 52.3546 46.1077C53.2853 45.0515 54.2768 44.0531 55.4284 43.2299C55.988 42.8304 56.573 42.4812 57.2615 42.3454C58.1183 42.1766 58.6362 42.65 58.5333 43.5201C58.4605 44.119 58.1743 44.6341 57.8512 45.1284C57.0736 46.3152 56.0851 47.3188 55.0353 48.2559C52.3099 50.6893 49.42 52.9321 46.3863 54.9682C45.9967 55.2307 45.5931 55.4729 45.196 55.7244L45.1445 55.6689Z" fill="#ECECEC"/>
<path d="M22 77.9056C22.481 77.3584 22.9627 76.8109 23.4453 76.2633C26.5443 72.7438 29.6436 69.2245 32.7434 65.7054C35.6648 62.389 38.5871 59.0732 41.5103 55.758C42.2869 54.8766 43.0621 53.9939 43.836 53.1098C44.0858 52.8253 44.0846 52.8242 44.3598 53.0982C44.5708 53.3092 44.7731 53.53 44.9957 53.7283C45.1604 53.8752 45.1419 53.9856 44.9991 54.133C44.4673 54.6776 43.9435 55.2314 43.4157 55.7771C41.1361 58.1423 38.8568 60.5064 36.578 62.8693C33.5267 66.0396 30.4748 69.2102 27.422 72.3813C25.7397 74.1303 24.0592 75.8809 22.3804 77.6334C22.2752 77.7438 22.1879 77.8715 22.0913 77.9906L22 77.9056Z" fill="#ECECEC"/>
<path d="M23.1016 78.5C23.149 78.359 23.2449 78.2936 23.323 78.2185C27.2618 74.4227 31.2011 70.6265 35.1411 66.8299C37.1113 64.933 39.0826 63.037 41.0551 61.142C42.9084 59.3622 44.7609 57.5811 46.6123 55.7986C46.8008 55.6159 46.9141 55.6298 47.0748 55.8136C47.2731 56.0378 47.4855 56.249 47.7107 56.4461C47.8998 56.612 47.9096 56.7189 47.7078 56.8947C46.4794 57.9624 45.263 59.0429 44.0415 60.1187C41.6856 62.1922 39.3294 64.266 36.9731 66.3403C34.2919 68.7012 31.6104 71.062 28.9288 73.4226C27.0789 75.052 25.229 76.6821 23.3791 78.3127C23.3045 78.3792 23.2409 78.4671 23.1016 78.5Z" fill="#ECECEC"/>
<path d="M66.1305 30.2402C68.6816 30.2691 70.7391 32.2555 70.7599 34.8795C70.7807 37.4174 68.6452 39.5147 66.1091 39.5043C63.588 39.4927 61.5004 37.3884 61.5039 34.8621C61.5074 32.3358 63.6053 30.2431 66.1305 30.2402Z" fill="#ECECEC"/>
</svg>
