<svg width="100" height="101" viewBox="0 0 100 101" fill="none" xmlns="http://www.w3.org/2000/svg">
<path d="M0 54.4007V46.5993C0.177305 45.2553 0.326241 43.906 0.54078 42.5656C3.8422 21.8422 19.9397 5.24114 40.4965 1.3227C42.3546 0.968085 44.2376 0.815603 46.0993 0.5H53.9007C55.2447 0.677305 56.594 0.829787 57.9326 1.04433C78.7004 4.3617 95.1915 20.3812 99.1879 41.0851C99.5425 42.9131 99.6809 44.7677 100 46.5993V54.4007C99.844 55.539 99.6933 56.6791 99.5319 57.8174C96.6312 78.3493 80.6738 95.3067 60.3706 99.5018C58.2287 99.945 56.0567 100.163 53.9007 100.5H46.0993C44.7553 100.323 43.406 100.17 42.0674 99.9575C21.6312 96.6986 5.19149 81.0195 0.978723 60.7837C0.531915 58.672 0.324468 56.5284 0 54.4007ZM50 3.15957C24.0337 3.00887 2.65957 24.3652 2.63475 50.445C2.60638 76.5727 23.9876 97.8564 49.9752 97.8706C76.0479 97.8848 97.3706 76.5567 97.3777 50.5106C97.3848 24.4645 76.0496 3 50 3.15957Z" fill="#ECECEC"/>
<path d="M79.0368 47.5101C78.9843 48.0078 78.8892 48.5002 78.7524 48.982C77.8927 51.5616 76.1485 53.197 73.4508 53.8142C72.9625 53.9211 72.4629 53.9698 71.9628 53.9592H49.4904C49.2064 53.9727 48.9217 53.9593 48.6402 53.9191C48.587 53.9191 48.5151 53.9191 48.5026 53.845C48.4901 53.771 48.5464 53.7648 48.5808 53.7309C49.6394 52.7249 50.7002 51.7159 51.763 50.7038C51.7998 50.6674 51.8438 50.6388 51.8921 50.6197C51.9405 50.6006 51.9923 50.5915 52.0443 50.5927H71.9097C72.7989 50.6157 73.6653 50.3132 74.3422 49.7436C75.0191 49.174 75.4587 48.3773 75.5764 47.507C75.6035 47.3263 75.615 47.1435 75.6108 46.9609C75.6108 41.818 75.6108 36.666 75.6108 31.5046C75.6311 30.636 75.3263 29.7904 74.7549 29.1295C74.1834 28.4686 73.3853 28.0388 72.513 27.9221C72.3057 27.8961 72.0966 27.8868 71.8878 27.8944C64.4606 27.8944 57.0333 27.8944 49.6092 27.8944C48.8435 27.8781 48.0918 28.0988 47.4595 28.5254C46.8272 28.952 46.3459 29.5633 46.0832 30.2734C45.9551 30.6428 45.8917 31.031 45.8956 31.4213C45.8956 34.0688 45.8956 36.7164 45.8956 39.3639C45.9012 39.4885 45.8779 39.6128 45.8275 39.7272C45.7771 39.8416 45.701 39.9432 45.6049 40.0242C44.6234 40.9314 43.6637 41.8602 42.6915 42.7797C42.6321 42.8353 42.5821 42.9525 42.4852 42.9063C42.3883 42.86 42.4477 42.7612 42.4477 42.6841C42.4477 38.901 42.4477 35.1149 42.4477 31.3287C42.4697 29.7571 43.0329 28.2396 44.0448 27.026C45.0566 25.8124 46.4568 24.9749 48.015 24.6513C48.5035 24.5517 49.001 24.5011 49.4998 24.5001C56.9896 24.5001 64.4804 24.5001 71.9722 24.5001C73.6867 24.4907 75.3456 25.1003 76.6364 26.2143C77.9272 27.3282 78.7609 28.8695 78.9806 30.5481C78.9821 30.6988 79.001 30.8489 79.0368 30.9955V47.5101Z" fill="#ECECEC"/>
<path d="M32.4994 74.5001C31.8429 74.4432 31.1961 74.2969 30.5748 74.0648C27.7107 72.9007 25.9625 70.7272 25.5459 67.4993C25.1933 64.8422 25.999 62.5397 27.805 60.6662C29.002 59.4054 30.5785 58.6304 32.2592 58.4766C34.1181 58.2597 35.9867 58.7845 37.5008 59.9487C39.0149 61.1129 40.0663 62.8332 40.4501 64.7744C40.7168 65.9786 40.7074 67.2331 40.4228 68.4326C40.1382 69.6322 39.5866 70.7419 38.8144 71.6689C37.6213 73.1856 35.9354 74.1728 34.0895 74.4356C33.9223 74.4647 33.749 74.4776 33.5787 74.5001H32.4994Z" fill="#ECECEC"/>
<path d="M70.0127 74.4937C69.2613 74.431 68.5229 74.2507 67.8214 73.9587C65.1156 72.763 63.4508 70.6424 63.0491 67.5613C62.6382 64.3933 63.7399 61.8214 66.1565 59.9199C67.5355 58.8755 69.2064 58.3533 70.8999 58.4375C72.5934 58.5217 74.2107 59.2074 75.4912 60.384C76.4188 61.2097 77.142 62.2629 77.5976 63.452C78.0533 64.6411 78.2276 65.9301 78.1056 67.2068C77.9789 68.946 77.2961 70.5876 76.1699 71.8606C74.9726 73.2717 73.3403 74.1856 71.565 74.4389L71.0993 74.5001L70.0127 74.4937Z" fill="#ECECEC"/>
<path d="M51.2811 74.5001C50.7276 74.4395 50.1796 74.3319 49.6424 74.1782C48.2465 73.7281 47.001 72.8667 46.052 71.6948C45.103 70.5229 44.4899 69.0893 44.2846 67.5621C44.0384 65.6573 44.4488 63.7223 45.4409 62.111C46.433 60.4996 47.9406 59.3193 49.6881 58.7858C50.912 58.3782 52.2159 58.3184 53.4686 58.6123C54.7214 58.9061 55.8789 59.5434 56.8248 60.4599C57.5685 61.1235 58.1773 61.9394 58.6144 62.8585C59.0515 63.7776 59.3079 64.7808 59.3681 65.8075C59.5309 67.9104 58.9036 69.9965 57.6222 71.6143C56.3407 73.2321 54.508 74.2515 52.5208 74.4518C52.4665 74.4606 52.4126 74.4724 52.3594 74.4873L51.2811 74.5001Z" fill="#ECECEC"/>
<path d="M30.3526 49.4999C28.4985 49.4955 26.6874 48.9414 25.1482 47.9077C23.6091 46.8741 22.411 45.4072 21.7054 43.6927C20.9998 41.9781 20.8185 40.0928 21.1843 38.2752C21.5501 36.4576 22.4467 34.7893 23.7606 33.4812C25.0745 32.1731 26.7468 31.2839 28.566 30.9262C30.3853 30.5684 32.2697 30.7581 33.9811 31.4713C35.6925 32.1845 37.154 33.3891 38.1809 34.9328C39.2077 36.4765 39.7538 38.2901 39.75 40.1441C39.7496 41.3762 39.5059 42.596 39.033 43.7336C38.5601 44.8712 37.8672 45.9043 36.9941 46.7735C36.121 47.6427 35.0849 48.331 33.9452 48.7989C32.8055 49.2667 31.5846 49.505 30.3526 49.4999Z" fill="#ECECEC"/>
<path d="M22.8409 62.8927C22.7599 62.8121 22.7911 62.719 22.7911 62.6352C22.7911 59.4712 22.7911 56.3061 22.7911 53.1399C22.7911 51.8619 23.6174 51.046 24.9115 51.046C28.9695 51.046 33.0233 51.046 37.0729 51.046C37.1797 51.0511 37.2864 51.0335 37.3858 50.9945C37.4853 50.9555 37.5753 50.8958 37.6498 50.8196C39.8243 48.735 41.9978 46.6556 44.1702 44.5814C45.2398 43.5577 46.3187 42.5372 47.3883 41.5135C47.7104 41.2059 48.0902 40.9645 48.5061 40.8029C48.9219 40.6414 49.3657 40.5629 49.8121 40.572C50.2584 40.5811 50.6986 40.6775 51.1075 40.8558C51.5164 41.0341 51.886 41.2908 52.1952 41.6112C52.5043 41.9316 52.7471 42.3094 52.9094 42.7231C53.0718 43.1368 53.1507 43.5783 53.1416 44.0223C53.1325 44.4664 53.0355 44.9043 52.8563 45.311C52.677 45.7178 52.419 46.0854 52.0969 46.393C50.5939 47.8199 49.0919 49.25 47.591 50.6831C45.6431 52.5443 43.6921 54.4117 41.7379 56.2854C41.6868 56.3348 41.6476 56.395 41.6233 56.4617C41.599 56.5283 41.5902 56.5995 41.5976 56.67V60.2188C41.5976 60.2839 41.5976 60.3459 41.5976 60.4111C41.5976 60.4762 41.5976 60.5383 41.5415 60.5538C41.4853 60.5693 41.4479 60.5041 41.4167 60.4576C41.1381 60.0474 40.8329 59.6557 40.5031 59.285C39.0288 57.6086 37.0392 56.4635 34.8433 56.0279C32.518 55.5192 30.0866 55.849 27.983 56.9585C25.6523 58.1445 23.8668 60.1738 22.9937 62.629C22.9735 62.7313 22.9198 62.824 22.8409 62.8927Z" fill="#ECECEC"/>
</svg>
