<svg width="638" height="491" viewBox="0 0 638 491" fill="none" xmlns="http://www.w3.org/2000/svg">
<path d="M255.643 180.809C279.978 165.712 307.775 157.1 336.383 155.794C364.991 154.489 393.457 160.533 419.066 173.351C419.137 171.418 419.177 169.454 419.177 167.491C419.177 145.496 414.845 123.716 406.428 103.395C398.011 83.074 385.673 64.6099 370.12 49.057C354.567 33.504 336.103 21.1667 315.782 12.7495C295.461 4.33228 273.682 0 251.686 0C229.691 0 207.911 4.33228 187.59 12.7495C167.269 21.1667 148.805 33.504 133.252 49.057C117.699 64.6099 105.362 83.074 96.9448 103.395C88.5276 123.716 84.1953 145.496 84.1953 167.491C84.1953 170.841 84.3066 174.181 84.4989 177.48C110.693 162.604 140.412 155.064 170.53 155.651C200.647 156.239 230.05 164.933 255.643 180.819V180.809Z" fill="url(#paint0_linear_878_9114)"/>
<path d="M176.514 323.121C176.514 321.158 176.564 319.215 176.625 317.262C150.366 304.083 128.034 284.231 111.87 259.696C95.7054 235.162 86.277 206.809 84.5304 177.48C65.2013 188.503 48.262 203.266 34.7016 220.907C21.1411 238.549 11.2313 258.715 5.55072 280.229C-0.129834 301.743 -1.46726 324.173 1.61653 346.209C4.70033 368.245 12.1435 389.447 23.5115 408.574C34.8795 427.702 49.9445 444.374 67.8268 457.615C85.709 470.857 106.05 480.403 127.663 485.696C149.275 490.989 171.725 491.924 193.703 488.444C215.68 484.965 236.744 477.143 255.665 465.433C231.45 450.409 211.471 429.453 197.62 404.549C183.769 379.645 176.504 351.618 176.514 323.121Z" fill="url(#paint1_linear_878_9114)"/>
<path d="M176.625 317.262C177.571 289.775 185.275 262.946 199.058 239.146C212.84 215.347 232.275 195.31 255.644 180.809C230.049 164.928 200.646 156.237 170.529 155.651C140.412 155.065 110.694 162.606 84.5 177.48C86.2526 206.811 95.6868 235.165 111.856 259.699C128.026 284.233 150.362 304.084 176.625 317.262Z" fill="url(#paint2_linear_878_9114)"/>
<path d="M419.067 173.34C418.078 201.925 409.784 229.78 394.975 254.249C380.166 278.718 359.336 298.987 334.472 313.122C334.664 316.421 334.775 319.751 334.775 323.111C334.789 351.606 327.528 379.633 313.68 404.537C299.833 429.441 279.857 450.398 255.645 465.422C274.88 477.371 296.337 485.296 318.722 488.719C341.106 492.141 363.951 490.99 385.878 485.335C407.805 479.68 428.357 469.638 446.294 455.816C464.23 441.995 479.179 424.68 490.235 404.919C501.292 385.157 508.227 363.36 510.623 340.842C513.018 318.325 510.823 295.556 504.172 273.911C497.52 252.266 486.548 232.194 471.921 214.908C457.294 197.623 439.313 183.482 419.067 173.34Z" fill="url(#paint3_linear_878_9114)"/>
<path d="M255.645 180.809C278.415 194.946 297.459 214.343 311.176 237.369C324.893 260.395 332.882 286.377 334.472 313.132C359.334 298.995 380.163 278.726 394.971 254.257C409.78 229.788 418.075 201.934 419.067 173.35C393.458 160.533 364.992 154.488 336.384 155.794C307.776 157.1 279.98 165.712 255.645 180.809Z" fill="url(#paint4_linear_878_9114)"/>
<path d="M334.776 323.121C334.776 319.771 334.665 316.432 334.472 313.132C310.519 326.732 283.586 334.223 256.051 334.943C228.515 335.663 201.227 329.591 176.596 317.261C176.515 319.205 176.484 321.158 176.484 323.121C176.47 351.616 183.73 379.644 197.578 404.548C211.426 429.452 231.402 450.409 255.615 465.433C279.833 450.412 299.815 429.457 313.668 404.552C327.521 379.648 334.787 351.619 334.776 323.121Z" fill="url(#paint5_linear_878_9114)"/>
<path d="M255.644 180.809C232.277 195.311 212.842 215.348 199.06 239.147C185.278 262.947 177.572 289.775 176.625 317.261C201.256 329.59 228.545 335.663 256.08 334.943C283.615 334.223 310.549 326.732 334.502 313.132C332.909 286.374 324.915 260.39 311.193 237.364C297.47 214.338 278.42 194.943 255.644 180.809Z" fill="url(#paint6_radial_878_9114)"/>
<path d="M417.489 414.963C417.688 414.831 417.9 414.783 418.125 414.818C418.343 414.842 418.517 414.953 418.649 415.152C418.711 415.245 418.757 415.366 418.788 415.514L421.407 429.39C421.437 429.588 421.415 429.77 421.341 429.937C421.271 430.085 421.166 430.205 421.025 430.298C420.889 430.372 420.739 430.412 420.576 430.419C420.405 430.415 420.244 430.362 420.093 430.261L408.359 422.455C408.304 422.424 408.256 422.389 408.213 422.35C408.163 422.299 408.118 422.245 408.08 422.186C407.932 421.964 407.896 421.745 407.97 421.527C408.049 421.29 408.164 421.121 408.316 421.021C408.631 420.812 408.967 420.824 409.324 421.058L420.133 428.267L419.73 428.534L417.131 415.83C417.078 415.445 417.197 415.156 417.489 414.963Z" fill="#1EDBB3"/>
<path d="M431.446 421.478C431.597 421.662 431.656 421.877 431.622 422.123C431.599 422.359 431.495 422.553 431.311 422.705C431.106 422.874 430.89 422.942 430.664 422.91C430.438 422.878 430.249 422.77 430.098 422.586L421.847 412.553C421.687 412.358 421.623 412.147 421.655 411.922C421.678 411.685 421.787 411.486 421.982 411.326C422.166 411.175 422.376 411.111 422.613 411.134C422.841 411.146 423.035 411.25 423.195 411.445L431.446 421.478Z" fill="#1EDBB3"/>
<path d="M440.651 414.663C439.915 415.389 439.16 415.917 438.387 416.248C437.614 416.578 436.733 416.76 435.745 416.792C435.607 416.791 435.474 416.776 435.345 416.745C435.217 416.695 435.104 416.62 435.006 416.52C434.849 416.361 434.767 416.168 434.758 415.941C434.75 415.693 434.831 415.487 435 415.32C435.139 415.183 435.318 415.115 435.535 415.116C436.296 415.112 436.998 414.988 437.642 414.746C438.296 414.494 438.906 414.088 439.473 413.529C439.911 413.097 440.235 412.64 440.446 412.157C440.667 411.665 440.76 411.191 440.723 410.737C440.687 410.282 440.507 409.89 440.183 409.562C439.781 409.174 439.338 408.963 438.854 408.93C438.38 408.887 437.861 408.977 437.296 409.201C436.731 409.404 436.131 409.701 435.496 410.092C434.931 410.434 434.376 410.716 433.831 410.94C433.296 411.153 432.776 411.283 432.272 411.329C431.758 411.365 431.259 411.297 430.776 411.126C430.294 410.934 429.831 410.615 429.39 410.167C428.831 409.6 428.49 408.955 428.366 408.233C428.243 407.511 428.332 406.776 428.634 406.027C428.926 405.268 429.415 404.551 430.102 403.874C430.709 403.275 431.379 402.811 432.112 402.48C432.856 402.14 433.563 401.982 434.235 402.006C434.62 401.999 434.901 402.085 435.078 402.264C435.225 402.413 435.297 402.616 435.296 402.873C435.294 403.11 435.214 403.307 435.054 403.464C434.945 403.572 434.806 403.631 434.638 403.639C434.283 403.617 433.902 403.659 433.496 403.765C433.09 403.87 432.689 404.03 432.292 404.245C431.896 404.46 431.543 404.719 431.235 405.023C430.777 405.474 430.443 405.941 430.232 406.424C430.011 406.896 429.924 407.355 429.97 407.8C430.016 408.225 430.206 408.607 430.54 408.945C430.913 409.323 431.331 409.529 431.795 409.562C432.249 409.585 432.739 409.494 433.264 409.291C433.78 409.077 434.32 408.809 434.885 408.487C435.491 408.126 436.076 407.824 436.641 407.581C437.206 407.318 437.75 407.154 438.274 407.088C438.798 407.023 439.316 407.091 439.829 407.292C440.341 407.474 440.853 407.823 441.363 408.34C441.902 408.888 442.229 409.527 442.342 410.259C442.455 410.991 442.366 411.746 442.074 412.525C441.782 413.283 441.308 413.996 440.651 414.663Z" fill="#1EDBB3"/>
<path d="M448.093 404.818C448.276 404.971 448.373 405.172 448.385 405.419C448.406 405.656 448.341 405.866 448.188 406.049C448.017 406.253 447.817 406.36 447.59 406.37C447.362 406.381 447.156 406.31 446.974 406.157L437.009 397.822C436.816 397.66 436.714 397.466 436.704 397.238C436.683 397.001 436.753 396.786 436.915 396.592C437.068 396.409 437.262 396.308 437.499 396.286C437.725 396.256 437.935 396.322 438.129 396.484L448.093 404.818Z" fill="#1EDBB3"/>
<path d="M444.544 386.228C445.235 385.204 446.032 384.599 446.936 384.414C447.836 384.209 448.769 384.432 449.734 385.083C450.246 385.428 450.638 385.862 450.912 386.385C451.185 386.908 451.297 387.483 451.247 388.109C451.204 388.724 450.975 389.365 450.559 390.032L450.047 389.737C450.321 389.33 450.662 388.95 451.069 388.599C451.475 388.247 451.928 387.977 452.428 387.789C452.935 387.589 453.472 387.52 454.04 387.582C454.615 387.632 455.211 387.865 455.828 388.281C456.491 388.728 456.975 389.215 457.279 389.742C457.572 390.261 457.732 390.801 457.76 391.362C457.785 391.903 457.702 392.439 457.512 392.971C457.33 393.492 457.086 393.979 456.78 394.432L453.684 399.021C453.551 399.219 453.368 399.34 453.134 399.386C452.908 399.419 452.696 399.37 452.498 399.236L441.699 391.95C441.501 391.816 441.381 391.643 441.34 391.428C441.294 391.195 441.338 390.979 441.472 390.781L444.544 386.228ZM445.781 387.367L443.25 391.118L443.078 390.697L447.422 393.628L447.066 393.667L449.608 389.898C449.953 389.386 450.085 388.84 450.002 388.26C449.916 387.66 449.547 387.141 448.896 386.701C448.315 386.309 447.753 386.175 447.211 386.301C446.658 386.418 446.181 386.774 445.781 387.367ZM451.074 390.735L448.508 394.538L448.469 394.334L453.022 397.406L452.771 397.44L455.384 393.567C455.847 392.88 456.049 392.204 455.991 391.539C455.94 390.861 455.548 390.275 454.816 389.781C454.246 389.396 453.731 389.218 453.272 389.247C452.801 389.268 452.381 389.425 452.014 389.719C451.654 390.001 451.341 390.34 451.074 390.735Z" fill="#1EDBB3"/>
<path d="M461.637 384.695C461.847 384.81 461.982 384.987 462.042 385.229C462.11 385.457 462.086 385.676 461.972 385.886C461.844 386.12 461.669 386.265 461.447 386.32C461.225 386.375 461.009 386.345 460.8 386.231L449.368 379.995C449.146 379.874 449.008 379.703 448.953 379.481C448.886 379.252 448.912 379.027 449.034 378.805C449.148 378.595 449.319 378.457 449.548 378.389C449.764 378.315 449.984 378.339 450.206 378.46L461.637 384.695Z" fill="#1EDBB3"/>
<path d="M467.492 370.771C467.589 370.554 467.749 370.402 467.971 370.318C468.18 370.227 468.394 370.23 468.611 370.328C468.829 370.425 468.973 370.582 469.045 370.798C469.117 371.015 469.105 371.232 469.008 371.449L466.037 378.088C465.939 378.305 465.78 378.456 465.557 378.541C465.341 378.613 465.124 378.6 464.907 378.503L453.03 373.188C452.813 373.091 452.668 372.934 452.596 372.718C452.511 372.495 452.52 372.269 452.623 372.039C452.721 371.821 452.88 371.67 453.103 371.586C453.312 371.495 453.525 371.498 453.743 371.596L465.235 376.739L464.718 376.968L467.492 370.771Z" fill="#1EDBB3"/>
<path d="M470.102 365.704C470.327 365.783 470.489 365.937 470.587 366.164C470.69 366.378 470.702 366.598 470.623 366.823C470.535 367.074 470.386 367.245 470.176 367.334C469.967 367.424 469.749 367.429 469.525 367.351L457.267 363.049C457.029 362.965 456.865 362.818 456.776 362.609C456.673 362.394 456.663 362.168 456.746 361.93C456.825 361.705 456.972 361.541 457.186 361.438C457.387 361.331 457.607 361.319 457.845 361.402L470.102 365.704Z" fill="#1EDBB3"/>
<path d="M474.218 354.762C474.156 355.006 474.022 355.189 473.818 355.311C473.613 355.432 473.396 355.463 473.165 355.404L460.578 352.194L461.019 350.462L473.607 353.673C473.837 353.732 474.013 353.864 474.135 354.068C474.256 354.273 474.284 354.504 474.218 354.762ZM460.303 356.245C460.244 356.476 460.126 356.656 459.949 356.784C459.762 356.895 459.552 356.922 459.322 356.863C459.091 356.804 458.926 356.682 458.829 356.498C458.721 356.297 458.697 356.081 458.755 355.851L461.171 346.38C461.23 346.149 461.355 345.971 461.546 345.846C461.723 345.718 461.927 345.683 462.158 345.742C462.403 345.804 462.572 345.934 462.666 346.132C462.76 346.329 462.778 346.544 462.719 346.774L460.303 356.245Z" fill="#1EDBB3"/>
<path d="M462.615 335.244C462.646 335.008 462.763 334.826 462.964 334.697C463.153 334.553 463.358 334.496 463.58 334.525C463.664 334.537 463.752 334.563 463.846 334.603C463.927 334.628 464.006 334.674 464.082 334.741L470.163 340.477L469.178 340.069L475.907 340.972C476.143 341.004 476.334 341.114 476.478 341.303C476.624 341.478 476.682 341.677 476.652 341.899C476.619 342.149 476.508 342.346 476.319 342.49C476.131 342.621 475.92 342.67 475.684 342.639L469.121 341.758L469.682 341.685L462.72 345.523C462.598 345.592 462.485 345.64 462.383 345.669C462.268 345.682 462.162 345.681 462.065 345.668C461.828 345.637 461.647 345.513 461.52 345.298C461.38 345.082 461.323 344.876 461.349 344.682C461.386 344.404 461.549 344.192 461.837 344.047L468.332 340.528L468.216 340.916L462.939 335.987C462.685 335.77 462.577 335.522 462.615 335.244Z" fill="#1EDBB3"/>
<path d="M227.307 41.553C227.529 41.503 227.735 41.5324 227.924 41.641C228.111 41.7366 228.229 41.8956 228.279 42.1179C228.302 42.2226 228.302 42.3461 228.279 42.4887L225.885 55.7828C225.845 55.9704 225.763 56.1262 225.64 56.25C225.526 56.3579 225.391 56.4294 225.234 56.4647C225.088 56.4839 224.94 56.4689 224.792 56.4198C224.64 56.3576 224.514 56.2554 224.414 56.1131L216.591 45.1333C216.553 45.0869 216.521 45.039 216.496 44.9896C216.469 44.9271 216.447 44.8632 216.433 44.7978C216.377 44.5493 216.419 44.3405 216.56 44.1716C216.711 43.9866 216.871 43.875 217.041 43.8368C217.395 43.7576 217.691 43.8834 217.93 44.2144L225.13 54.3449L224.678 54.4462L226.691 42.2064C226.775 41.8442 226.98 41.6264 227.307 41.553Z" fill="#1EDBB3"/>
<path d="M237.111 42.6848L233.599 54.4922C233.562 54.6561 233.482 54.7909 233.359 54.8968C233.236 55.0026 233.102 55.0629 232.957 55.0775C232.706 55.1029 232.514 55.0555 232.382 54.9354C232.25 54.8153 232.174 54.6627 232.156 54.4777C232.133 54.3866 232.136 54.2861 232.165 54.1764L236.037 41.1714C236.085 40.9798 236.17 40.8376 236.295 40.745C236.431 40.6378 236.585 40.5822 236.758 40.5781C236.93 40.5607 237.087 40.5916 237.228 40.6707C237.383 40.7486 237.495 40.8641 237.563 41.0173L243.926 52.8683C243.977 52.97 244.007 53.0737 244.018 53.1794C244.042 53.4173 243.982 53.6169 243.838 53.7782C243.693 53.9264 243.521 54.0105 243.323 54.0305C243.164 54.0465 243.014 54.0149 242.873 53.9358C242.731 53.8567 242.619 53.7345 242.535 53.5694L236.673 42.709L237.111 42.6848ZM234.263 51.1614L234.781 49.5474L240.668 48.9528L241.121 50.4687L234.263 51.1614Z" fill="#1EDBB3"/>
<path d="M257.482 52.1115C257.709 52.1152 257.901 52.1984 258.059 52.3612C258.217 52.5105 258.294 52.6987 258.29 52.9255C258.286 53.1524 258.203 53.3379 258.041 53.4821C257.878 53.6263 257.683 53.6966 257.457 53.6929L250.531 53.5805C250.304 53.5768 250.112 53.4936 249.954 53.3308C249.81 53.1683 249.74 52.9736 249.743 52.7468L249.944 40.356C249.948 40.1291 250.031 39.9436 250.194 39.7994C250.356 39.6419 250.558 39.5651 250.798 39.569C251.025 39.5726 251.217 39.6558 251.375 39.8186C251.532 39.968 251.609 40.1561 251.606 40.383L251.411 52.3734L251.017 52.0066L257.482 52.1115Z" fill="#1EDBB3"/>
<path d="M271.426 41.0318C271.65 41.0568 271.826 41.1566 271.954 41.3313C272.082 41.506 272.133 41.7057 272.108 41.9303L271.234 49.7988C271.121 50.8162 270.782 51.7015 270.216 52.4546C269.664 53.2092 268.966 53.7803 268.12 54.1679C267.276 54.5423 266.352 54.6737 265.347 54.5621C264.33 54.4491 263.444 54.1165 262.689 53.5645C261.949 53.0008 261.393 52.2902 261.02 51.4328C260.647 50.5754 260.517 49.638 260.63 48.6206L261.505 40.7521C261.53 40.5275 261.624 40.344 261.786 40.2016C261.963 40.0606 262.176 40.0041 262.427 40.032C262.639 40.0555 262.815 40.1553 262.956 40.3315C263.11 40.5091 263.175 40.7103 263.15 40.9349L262.275 48.8034C262.195 49.5301 262.288 50.1959 262.555 50.8008C262.822 51.4056 263.215 51.9041 263.733 52.2961C264.266 52.6763 264.863 52.9031 265.524 52.9765C266.197 53.0514 266.836 52.9618 267.44 52.7079C268.044 52.4407 268.55 52.0421 268.957 51.5121C269.377 50.9835 269.627 50.3559 269.708 49.6292L270.582 41.7607C270.607 41.5361 270.694 41.3519 270.844 41.208C270.994 41.0641 271.188 41.0054 271.426 41.0318Z" fill="#1EDBB3"/>
<path d="M279.86 42.5661L286.774 44.2053C286.994 44.2575 287.164 44.3732 287.286 44.5525C287.408 44.7317 287.442 44.9314 287.39 45.1515C287.338 45.3716 287.217 45.5344 287.028 45.64C286.842 45.7326 286.639 45.7528 286.419 45.7006L280.166 44.2179L280.419 43.9293L279.254 48.8424L279.11 48.5827L284.509 49.8628C284.729 49.915 284.9 50.0307 285.022 50.2099C285.143 50.3892 285.178 50.5888 285.126 50.8089C285.073 51.029 284.953 51.1918 284.764 51.2974C284.578 51.39 284.375 51.4103 284.154 51.3581L278.814 50.0918L278.992 49.9493L277.799 54.9789L277.715 54.8153L283.909 56.2842C284.13 56.3364 284.299 56.4586 284.417 56.6508C284.536 56.843 284.572 57.0361 284.526 57.2303C284.474 57.4504 284.353 57.6133 284.164 57.7188C283.975 57.8244 283.77 57.8511 283.55 57.7989L276.637 56.1597C276.417 56.1075 276.248 55.9853 276.129 55.7931C276.024 55.604 275.997 55.3994 276.049 55.1793L278.899 43.1587C278.951 42.9386 279.066 42.7742 279.242 42.6656C279.434 42.5471 279.64 42.5139 279.86 42.5661Z" fill="#1EDBB3"/>
<path d="M51.793 326.029C51.6599 326.264 51.4668 326.391 51.2138 326.412C50.9605 326.446 50.7312 326.376 50.5261 326.202C50.3478 326.07 50.2546 325.906 50.2464 325.71C50.2383 325.513 50.2861 325.319 50.39 325.125C50.684 324.672 50.9159 324.181 51.0859 323.653C51.2699 323.126 51.3706 322.568 51.3882 321.98C51.4129 321.153 51.2884 320.393 51.0147 319.697C50.7551 319.003 50.3736 318.396 49.8704 317.876C49.3672 317.356 48.7626 316.945 48.0566 316.644C47.3506 316.343 46.5634 316.179 45.695 316.153C44.7705 316.125 43.9397 316.248 43.2025 316.52C42.4654 316.793 41.8302 317.173 41.2968 317.662C40.7771 318.165 40.3741 318.749 40.0879 319.413C39.8013 320.092 39.6461 320.83 39.6222 321.628C39.6051 322.203 39.6656 322.758 39.8038 323.295C39.942 323.832 40.1511 324.343 40.431 324.828C40.5232 325.027 40.5523 325.224 40.5185 325.42C40.4846 325.615 40.3815 325.78 40.2093 325.915C39.9801 326.076 39.7401 326.132 39.4893 326.083C39.2524 326.034 39.0813 325.895 38.9759 325.668C38.7763 325.311 38.5921 324.906 38.4234 324.453C38.2687 323.999 38.1496 323.526 38.0662 323.033C37.9824 322.554 37.9478 322.069 37.9624 321.579C37.9925 320.57 38.196 319.623 38.573 318.737C38.9499 317.851 39.4778 317.075 40.1566 316.408C40.8354 315.741 41.6432 315.219 42.5798 314.84C43.5299 314.476 44.5863 314.311 45.7489 314.346C46.8415 314.379 47.8373 314.598 48.7365 315.003C49.6357 315.408 50.4114 315.957 51.0637 316.65C51.7155 317.356 52.2171 318.163 52.5686 319.071C52.9196 319.993 53.0794 320.979 53.048 322.029C53.0263 322.758 52.9071 323.462 52.6905 324.143C52.4735 324.837 52.1744 325.466 51.793 326.029Z" fill="#1EDBB3"/>
<path d="M38.4737 334.396C38.4466 334.131 38.5067 333.893 38.6541 333.681C38.8028 333.482 38.9957 333.371 39.2327 333.347L52.1765 332.023C52.4135 331.999 52.6165 332.055 52.7856 332.193C52.97 332.343 53.0743 332.537 53.0985 332.774L53.6888 338.545C53.7687 339.326 53.6595 340.048 53.3612 340.713C53.0768 341.376 52.6395 341.921 52.0493 342.347C51.4744 342.786 50.7826 343.047 49.9741 343.13C49.3886 343.19 48.8265 343.135 48.2879 342.964C47.7632 342.793 47.2927 342.531 46.8764 342.179C46.474 341.826 46.1496 341.408 45.9031 340.926L46.1906 340.432C46.1276 340.917 45.9689 341.363 45.7147 341.77C45.4744 342.174 45.1433 342.518 44.7214 342.801C44.3135 343.082 43.8175 343.26 43.2334 343.333C42.7205 343.414 42.3128 343.491 42.0104 343.564C41.7079 343.637 41.4704 343.725 41.2977 343.827C41.139 343.928 41.0187 344.06 40.9368 344.223C40.8313 344.431 40.6768 344.574 40.4734 344.651C40.2714 344.742 40.0657 344.728 39.8563 344.608C39.7223 344.538 39.6195 344.428 39.5481 344.281C39.4906 344.132 39.461 343.98 39.4592 343.825C39.4575 343.67 39.4858 343.534 39.5441 343.415C39.6467 343.179 39.8058 342.944 40.0214 342.711C40.251 342.476 40.5886 342.266 41.0344 342.079C41.4802 341.893 42.1004 341.759 42.895 341.678C43.3411 341.632 43.7034 341.524 43.9819 341.355C44.2604 341.186 44.4781 340.973 44.6351 340.718C44.7921 340.462 44.8905 340.185 44.9303 339.885C44.97 339.585 44.9742 339.282 44.9428 338.975L44.4659 334.312L44.8679 334.524L39.4102 335.082C39.1732 335.107 38.9639 335.058 38.7824 334.935C38.6008 334.813 38.498 334.633 38.4737 334.396ZM45.9715 334.158L46.4955 339.281C46.5647 339.682 46.7426 340.044 47.0292 340.367C47.3172 340.704 47.6957 340.961 48.1646 341.139C48.6488 341.329 49.1768 341.394 49.7483 341.336C50.4872 341.26 51.0763 340.961 51.5158 340.437C51.9566 339.927 52.1407 339.316 52.068 338.605L51.5632 333.67L51.9777 333.797L45.6207 334.447L45.9715 334.158Z" fill="#1EDBB3"/>
<path d="M54.8896 346.252L56.55 353.549C56.6029 353.781 56.5728 353.996 56.4598 354.194C56.3468 354.393 56.1742 354.518 55.9419 354.571C55.7096 354.624 55.4996 354.585 55.312 354.456C55.1381 354.323 55.0247 354.14 54.9718 353.908L53.47 347.308L53.8604 347.413L48.6749 348.593L48.8537 348.337L50.1503 354.035C50.2032 354.267 50.1731 354.483 50.0601 354.681C49.9471 354.879 49.7745 355.004 49.5422 355.057C49.3099 355.11 49.1 355.072 48.9123 354.942C48.7384 354.809 48.625 354.626 48.5721 354.394L47.2895 348.758L47.5066 348.859L42.1981 350.067L42.3136 349.912L43.8015 356.45C43.8543 356.682 43.8174 356.899 43.6908 357.1C43.5641 357.301 43.3983 357.425 43.1934 357.472C42.9611 357.525 42.7511 357.486 42.5635 357.357C42.3759 357.227 42.2557 357.046 42.2028 356.814L40.5424 349.517C40.4895 349.285 40.5264 349.068 40.6531 348.867C40.7828 348.679 40.9639 348.559 41.1961 348.506L53.8832 345.619C54.1155 345.566 54.3239 345.598 54.5084 345.714C54.7096 345.84 54.8367 346.02 54.8896 346.252Z" fill="#1EDBB3"/>
<path d="M60.0756 364.259C60.4355 365.216 60.5674 366.125 60.4713 366.984C60.3932 367.852 60.124 368.649 59.6637 369.376C59.2034 370.103 58.5979 370.742 57.8471 371.294C57.1144 371.854 56.2889 372.306 55.3707 372.651C54.1115 373.125 52.8758 373.342 51.6637 373.304C50.4647 373.26 49.3902 372.931 48.4401 372.315C47.5031 371.694 46.7905 370.734 46.3024 369.436L44.4535 364.517C44.3696 364.294 44.3769 364.074 44.4751 363.857C44.5783 363.654 44.7414 363.51 44.9643 363.426L57.1438 358.848C57.3668 358.765 57.5775 358.768 57.7761 358.858C57.9926 358.956 58.1428 359.117 58.2266 359.34L60.0756 364.259ZM47.7632 368.662C48.1428 369.672 48.6936 370.401 49.4156 370.848C50.1426 371.308 50.9669 371.53 51.8887 371.513C52.8153 371.509 53.764 371.324 54.7347 370.959C55.443 370.693 56.0865 370.354 56.6652 369.942C57.2619 369.538 57.7429 369.065 58.1082 368.524C58.4785 367.995 58.7044 367.401 58.7859 366.742C58.8723 366.096 58.7725 365.392 58.4866 364.631L56.9704 360.598L57.187 360.696L46.1094 364.86L46.2618 364.668L47.7632 368.662Z" fill="#1EDBB3"/>
<path d="M52.7774 381.912C52.5649 382.02 52.3424 382.03 52.1101 381.944C51.8841 381.87 51.7174 381.726 51.6098 381.514C51.4895 381.276 51.4696 381.051 51.55 380.837C51.6304 380.624 51.7769 380.463 51.9894 380.356L63.5793 374.489C63.8044 374.375 64.0236 374.358 64.2371 374.438C64.4631 374.512 64.633 374.662 64.747 374.887C64.8546 375.1 64.8713 375.319 64.7972 375.545C64.7357 375.764 64.5924 375.931 64.3673 376.045L52.7774 381.912Z" fill="#1EDBB3"/>
<path d="M71.1691 386.024C71.835 387.06 72.075 388.029 71.8892 388.93C71.7227 389.836 71.151 390.603 70.174 391.231C69.656 391.564 69.1036 391.752 68.5168 391.797C67.9299 391.842 67.3594 391.718 66.8053 391.425C66.2588 391.144 65.7619 390.682 65.3146 390.038L65.7863 389.684C66.0511 390.096 66.2647 390.558 66.427 391.069C66.5892 391.58 66.6582 392.102 66.6338 392.633C66.617 393.176 66.4686 393.696 66.1886 394.192C65.9162 394.7 65.468 395.154 64.8442 395.555C64.1732 395.987 63.5363 396.238 62.9334 396.31C62.3423 396.373 61.7845 396.308 61.2598 396.113C60.7545 395.922 60.2954 395.635 59.8826 395.251C59.4773 394.88 59.1271 394.464 58.832 394.005L55.8467 389.362C55.7181 389.161 55.679 388.945 55.7295 388.713C55.7875 388.493 55.9165 388.319 56.1166 388.19L67.0462 381.164C67.2463 381.035 67.4527 380.994 67.6655 381.04C67.8975 381.091 68.0779 381.216 68.2065 381.416L71.1691 386.024ZM69.638 386.709L67.1976 382.913L67.6516 382.921L63.255 385.747L63.3597 385.405L65.8115 389.219C66.1444 389.737 66.593 390.072 67.1572 390.226C67.7407 390.383 68.3621 390.249 69.0212 389.826C69.6098 389.447 69.9533 388.985 70.0516 388.44C70.1618 387.886 70.0239 387.31 69.638 386.709ZM64.4671 390.233L61.9926 386.384L62.1956 386.428L57.5872 389.391L57.6553 389.147L60.1752 393.067C60.6217 393.761 61.1614 394.213 61.7946 394.422C62.4353 394.642 63.1264 394.514 63.868 394.037C64.4448 393.666 64.8105 393.265 64.9652 392.832C65.1317 392.393 65.1527 391.947 65.0283 391.494C64.9114 391.054 64.7243 390.633 64.4671 390.233Z" fill="#1EDBB3"/>
<path d="M65.8299 402.369C65.6417 402.514 65.4257 402.566 65.1817 402.525C64.9463 402.495 64.7559 402.385 64.6106 402.197C64.4482 401.987 64.3864 401.77 64.4252 401.545C64.464 401.321 64.5775 401.136 64.7657 400.991L75.0281 393.067C75.2274 392.913 75.4392 392.855 75.6635 392.894C75.8989 392.924 76.0936 393.039 76.2475 393.238C76.3928 393.427 76.4503 393.638 76.42 393.874C76.4008 394.101 76.2916 394.291 76.0923 394.445L65.8299 402.369Z" fill="#1EDBB3"/>
<path d="M76.4064 413.164C76.5677 413.339 76.6434 413.545 76.6335 413.783C76.6339 414.011 76.5464 414.206 76.3711 414.367C76.1958 414.528 75.9944 414.599 75.7672 414.58C75.5399 414.56 75.3456 414.463 75.1843 414.288L70.2605 408.935C70.0992 408.76 70.0235 408.553 70.0334 408.316C70.0529 408.088 70.1502 407.894 70.3256 407.733L79.9017 398.924C80.077 398.763 80.2783 398.692 80.5056 398.711C80.7432 398.721 80.9474 398.819 81.1182 399.005C81.2794 399.18 81.3551 399.386 81.3452 399.624C81.3456 399.852 81.2581 400.047 81.0828 400.208L71.8161 408.732L71.81 408.167L76.4064 413.164Z" fill="#1EDBB3"/>
<path d="M80.0289 417.577C79.8674 417.752 79.6627 417.84 79.4148 417.84C79.1772 417.849 78.9708 417.773 78.7956 417.612C78.5999 417.432 78.5023 417.227 78.5029 416.999C78.5036 416.771 78.5846 416.569 78.7461 416.394L87.5506 406.843C87.7216 406.657 87.9211 406.565 88.1492 406.566C88.3869 406.556 88.5984 406.637 88.7839 406.807C88.959 406.969 89.0514 407.168 89.0611 407.406C89.0803 407.633 89.0044 407.84 88.8334 408.025L80.0289 417.577Z" fill="#1EDBB3"/>
<path d="M88.4109 425.682C88.2114 425.528 88.0965 425.333 88.0664 425.097C88.0363 424.861 88.0941 424.649 88.2398 424.461L96.1874 414.185L97.6006 415.278L89.6531 425.554C89.5074 425.742 89.3165 425.851 89.0806 425.882C88.8447 425.912 88.6215 425.845 88.4109 425.682ZM92.5781 412.324C92.3897 412.178 92.2718 411.998 92.2245 411.784C92.1969 411.568 92.256 411.366 92.4017 411.177C92.5475 410.989 92.7242 410.886 92.9318 410.87C93.1592 410.851 93.367 410.914 93.5555 411.06L101.287 417.04C101.475 417.186 101.589 417.371 101.628 417.596C101.675 417.81 101.626 418.011 101.48 418.199C101.326 418.399 101.139 418.502 100.92 418.51C100.702 418.518 100.498 418.449 100.31 418.304L92.5781 412.324Z" fill="#1EDBB3"/>
<path d="M110.921 422.792C111.125 422.915 111.246 423.094 111.284 423.33C111.341 423.561 111.311 423.772 111.196 423.964C111.152 424.036 111.093 424.107 111.018 424.176C110.963 424.241 110.889 424.295 110.798 424.338L103.115 427.631L103.881 426.891L100.373 432.704C100.25 432.908 100.073 433.038 99.842 433.095C99.6231 433.159 99.4177 433.134 99.2257 433.018C99.0098 432.888 98.8733 432.707 98.8162 432.476C98.7711 432.252 98.8101 432.039 98.9332 431.835L102.354 426.166L102.198 426.71L101.45 418.795C101.436 418.656 101.436 418.533 101.451 418.427C101.485 418.317 101.527 418.22 101.578 418.136C101.701 417.932 101.887 417.814 102.134 417.784C102.389 417.741 102.6 417.77 102.768 417.872C103.008 418.017 103.138 418.25 103.156 418.572L103.797 425.931L103.487 425.671L110.11 422.793C110.411 422.647 110.681 422.647 110.921 422.792Z" fill="#1EDBB3"/>
<path d="M637.494 131.291H498.846L255.453 263.36" stroke="url(#paint7_radial_878_9114)" stroke-miterlimit="10"/>
<path d="M514.823 124C514.503 124 514.222 123.907 513.982 123.72C513.742 123.52 513.622 123.273 513.622 122.979V111.007C513.622 110.713 513.722 110.473 513.922 110.286C514.122 110.086 514.362 109.986 514.643 109.986H520.288C521.009 109.986 521.67 110.166 522.27 110.527C522.871 110.874 523.351 111.361 523.712 111.988C524.085 112.602 524.272 113.309 524.272 114.11C524.272 114.644 524.165 115.158 523.952 115.652C523.738 116.132 523.451 116.559 523.091 116.933C522.731 117.307 522.324 117.587 521.87 117.774L521.65 117.393C522.063 117.54 522.424 117.754 522.731 118.034C523.038 118.301 523.278 118.621 523.451 118.995C523.638 119.355 523.738 119.769 523.752 120.236C523.792 120.65 523.825 120.997 523.852 121.277C523.892 121.544 523.945 121.764 524.012 121.938C524.079 122.111 524.199 122.245 524.372 122.338C524.613 122.472 524.759 122.672 524.813 122.939C524.88 123.206 524.826 123.446 524.653 123.66C524.533 123.82 524.379 123.927 524.192 123.98C524.019 124.02 523.838 124.027 523.652 124C523.465 123.96 523.305 123.907 523.171 123.84C522.958 123.706 522.737 123.52 522.511 123.279C522.297 123.026 522.123 122.679 521.99 122.238C521.857 121.798 521.79 121.217 521.79 120.496C521.79 120.163 521.736 119.876 521.63 119.636C521.523 119.395 521.376 119.202 521.189 119.055C521.002 118.895 520.782 118.781 520.529 118.715C520.275 118.635 519.995 118.595 519.688 118.595H515.443L515.724 118.194V122.979C515.724 123.273 515.644 123.52 515.483 123.72C515.323 123.907 515.103 124 514.823 124ZM515.463 116.853H520.248C520.555 116.84 520.849 116.719 521.129 116.492C521.423 116.252 521.656 115.932 521.83 115.532C522.017 115.131 522.11 114.677 522.11 114.17C522.11 113.53 521.917 112.996 521.53 112.569C521.156 112.128 520.709 111.908 520.188 111.908H515.504L515.724 111.387V117.273L515.463 116.853ZM529.871 109.986H536.798C537.078 109.986 537.312 110.079 537.499 110.266C537.699 110.453 537.799 110.687 537.799 110.967C537.799 111.247 537.699 111.474 537.499 111.648C537.312 111.821 537.078 111.908 536.798 111.908H530.752L530.952 111.568V116.052L530.772 115.852H535.897C536.177 115.852 536.411 115.945 536.598 116.132C536.798 116.319 536.898 116.559 536.898 116.853C536.898 117.133 536.798 117.36 536.598 117.534C536.411 117.707 536.177 117.794 535.897 117.794H530.812L530.952 117.614V122.238L530.812 122.078H536.798C537.078 122.078 537.312 122.178 537.499 122.378C537.699 122.565 537.799 122.785 537.799 123.039C537.799 123.319 537.699 123.553 537.499 123.74C537.312 123.913 537.078 124 536.798 124H529.871C529.591 124 529.351 123.907 529.15 123.72C528.95 123.52 528.85 123.273 528.85 122.979V111.007C528.85 110.713 528.95 110.473 529.15 110.286C529.351 110.086 529.591 109.986 529.871 109.986ZM549.637 122.038C549.917 122.038 550.151 122.131 550.337 122.318C550.538 122.505 550.638 122.739 550.638 123.019C550.638 123.299 550.538 123.533 550.337 123.72C550.151 123.907 549.917 124 549.637 124H542.91C542.616 124 542.369 123.907 542.169 123.72C541.982 123.52 541.889 123.273 541.889 122.979V111.007C541.889 110.713 541.989 110.473 542.189 110.286C542.389 110.086 542.65 109.986 542.97 109.986C543.237 109.986 543.471 110.086 543.671 110.286C543.884 110.473 543.991 110.713 543.991 111.007V122.378L543.571 122.038H549.637ZM555.558 109.986H562.485C562.765 109.986 562.998 110.079 563.185 110.266C563.386 110.453 563.486 110.687 563.486 110.967C563.486 111.247 563.386 111.474 563.185 111.648C562.998 111.821 562.765 111.908 562.485 111.908H556.439L556.639 111.568V116.052L556.459 115.852H561.584C561.864 115.852 562.098 115.945 562.284 116.132C562.485 116.319 562.585 116.559 562.585 116.853C562.585 117.133 562.485 117.36 562.284 117.534C562.098 117.707 561.864 117.794 561.584 117.794H556.499L556.639 117.614V122.238L556.499 122.078H562.485C562.765 122.078 562.998 122.178 563.185 122.378C563.386 122.565 563.486 122.785 563.486 123.039C563.486 123.319 563.386 123.553 563.185 123.74C562.998 123.913 562.765 124 562.485 124H555.558C555.277 124 555.037 123.907 554.837 123.72C554.637 123.52 554.537 123.273 554.537 122.979V111.007C554.537 110.713 554.637 110.473 554.837 110.286C555.037 110.086 555.277 109.986 555.558 109.986ZM577.786 109.946C578.066 109.946 578.306 110.039 578.506 110.226C578.707 110.413 578.807 110.64 578.807 110.907C578.807 111.054 578.773 111.207 578.707 111.367L573.642 123.339C573.535 123.566 573.388 123.733 573.201 123.84C573.028 123.947 572.847 124 572.661 124C572.474 123.987 572.294 123.927 572.12 123.82C571.96 123.713 571.833 123.56 571.74 123.359L566.675 111.367C566.648 111.301 566.628 111.234 566.615 111.167C566.601 111.087 566.595 111.007 566.595 110.927C566.595 110.62 566.708 110.38 566.935 110.206C567.162 110.033 567.382 109.946 567.596 109.946C568.023 109.946 568.336 110.166 568.536 110.607L573.121 121.477H572.54L576.865 110.587C577.052 110.16 577.359 109.946 577.786 109.946ZM586.988 112.589L582.483 123.399C582.403 123.613 582.283 123.78 582.123 123.9C581.963 124.02 581.783 124.08 581.582 124.08C581.289 124.08 581.069 124 580.922 123.84C580.775 123.666 580.695 123.453 580.682 123.199C580.682 123.106 580.702 122.999 580.742 122.879L585.827 110.587C585.92 110.36 586.054 110.186 586.227 110.066C586.414 109.946 586.614 109.893 586.828 109.906C587.028 109.906 587.215 109.966 587.388 110.086C587.562 110.206 587.689 110.373 587.769 110.587L592.794 122.699C592.847 122.832 592.874 122.966 592.874 123.099C592.874 123.393 592.774 123.633 592.573 123.82C592.387 123.993 592.173 124.08 591.933 124.08C591.733 124.08 591.546 124.02 591.372 123.9C591.212 123.766 591.092 123.6 591.012 123.399L586.467 112.649L586.988 112.589ZM583.284 120.557L584.185 118.635H589.851L590.191 120.557H583.284ZM606.94 109.986C607.207 109.986 607.42 110.079 607.58 110.266C607.754 110.44 607.841 110.66 607.841 110.927V122.979C607.841 123.273 607.741 123.52 607.54 123.72C607.354 123.907 607.113 124 606.82 124C606.686 124 606.539 123.973 606.379 123.92C606.232 123.867 606.119 123.793 606.039 123.7L597.811 113.029L598.271 112.769V123.079C598.271 123.333 598.184 123.553 598.011 123.74C597.837 123.913 597.617 124 597.35 124C597.07 124 596.843 123.913 596.67 123.74C596.509 123.553 596.429 123.333 596.429 123.079V111.007C596.429 110.7 596.529 110.453 596.73 110.266C596.93 110.079 597.17 109.986 597.45 109.986C597.597 109.986 597.751 110.019 597.911 110.086C598.084 110.139 598.211 110.226 598.291 110.346L606.319 120.797L606.019 121.077V110.927C606.019 110.66 606.106 110.44 606.279 110.266C606.453 110.079 606.673 109.986 606.94 109.986ZM622.664 110.787C622.957 110.934 623.124 111.161 623.164 111.467C623.217 111.774 623.144 112.055 622.944 112.308C622.797 112.509 622.603 112.622 622.363 112.649C622.136 112.675 621.909 112.629 621.683 112.509C621.295 112.308 620.888 112.148 620.461 112.028C620.034 111.908 619.58 111.848 619.1 111.848C618.339 111.848 617.652 111.975 617.038 112.228C616.437 112.468 615.917 112.822 615.476 113.289C615.036 113.743 614.696 114.284 614.455 114.911C614.228 115.538 614.115 116.232 614.115 116.993C614.115 117.834 614.242 118.581 614.495 119.235C614.749 119.876 615.096 120.423 615.536 120.877C615.99 121.317 616.517 121.651 617.118 121.878C617.732 122.091 618.393 122.198 619.1 122.198C619.554 122.198 619.994 122.145 620.421 122.038C620.862 121.931 621.275 121.771 621.663 121.558C621.903 121.437 622.136 121.397 622.363 121.437C622.603 121.464 622.797 121.578 622.944 121.778C623.171 122.058 623.251 122.345 623.184 122.639C623.131 122.919 622.964 123.132 622.684 123.279C622.35 123.466 621.983 123.626 621.582 123.76C621.182 123.893 620.775 124 620.361 124.08C619.947 124.16 619.527 124.2 619.1 124.2C618.139 124.2 617.231 124.04 616.377 123.72C615.523 123.399 614.762 122.932 614.095 122.318C613.428 121.704 612.9 120.95 612.513 120.056C612.14 119.162 611.953 118.141 611.953 116.993C611.953 115.965 612.126 115.018 612.473 114.15C612.834 113.269 613.334 112.515 613.975 111.888C614.629 111.247 615.39 110.753 616.257 110.406C617.125 110.046 618.072 109.866 619.1 109.866C619.741 109.866 620.361 109.946 620.962 110.106C621.576 110.266 622.143 110.493 622.664 110.787ZM628.064 109.986H634.991C635.271 109.986 635.505 110.079 635.691 110.266C635.892 110.453 635.992 110.687 635.992 110.967C635.992 111.247 635.892 111.474 635.691 111.648C635.505 111.821 635.271 111.908 634.991 111.908H628.945L629.145 111.568V116.052L628.965 115.852H634.09C634.37 115.852 634.604 115.945 634.79 116.132C634.991 116.319 635.091 116.559 635.091 116.853C635.091 117.133 634.991 117.36 634.79 117.534C634.604 117.707 634.37 117.794 634.09 117.794H629.005L629.145 117.614V122.238L629.005 122.078H634.991C635.271 122.078 635.505 122.178 635.691 122.378C635.892 122.565 635.992 122.785 635.992 123.039C635.992 123.319 635.892 123.553 635.691 123.74C635.505 123.913 635.271 124 634.991 124H628.064C627.783 124 627.543 123.907 627.343 123.72C627.143 123.52 627.043 123.273 627.043 122.979V111.007C627.043 110.713 627.143 110.473 627.343 110.286C627.543 110.086 627.783 109.986 628.064 109.986Z" fill="#1EDBB3"/>
<path d="M255.96 267.409C257.916 267.409 259.502 265.823 259.502 263.867C259.502 261.911 257.916 260.325 255.96 260.325C254.004 260.325 252.418 261.911 252.418 263.867C252.418 265.823 254.004 267.409 255.96 267.409Z" fill="url(#paint8_linear_878_9114)"/>
<defs>
<linearGradient id="paint0_linear_878_9114" x1="251.686" y1="180.809" x2="251.686" y2="-8.94635" gradientUnits="userSpaceOnUse">
<stop offset="0.23" stop-color="#24818A"/>
<stop offset="1" stop-color="#26627E"/>
</linearGradient>
<linearGradient id="paint1_linear_878_9114" x1="75779" y1="122401" x2="30356.9" y2="159500" gradientUnits="userSpaceOnUse">
<stop offset="0.23" stop-color="#24818A"/>
<stop offset="1" stop-color="#26627E"/>
</linearGradient>
<linearGradient id="paint2_linear_878_9114" x1="255.644" y1="236.441" x2="84.5" y2="236.441" gradientUnits="userSpaceOnUse">
<stop offset="0.23" stop-color="#23ADA0"/>
<stop offset="1" stop-color="#229391"/>
</linearGradient>
<linearGradient id="paint3_linear_878_9114" x1="111918" y1="133456" x2="155299" y2="153658" gradientUnits="userSpaceOnUse">
<stop offset="0.23" stop-color="#24818A"/>
<stop offset="1" stop-color="#26627E"/>
</linearGradient>
<linearGradient id="paint4_linear_878_9114" x1="58138.3" y1="52979" x2="84527.8" y2="52979" gradientUnits="userSpaceOnUse">
<stop offset="0.23" stop-color="#23ADA0"/>
<stop offset="1" stop-color="#229391"/>
</linearGradient>
<linearGradient id="paint5_linear_878_9114" x1="56241.8" y1="63240.6" x2="56241.8" y2="86160.3" gradientUnits="userSpaceOnUse">
<stop offset="0.23" stop-color="#23ADA0"/>
<stop offset="1" stop-color="#229391"/>
</linearGradient>
<radialGradient id="paint6_radial_878_9114" cx="0" cy="0" r="1" gradientUnits="userSpaceOnUse" gradientTransform="translate(255.543 257.906) scale(78.0073)">
<stop offset="0.1" stop-color="#1EDBB3"/>
<stop offset="1" stop-color="#21CAAB"/>
</radialGradient>
<radialGradient id="paint7_radial_878_9114" cx="0" cy="0" r="1" gradientUnits="userSpaceOnUse" gradientTransform="translate(69283.2 128109) rotate(49.4972) scale(70144.5 28380.3)">
<stop offset="0.1" stop-color="#1EDBB3"/>
<stop offset="1" stop-color="#21CAAB"/>
</radialGradient>
<linearGradient id="paint8_linear_878_9114" x1="2738.98" y1="2842.52" x2="2788.57" y2="2842.52" gradientUnits="userSpaceOnUse">
<stop offset="0.23" stop-color="#23ADA0"/>
<stop offset="1" stop-color="#229391"/>
</linearGradient>
</defs>
</svg>
