<svg width="1155" height="1110" viewBox="0 0 1155 1110" fill="none" xmlns="http://www.w3.org/2000/svg">
<path d="M952.388 380.929C952.393 430.674 942.593 479.934 923.547 525.895C904.501 571.855 876.583 613.617 841.385 648.794C806.188 683.972 764.401 711.876 718.411 730.915C672.422 749.953 623.129 759.752 573.35 759.752C523.572 759.757 474.281 749.964 428.292 730.93C382.302 711.897 340.515 683.996 305.317 648.822C270.119 613.648 242.2 571.889 223.153 525.931C204.107 479.973 194.307 430.715 194.313 380.971C194.307 331.228 204.107 281.97 223.153 236.012C242.2 190.054 270.119 148.295 305.317 113.121C340.515 77.9469 382.302 50.0463 428.292 31.0128C474.281 11.9793 523.572 2.18576 573.35 2.19141C673.869 2.19141 770.273 42.0926 841.355 113.118C912.437 184.144 952.376 280.477 952.388 380.929Z" stroke="white" stroke-opacity="0.08"/>
<path d="M1152.85 722.411C1152.85 822.87 1112.91 919.214 1041.83 990.249C970.748 1061.28 874.338 1101.19 773.811 1101.19C724.033 1101.2 674.742 1091.4 628.753 1072.37C582.763 1053.34 540.976 1025.44 505.778 990.262C470.58 955.088 442.661 913.329 423.614 867.371C404.568 821.413 394.768 772.155 394.773 722.411C394.768 672.667 404.568 623.41 423.614 577.452C442.661 531.493 470.58 489.735 505.778 454.56C540.976 419.386 582.763 391.486 628.753 372.453C674.742 353.419 724.033 343.625 773.811 343.631C874.338 343.631 970.748 383.538 1041.83 454.573C1112.91 525.608 1152.85 621.952 1152.85 722.411V722.411Z" stroke="white" stroke-opacity="0.08"/>
<path d="M760.223 729.071C760.212 829.522 720.273 925.856 649.191 996.881C578.108 1067.91 481.705 1107.81 381.186 1107.81C280.659 1107.81 184.249 1067.9 113.166 996.866C42.0826 925.831 2.14844 829.487 2.14844 729.028C2.15984 628.577 42.0991 532.244 113.181 461.218C184.263 390.192 280.666 350.291 381.186 350.291C481.713 350.291 578.122 390.198 649.206 461.233C720.289 532.268 760.223 628.612 760.223 729.071V729.071Z" stroke="white" stroke-opacity="0.08"/>
</svg>
