<svg width="50" height="50" viewBox="0 0 50 50" fill="none" xmlns="http://www.w3.org/2000/svg">
<path d="M19.7225 12.2775L19.6998 11.778L19.6996 11.7781L19.7225 12.2775ZM30.2738 12.2775L30.2967 11.7781L30.2965 11.778L30.2738 12.2775ZM33.3832 12.8722L33.2023 13.3384L33.2024 13.3384L33.3832 12.8722ZM35.6499 14.3482L35.2963 14.7018L35.2964 14.7019L35.6499 14.3482ZM37.1272 16.6157L37.5936 16.4354L37.5931 16.4342L37.1272 16.6157ZM37.7219 19.7224L38.2214 19.7L38.2213 19.6989L37.7219 19.7224ZM37.7219 30.2772L38.2213 30.3007L38.2214 30.2996L37.7219 30.2772ZM37.1272 33.3839L37.5931 33.5654L37.5936 33.5641L37.1272 33.3839ZM35.6499 35.6511L35.2964 35.2974L35.2961 35.2978L35.6499 35.6511ZM33.384 37.1285L33.2029 36.6624L33.2028 36.6624L33.384 37.1285ZM30.2757 37.7231L30.2984 38.2226L30.2985 38.2226L30.2757 37.7231ZM19.7214 37.7231L19.6986 38.2226L19.6987 38.2226L19.7214 37.7231ZM16.6142 37.1285L16.7953 36.6624L16.7953 36.6624L16.6142 37.1285ZM14.3475 35.6511L14.7013 35.2978L14.701 35.2975L14.3475 35.6511ZM12.8712 33.3836L12.4052 33.5647L12.4052 33.5647L12.8712 33.3836ZM12.2766 30.2769L11.7771 30.2995L11.7771 30.2999L12.2766 30.2769ZM12.2763 19.7221L11.7768 19.6996L11.7768 19.6998L12.2763 19.7221ZM12.871 16.6154L13.3368 16.797L13.3368 16.797L12.871 16.6154ZM14.3483 14.3482L14.7017 14.7019L14.7019 14.7017L14.3483 14.3482ZM16.6158 12.8722L16.7968 13.3383L16.797 13.3382L16.6158 12.8722ZM1.5 25C1.5 12.0213 12.0213 1.5 25 1.5V0.5C11.469 0.5 0.5 11.469 0.5 25H1.5ZM25 48.5C12.0213 48.5 1.5 37.9787 1.5 25H0.5C0.5 38.531 11.469 49.5 25 49.5V48.5ZM48.5 25C48.5 37.9787 37.9787 48.5 25 48.5V49.5C38.531 49.5 49.5 38.531 49.5 25H48.5ZM25 1.5C37.9787 1.5 48.5 12.0213 48.5 25H49.5C49.5 11.469 38.531 0.5 25 0.5V1.5ZM25.0004 11.7002C21.5215 11.7002 21.0764 11.7154 19.6998 11.778L19.7452 12.777C21.0993 12.7154 21.5267 12.7002 25.0004 12.7002V11.7002ZM24.9964 12.7002H25.0004V11.7002H24.9964V12.7002ZM30.2965 11.778C28.9199 11.7154 28.4764 11.7002 24.9964 11.7002V12.7002C28.4712 12.7002 28.897 12.7154 30.2511 12.777L30.2965 11.778ZM33.564 12.406C32.6914 12.0676 31.7066 11.8426 30.2967 11.7781L30.2509 12.777C31.5664 12.8372 32.4429 13.0438 33.2023 13.3384L33.564 12.406ZM36.0034 13.9947C35.2391 13.2304 34.4671 12.7561 33.5639 12.406L33.2024 13.3384C33.9846 13.6416 34.6366 14.0421 35.2963 14.7018L36.0034 13.9947ZM37.5931 16.4342C37.2419 15.5328 36.768 14.7587 36.0033 13.9945L35.2964 14.7019C35.9557 15.3607 36.3565 16.0149 36.6613 16.7972L37.5931 16.4342ZM38.2213 19.6989C38.1551 18.2893 37.9299 17.3054 37.5936 16.4354L36.6609 16.796C36.9538 17.5538 37.1606 18.4301 37.2224 19.7459L38.2213 19.6989ZM38.2992 25.0003C38.2992 21.5212 38.2832 21.0763 38.2214 19.7L37.2224 19.7448C37.2832 21.0992 37.2992 21.5269 37.2992 25.0003H38.2992ZM38.2214 30.2996C38.2832 28.9233 38.2992 28.4795 38.2992 25.0003H37.2992C37.2992 28.4738 37.2832 28.9004 37.2224 30.2547L38.2214 30.2996ZM37.5936 33.5641C37.9299 32.6939 38.1551 31.7097 38.2213 30.3007L37.2224 30.2537C37.1606 31.5689 36.9538 32.4456 36.6608 33.2036L37.5936 33.5641ZM36.0033 36.0048C36.768 35.2407 37.2419 34.4665 37.5931 33.5654L36.6613 33.2023C36.3565 33.9844 35.9558 34.6386 35.2964 35.2974L36.0033 36.0048ZM33.565 37.5945C34.4671 37.2441 35.2401 36.7688 36.0036 36.0045L35.2961 35.2978C34.6372 35.9574 33.9841 36.3589 33.2029 36.6624L33.565 37.5945ZM30.2985 38.2226C31.7083 38.158 32.6939 37.9331 33.5651 37.5945L33.2028 36.6624C32.4453 36.9569 31.5684 37.1634 30.2528 37.2237L30.2985 38.2226ZM24.9988 38.3005C28.478 38.3005 28.9218 38.2853 30.2984 38.2226L30.2529 37.2236C28.8989 37.2853 28.4728 37.3005 24.9988 37.3005V38.3005ZM19.6987 38.2226C21.0754 38.2853 21.5202 38.3005 24.9988 38.3005V37.3005C21.5254 37.3005 21.0982 37.2853 19.7442 37.2236L19.6987 38.2226ZM16.4331 37.5945C17.3043 37.9331 18.289 38.158 19.6986 38.2226L19.7443 37.2237C18.429 37.1634 17.553 36.9569 16.7953 36.6624L16.4331 37.5945ZM13.9938 36.0045C14.7574 36.769 15.5316 37.2442 16.4331 37.5945L16.7953 36.6624C16.0141 36.3589 15.36 35.9573 14.7013 35.2978L13.9938 36.0045ZM12.4052 33.5647C12.7556 34.4664 13.2296 35.2406 13.994 36.0047L14.701 35.2975C14.0419 34.6386 13.6412 33.9846 13.3373 33.2025L12.4052 33.5647ZM11.7771 30.2999C11.8419 31.7097 12.0669 32.6941 12.4052 33.5647L13.3373 33.2025C13.0431 32.4454 12.8365 31.5695 12.776 30.2539L11.7771 30.2999ZM11.6992 25.0003C11.6992 28.4793 11.7147 28.923 11.7771 30.2995L12.776 30.2543C12.7147 28.9001 12.6992 28.4739 12.6992 25.0003H11.6992ZM11.7768 19.6998C11.7152 21.0761 11.6992 21.5212 11.6992 25.0003H12.6992C12.6992 21.5269 12.7152 21.0989 12.7758 19.7445L11.7768 19.6998ZM12.4051 16.4339C12.0655 17.305 11.8403 18.2901 11.7768 19.6996L12.7758 19.7446C12.835 18.4299 13.0417 17.5541 13.3368 16.797L12.4051 16.4339ZM13.9949 13.9945C13.2302 14.7587 12.7563 15.5328 12.4051 16.4339L13.3368 16.797C13.6416 16.0149 14.0424 15.3607 14.7017 14.7019L13.9949 13.9945ZM16.4348 12.4061C15.533 12.7563 14.7588 13.2303 13.9947 13.9947L14.7019 14.7017C15.3608 14.0426 16.0148 13.642 16.7968 13.3383L16.4348 12.4061ZM19.6996 11.7781C18.2898 11.8426 17.3053 12.0676 16.4346 12.4062L16.797 13.3382C17.5541 13.0438 18.4298 12.8372 19.7454 12.777L19.6996 11.7781Z" fill="#00A993"/>
<path fill-rule="evenodd" clip-rule="evenodd" d="M23.853 14.5071C24.0759 14.5068 24.3158 14.5069 24.5746 14.507L25.0013 14.5071C28.4189 14.5071 28.824 14.5194 30.1736 14.5807C31.4216 14.6378 32.0989 14.8463 32.5501 15.0215C33.1475 15.2535 33.5733 15.5309 34.0211 15.9789C34.4691 16.4269 34.7464 16.8535 34.979 17.4509C35.1542 17.9015 35.363 18.5789 35.4198 19.8269C35.4811 21.1762 35.4944 21.5816 35.4944 24.9976C35.4944 28.4137 35.4811 28.819 35.4198 30.1683C35.3627 31.4163 35.1542 32.0937 34.979 32.5444C34.747 33.1417 34.4691 33.567 34.0211 34.0148C33.5731 34.4628 33.1477 34.7401 32.5501 34.9721C32.0995 35.1481 31.4216 35.3561 30.1736 35.4132C28.8242 35.4745 28.4189 35.4879 25.0013 35.4879C21.5834 35.4879 21.1783 35.4745 19.8289 35.4132C18.5809 35.3556 17.9036 35.1471 17.4521 34.9719C16.8548 34.7399 16.4281 34.4625 15.9801 34.0145C15.5321 33.5665 15.2548 33.1409 15.0222 32.5433C14.847 32.0926 14.6382 31.4153 14.5814 30.1673C14.5201 28.8179 14.5078 28.4126 14.5078 24.9944C14.5078 21.5762 14.5201 21.173 14.5814 19.8237C14.6385 18.5757 14.847 17.8983 15.0222 17.4471C15.2542 16.8498 15.5321 16.4231 15.9801 15.9751C16.4281 15.5271 16.8548 15.2498 17.4521 15.0172C17.9033 14.8412 18.5809 14.6332 19.8289 14.5759C21.0097 14.5226 21.4674 14.5066 23.853 14.5039V14.5071ZM31.8329 16.6324C30.9849 16.6324 30.2969 17.3196 30.2969 18.1679C30.2969 19.0159 30.9849 19.7039 31.8329 19.7039C32.6809 19.7039 33.3689 19.0159 33.3689 18.1679C33.3689 17.3198 32.6809 16.6318 31.8329 16.6318V16.6324ZM18.4297 25.0002C18.4297 21.3701 21.3728 18.4269 25.0028 18.4268C28.633 18.4268 31.5754 21.37 31.5754 25.0002C31.5754 28.6303 28.6333 31.5722 25.0031 31.5722C21.3729 31.5722 18.4297 28.6303 18.4297 25.0002Z" fill="#00A993"/>
<path d="M25.0011 20.7334C27.3574 20.7334 29.2678 22.6436 29.2678 25.0001C29.2678 27.3564 27.3574 29.2668 25.0011 29.2668C22.6445 29.2668 20.7344 27.3564 20.7344 25.0001C20.7344 22.6436 22.6445 20.7334 25.0011 20.7334Z" fill="#00A993"/>
</svg>
