<svg width="50" height="50" viewBox="0 0 50 50" fill="none" xmlns="http://www.w3.org/2000/svg">
<path d="M1.5 25C1.5 12.0213 12.0213 1.5 25 1.5V0.5C11.469 0.5 0.5 11.469 0.5 25H1.5ZM25 1.5C37.9787 1.5 48.5 12.0213 48.5 25H49.5C49.5 11.469 38.531 0.5 25 0.5V1.5ZM48.5 25C48.5 37.9787 37.9787 48.5 25 48.5V49.5C38.531 49.5 49.5 38.531 49.5 25H48.5ZM25 48.5C12.0213 48.5 1.5 37.9787 1.5 25H0.5C0.5 38.531 11.469 49.5 25 49.5V48.5Z" fill="#00A993"/>
<path fill-rule="evenodd" clip-rule="evenodd" d="M18.1188 15.8227C18.1188 17.3918 16.9377 18.6473 15.0412 18.6473H15.0064C13.1805 18.6473 12 17.3918 12 15.8227C12 14.2204 13.2164 13 15.077 13C16.9377 13 18.0835 14.2204 18.1188 15.8227ZM17.7592 20.8779V37.2196H12.3203V20.8779H17.7592ZM37.3736 37.2196L37.3738 27.8497C37.3738 22.8303 34.6906 20.4941 31.1116 20.4941C28.2239 20.4941 26.931 22.0803 26.2091 23.193V20.8783H20.7695C20.8412 22.4117 20.7695 37.22 20.7695 37.22H26.2091V28.0935C26.2091 27.6051 26.2444 27.1179 26.3882 26.7682C26.7813 25.7925 27.6763 24.7823 29.1789 24.7823C31.1478 24.7823 31.9349 26.2808 31.9349 28.4768V37.2196H37.3736Z" fill="#00A993"/>
</svg>
