<svg style="width:300px; float:right; resizeMode:repeat" cache-id="b1a4d3b7a07a4d99a71998b804aefaf7" id="eT6FGruoKvx1" xmlns="http://www.w3.org/2000/svg" xmlns:xlink="http://www.w3.org/1999/xlink" viewBox="0 0 336 322" shape-rendering="geometricPrecision" text-rendering="geometricPrecision"><defs><linearGradient id="eT6FGruoKvx2-stroke" x1="45.5682" y1="110.516" x2="276.277" y2="110.516" spreadMethod="pad" gradientUnits="userSpaceOnUse" gradientTransform="translate(0 0)"><stop id="eT6FGruoKvx2-stroke-0" offset="0%" stop-color="#26627e"/><stop id="eT6FGruoKvx2-stroke-1" offset="100%" stop-color="#00b198"/></linearGradient><linearGradient id="eT6FGruoKvx3-stroke" x1="103.72" y1="209.565" x2="334.43" y2="209.565" spreadMethod="pad" gradientUnits="userSpaceOnUse" gradientTransform="translate(0 0)"><stop id="eT6FGruoKvx3-stroke-0" offset="0%" stop-color="#26627e"/><stop id="eT6FGruoKvx3-stroke-1" offset="100%" stop-color="#00b198"/></linearGradient><linearGradient id="eT6FGruoKvx4-stroke" x1="-10.1754" y1="211.49" x2="220.534" y2="211.49" spreadMethod="pad" gradientUnits="userSpaceOnUse" gradientTransform="translate(0 0)"><stop id="eT6FGruoKvx4-stroke-0" offset="0%" stop-color="#26627e"/><stop id="eT6FGruoKvx4-stroke-1" offset="100%" stop-color="#00b198"/></linearGradient></defs><path id="eT6FGruoKvx2" d="M275.277,110.504c.002,14.299-2.815,28.459-8.29,41.67-5.474,13.211-13.5,25.216-23.617,35.328-10.118,10.111-22.129,18.133-35.349,23.605-13.22,5.473-27.389,8.289-41.699,8.289-14.309.002-28.477-2.813-41.697-8.284-13.22-5.472-25.2317-13.492-35.3494-23.602-10.1177-10.111-18.1431-22.115-23.618-35.325-5.4749-13.211-8.2919-27.37-8.2903-41.669v0c-.0016-14.2988,2.8154-28.4577,8.2903-41.6684c5.4749-13.2106,13.5003-25.2141,23.618-35.3249C99.3933,23.4118,111.405,15.3918,124.625,9.92054s27.388-8.28642,41.697-8.2848c28.895,0,56.606,11.46976,77.039,31.88616s31.913,48.1074,31.916,76.9821Z" fill="none" stroke="url(#eT6FGruoKvx2-stroke)" stroke-width="2" stroke-dashoffset="684.361078" stroke-dasharray="684.361078"/><path id="eT6FGruoKvx3" d="M333.43,209.565c0,28.876-11.479,56.57-31.912,76.989s-48.147,31.891-77.043,31.891c-14.309.002-28.478-2.814-41.698-8.285s-25.231-13.491-35.349-23.602-18.143-22.114-23.618-35.325-8.292-27.37-8.29-41.668v-.001c-.002-14.298,2.815-28.457,8.29-41.668s13.5-25.214,23.618-35.325s22.129-18.131,35.349-23.602s27.389-8.287,41.697-8.285c28.897,0,56.611,11.472,77.044,31.891s31.912,48.113,31.912,76.99Z" fill="none" stroke="url(#eT6FGruoKvx3-stroke)" stroke-width="2" stroke-dashoffset="684.361785" stroke-dasharray="684.361785"/><path id="eT6FGruoKvx4" d="M219.534,211.496c-.004,28.875-11.484,56.566-31.917,76.982-20.432,20.417-48.144,31.887-77.038,31.887-28.8971,0-56.6103-11.472-77.0433-31.891-20.4329-20.419-31.91192-48.113-31.91192-76.99.00328-28.874,11.48372-56.565,31.91632-76.982c20.4326-20.416,48.1439-31.886,77.0389-31.886c28.897,0,56.61,11.472,77.043,31.891s31.912,48.113,31.912,76.989Z" fill="none" stroke="url(#eT6FGruoKvx4-stroke)" stroke-width="2" stroke-dashoffset="684.327083" stroke-dasharray="684.327083"/></svg>