<svg width="22" height="53" viewBox="0 0 22 53" fill="none" xmlns="http://www.w3.org/2000/svg">
<path d="M15.1444 45.089L11.1111 49.1223L7.07778 45.089C6.58889 44.6001 5.85556 44.6001 5.36667 45.089C4.87778 45.5778 4.87778 46.3112 5.36667 46.8001L10.2556 51.689C10.5 51.9334 10.8056 52.0556 11.1111 52.0556C11.4167 52.0556 11.7222 51.9334 11.9667 51.689L16.8556 46.8001C17.3444 46.3112 17.3444 45.5778 16.8556 45.089C16.3667 44.6001 15.6333 44.6001 15.1444 45.089Z" fill="#00A993"/>
<path d="M16.8556 38.3667C16.3667 37.8778 15.6333 37.8778 15.1444 38.3667L11.1111 42.4L7.07778 38.3667C6.58889 37.8778 5.85556 37.8778 5.36667 38.3667C4.87778 38.8556 4.87778 39.5889 5.36667 40.0778L10.2556 44.9667C10.5 45.2111 10.8056 45.3333 11.1111 45.3333C11.4167 45.3333 11.7222 45.2111 11.9667 44.9667L16.8556 40.0778C17.3444 39.5889 17.3444 38.8556 16.8556 38.3667Z" fill="#00A993"/>
<path d="M22 22V11C22 4.95 17.05 0 11 0C4.95 0 0 4.95 0 11V22C0 28.05 4.95 33 11 33C17.05 33 22 28.05 22 22ZM11 30.5556C6.29444 30.5556 2.44444 26.7056 2.44444 22V11C2.44444 6.29444 6.29444 2.44444 11 2.44444C15.7056 2.44444 19.5556 6.29444 19.5556 11V22C19.5556 26.7056 15.7056 30.5556 11 30.5556Z" fill="#00A993"/>
<path d="M10.9996 6.72217C10.3273 6.72217 9.77734 7.27217 9.77734 7.94439V11.6111C9.77734 12.2833 10.3273 12.8333 10.9996 12.8333C11.6718 12.8333 12.2218 12.2833 12.2218 11.6111V7.94439C12.2218 7.27217 11.6718 6.72217 10.9996 6.72217Z" fill="#00A993"/>
</svg>
