<svg width="50" height="50" viewBox="0 0 50 50" fill="none" xmlns="http://www.w3.org/2000/svg">
<path fill-rule="evenodd" clip-rule="evenodd" d="M1.5 25C1.5 12.0213 12.0213 1.5 25 1.5C37.9787 1.5 48.5 12.0213 48.5 25C48.5 37.9787 37.9787 48.5 25 48.5C12.0213 48.5 1.5 37.9787 1.5 25ZM25 0.5C11.469 0.5 0.5 11.469 0.5 25C0.5 38.531 11.469 49.5 25 49.5C38.531 49.5 49.5 38.531 49.5 25C49.5 11.469 38.531 0.5 25 0.5ZM24.3316 21.3383L24.2812 20.5079C24.1301 18.3555 25.4563 16.3895 27.5548 15.6269C28.327 15.3557 29.6364 15.3218 30.4926 15.5591C30.8283 15.6608 31.4663 15.9997 31.9195 16.3048L32.7421 16.8641L33.6486 16.5759C34.1523 16.4234 34.8238 16.1692 35.1259 15.9997C35.4113 15.8472 35.6631 15.7624 35.6631 15.8133C35.6631 16.1014 35.042 17.0844 34.5216 17.6267C33.8165 18.3894 34.018 18.4572 35.4449 17.9487C36.3011 17.6606 36.3178 17.6606 36.15 17.9826C36.0492 18.1521 35.5288 18.7453 34.9748 19.2876C34.0347 20.2198 33.9844 20.3215 33.9844 21.1011C33.9844 22.3044 33.4136 24.8127 32.8428 26.1855C31.7852 28.7616 29.5189 31.4224 27.2526 32.7613C24.063 34.6426 19.8157 35.1171 16.24 34.0155C15.0481 33.6426 13 32.6935 13 32.5241C13 32.4732 13.6211 32.4054 14.3766 32.3885C15.9546 32.3546 17.5326 31.9139 18.8756 31.1343L19.7822 30.592L18.7413 30.2361C17.264 29.7276 15.9378 28.5582 15.6021 27.4566C15.5013 27.1007 15.5349 27.0837 16.475 27.0837L17.4487 27.0668L16.6261 26.677C15.6524 26.1855 14.7627 25.355 14.3262 24.5076C14.0072 23.8975 13.6044 22.3552 13.7219 22.2366C13.7554 22.1857 14.108 22.2874 14.5109 22.423C15.6692 22.8467 15.8203 22.745 15.1488 22.0332C13.8897 20.7452 13.5036 18.83 14.108 17.0166L14.3934 16.2031L15.5013 17.3047C17.7677 19.5249 20.4369 20.8469 23.4922 21.2367L24.3316 21.3383Z" fill="#00A993"/>
</svg>
