<?xml version="1.0" encoding="UTF-8"?><svg id="Layer_2" xmlns="http://www.w3.org/2000/svg" viewBox="0 0 31.14 30.94"><defs><style>.cls-1{fill:#00a993;}.cls-2{fill:none;}</style></defs><g id="Layer_1-2"><g><path class="cls-2" d="M15.67,1C7.68,1,1.2,7.48,1.2,15.47s6.48,14.47,14.47,14.47,14.47-6.48,14.47-14.47S23.66,1,15.67,1Zm6.95,10.09c-.06,.11-.39,.48-.73,.81-.59,.58-.62,.64-.62,1.13,0,.75-.36,2.32-.71,3.17-.66,1.61-2.07,3.27-3.49,4.1-1.99,1.17-4.64,1.47-6.87,.78-.74-.23-2.02-.82-2.02-.93,0-.03,.39-.07,.86-.08,.98-.02,1.97-.3,2.81-.78l.56-.34-.65-.22c-.92-.32-1.75-1.05-1.96-1.73-.06-.22-.04-.23,.54-.23h.61l-.51-.25c-.61-.31-1.16-.82-1.43-1.35-.2-.38-.45-1.34-.38-1.42,.02-.03,.24,.03,.49,.12,.72,.26,.82,.2,.4-.24-.79-.8-1.03-2-.65-3.13l.18-.51,.69,.69c1.41,1.38,3.08,2.21,4.98,2.45l.52,.06-.03-.52c-.09-1.34,.73-2.57,2.04-3.04,.48-.17,1.3-.19,1.83-.04,.21,.06,.61,.27,.89,.47l.51,.35,.57-.18c.31-.1,.73-.25,.92-.36,.18-.1,.34-.15,.34-.12,0,.18-.39,.79-.71,1.13-.44,.48-.31,.52,.58,.2,.53-.18,.54-.18,.44,.02Z"/><path class="cls-1" d="M15.67,0C7.13,0,.2,6.93,.2,15.47s6.93,15.47,15.47,15.47,15.47-6.93,15.47-15.47S24.21,0,15.67,0Zm0,29.94c-7.99,0-14.47-6.48-14.47-14.47S7.68,1,15.67,1s14.47,6.48,14.47,14.47-6.48,14.47-14.47,14.47Z"/><path class="cls-1" d="M15.47,0C6.93,0,0,6.93,0,15.47s6.93,15.47,15.47,15.47,15.47-6.93,15.47-15.47S24.01,0,15.47,0Zm7.16,11.09c-.06,.11-.39,.48-.73,.81-.59,.58-.62,.64-.62,1.13,0,.75-.36,2.32-.71,3.17-.66,1.61-2.07,3.27-3.49,4.1-1.99,1.17-4.64,1.47-6.87,.78-.74-.23-2.02-.82-2.02-.93,0-.03,.39-.07,.86-.08,.98-.02,1.97-.3,2.81-.78l.56-.34-.65-.22c-.92-.32-1.75-1.05-1.96-1.73-.06-.22-.04-.23,.54-.23h.61l-.51-.25c-.61-.31-1.16-.82-1.43-1.35-.2-.38-.45-1.34-.38-1.42,.02-.03,.24,.03,.49,.12,.72,.26,.82,.2,.4-.24-.79-.8-1.03-2-.65-3.13l.18-.51,.69,.69c1.41,1.38,3.08,2.21,4.98,2.45l.52,.06-.03-.52c-.09-1.34,.73-2.57,2.04-3.04,.48-.17,1.3-.19,1.83-.04,.21,.06,.61,.27,.89,.47l.51,.35,.57-.18c.31-.1,.73-.25,.92-.36,.18-.1,.34-.15,.34-.12,0,.18-.39,.79-.71,1.13-.44,.48-.31,.52,.58,.2,.53-.18,.54-.18,.44,.02Z"/></g></g></svg>